<?xml version="1.0" encoding="us-ascii" standalone="no"?><svg xmlns="http://www.w3.org/2000/svg" xmlns:xlink="http://www.w3.org/1999/xlink" contentStyleType="text/css" height="887px" preserveAspectRatio="none" style="width:1869px;height:887px;background:#FFFFFF;" version="1.1" viewBox="0 0 1869 887" width="1869px" zoomAndPan="magnify"><defs/><g><rect fill="#C8C8FA" height="868.9258" style="stroke:#181818;stroke-width:0.5;" width="1566.5" x="200" y="6"/><text fill="#FFFFFF" font-family="sans-serif" font-size="13" font-weight="bold" lengthAdjust="spacing" textLength="35" x="963.75" y="20.0283">Logic</text><rect fill="#F97181" height="868.9258" style="stroke:#181818;stroke-width:0.5;" width="95" x="1768.5" y="6"/><text fill="#FFFFFF" font-family="sans-serif" font-size="13" font-weight="bold" lengthAdjust="spacing" textLength="39" x="1794.5" y="20.0283">Model</text><rect fill="#FFFFFF" height="750.1016" style="stroke:#181818;stroke-width:1.0;" width="10" x="263" y="112.8242"/><rect fill="#FFFFFF" height="351.5703" style="stroke:#181818;stroke-width:1.0;" width="10" x="581" y="144.1152"/><rect fill="#FFFFFF" height="33.6211" style="stroke:#181818;stroke-width:1.0;" width="10" x="840" y="168.1152"/><rect fill="#FFFFFF" height="231.3672" style="stroke:#181818;stroke-width:1.0;" width="10" x="840" y="233.0273"/><rect fill="#FFFFFF" height="31.291" style="stroke:#181818;stroke-width:1.0;" width="10" x="1073" y="264.3184"/><rect fill="#FFFFFF" height="31.291" style="stroke:#181818;stroke-width:1.0;" width="10" x="1073" y="326.9004"/><rect fill="#FFFFFF" height="33.6211" style="stroke:#181818;stroke-width:1.0;" width="10" x="1210.5" y="399.4824"/><rect fill="#FFFFFF" height="304.6582" style="stroke:#181818;stroke-width:1.0;" width="10" x="1210.5" y="526.9766"/><rect fill="#FFFFFF" height="31.291" style="stroke:#181818;stroke-width:1.0;" width="10" x="1526.5" y="603.5586"/><rect fill="#FFFFFF" height="50.9121" style="stroke:#181818;stroke-width:1.0;" width="10" x="1684" y="749.4316"/><rect fill="#FFFFFF" height="14" style="stroke:#181818;stroke-width:1.0;" width="10" x="1811" y="558.2676"/><rect fill="#FFFFFF" height="14" style="stroke:#181818;stroke-width:1.0;" width="10" x="1811" y="666.1406"/><rect fill="#FFFFFF" height="14" style="stroke:#181818;stroke-width:1.0;" width="10" x="1811" y="711.4316"/><line style="stroke:#181818;stroke-width:0.5;stroke-dasharray:5.0,5.0;" x1="268" x2="268" y1="79.5332" y2="880.9258"/><line style="stroke:#181818;stroke-width:0.5;stroke-dasharray:5.0,5.0;" x1="586" x2="586" y1="79.5332" y2="880.9258"/><line style="stroke:#181818;stroke-width:0.5;stroke-dasharray:5.0,5.0;" x1="845" x2="845" y1="183.9258" y2="880.9258"/><line style="stroke:#181818;stroke-width:0.5;stroke-dasharray:5.0,5.0;" x1="1077.5" x2="1077.5" y1="79.5332" y2="880.9258"/><line style="stroke:#181818;stroke-width:0.5;stroke-dasharray:5.0,5.0;" x1="1215.5" x2="1215.5" y1="398.002" y2="880.9258"/><line style="stroke:#181818;stroke-width:0.5;stroke-dasharray:5.0,5.0;" x1="1531.5" x2="1531.5" y1="79.5332" y2="880.9258"/><line style="stroke:#181818;stroke-width:0.5;stroke-dasharray:5.0,5.0;" x1="1688.5" x2="1688.5" y1="765.2422" y2="880.9258"/><line style="stroke:#181818;stroke-width:0.5;stroke-dasharray:5.0,5.0;" x1="1815.5" x2="1815.5" y1="79.5332" y2="880.9258"/><rect fill="#3333C4" height="32.6211" rx="2.5" ry="2.5" style="stroke:#181818;stroke-width:0.5;" width="108" x="214" y="45.9121"/><text fill="#FFFFFF" font-family="sans-serif" font-size="14" lengthAdjust="spacing" textLength="94" x="221" y="68.0195">:LogicManager</text><rect fill="#3333C4" height="32.6211" rx="2.5" ry="2.5" style="stroke:#181818;stroke-width:0.5;" width="144" x="514" y="45.9121"/><text fill="#FFFFFF" font-family="sans-serif" font-size="14" lengthAdjust="spacing" textLength="130" x="521" y="68.0195">:AddressBookParser</text><rect fill="#3333C4" height="51.2422" rx="2.5" ry="2.5" style="stroke:#181818;stroke-width:0.5;" width="75" x="1040.5" y="27.291"/><text fill="#FFFFFF" font-family="sans-serif" font-size="14" font-style="italic" lengthAdjust="spacing" textLength="48" x="1054" y="49.3984">&#171;class&#187;</text><text fill="#FFFFFF" font-family="sans-serif" font-size="14" lengthAdjust="spacing" textLength="61" x="1047.5" y="68.0195">ParserUtil</text><rect fill="#3333C4" height="51.2422" rx="2.5" ry="2.5" style="stroke:#181818;stroke-width:0.5;" width="128" x="1467.5" y="27.291"/><text fill="#FFFFFF" font-family="sans-serif" font-size="14" font-style="italic" lengthAdjust="spacing" textLength="48" x="1507.5" y="49.3984">&#171;class&#187;</text><text fill="#FFFFFF" font-family="sans-serif" font-size="14" lengthAdjust="spacing" textLength="114" x="1474.5" y="68.0195">AddTagCommand</text><rect fill="#9D0012" height="32.6211" rx="2.5" ry="2.5" style="stroke:#181818;stroke-width:0.5;" width="67" x="1782.5" y="45.9121"/><text fill="#FFFFFF" font-family="sans-serif" font-size="14" lengthAdjust="spacing" textLength="53" x="1789.5" y="68.0195">m:Model</text><rect fill="#FFFFFF" height="750.1016" style="stroke:#181818;stroke-width:1.0;" width="10" x="263" y="112.8242"/><rect fill="#FFFFFF" height="351.5703" style="stroke:#181818;stroke-width:1.0;" width="10" x="581" y="144.1152"/><rect fill="#FFFFFF" height="33.6211" style="stroke:#181818;stroke-width:1.0;" width="10" x="840" y="168.1152"/><rect fill="#FFFFFF" height="231.3672" style="stroke:#181818;stroke-width:1.0;" width="10" x="840" y="233.0273"/><rect fill="#FFFFFF" height="31.291" style="stroke:#181818;stroke-width:1.0;" width="10" x="1073" y="264.3184"/><rect fill="#FFFFFF" height="31.291" style="stroke:#181818;stroke-width:1.0;" width="10" x="1073" y="326.9004"/><rect fill="#FFFFFF" height="33.6211" style="stroke:#181818;stroke-width:1.0;" width="10" x="1210.5" y="399.4824"/><rect fill="#FFFFFF" height="304.6582" style="stroke:#181818;stroke-width:1.0;" width="10" x="1210.5" y="526.9766"/><rect fill="#FFFFFF" height="31.291" style="stroke:#181818;stroke-width:1.0;" width="10" x="1526.5" y="603.5586"/><rect fill="#FFFFFF" height="50.9121" style="stroke:#181818;stroke-width:1.0;" width="10" x="1684" y="749.4316"/><rect fill="#FFFFFF" height="14" style="stroke:#181818;stroke-width:1.0;" width="10" x="1811" y="558.2676"/><rect fill="#FFFFFF" height="14" style="stroke:#181818;stroke-width:1.0;" width="10" x="1811" y="666.1406"/><rect fill="#FFFFFF" height="14" style="stroke:#181818;stroke-width:1.0;" width="10" x="1811" y="711.4316"/><polygon fill="#181818" points="251,108.8242,261,112.8242,251,116.8242,255,112.8242" style="stroke:#181818;stroke-width:1.0;"/><line style="stroke:#181818;stroke-width:1.0;" x1="0" x2="257" y1="112.8242" y2="112.8242"/><text fill="#000000" font-family="sans-serif" font-size="13" lengthAdjust="spacing" textLength="244" x="9.5" y="107.5615">execute("addtag 1 t/validTag1 t/validTag2")</text><polygon fill="#181818" points="569,140.1152,579,144.1152,569,148.1152,573,144.1152" style="stroke:#181818;stroke-width:1.0;"/><line style="stroke:#181818;stroke-width:1.0;" x1="273" x2="575" y1="144.1152" y2="144.1152"/><text fill="#000000" font-family="sans-serif" font-size="13" lengthAdjust="spacing" textLength="289" x="282.5" y="138.8525">parseCommand("addtag 1 t/validTag1 t/validTag2")</text><polygon fill="#181818" points="746,154.1152,756,158.1152,746,162.1152,750,158.1152" style="stroke:#181818;stroke-width:1.0;"/><line style="stroke:#181818;stroke-width:1.0;" x1="591" x2="752" y1="158.1152" y2="158.1152"/><rect fill="#3333C4" height="32.6211" rx="2.5" ry="2.5" style="stroke:#181818;stroke-width:0.5;" width="174" x="758" y="152.1152"/><text fill="#FFFFFF" font-family="sans-serif" font-size="14" lengthAdjust="spacing" textLength="160" x="765" y="174.2227">:AddTagCommandParser</text><polygon fill="#181818" points="602,197.7363,592,201.7363,602,205.7363,598,201.7363" style="stroke:#181818;stroke-width:1.0;"/><line style="stroke:#181818;stroke-width:1.0;stroke-dasharray:2.0,2.0;" x1="596" x2="844" y1="201.7363" y2="201.7363"/><polygon fill="#181818" points="828,229.0273,838,233.0273,828,237.0273,832,233.0273" style="stroke:#181818;stroke-width:1.0;"/><line style="stroke:#181818;stroke-width:1.0;" x1="591" x2="834" y1="233.0273" y2="233.0273"/><text fill="#000000" font-family="sans-serif" font-size="13" lengthAdjust="spacing" textLength="230" x="600.5" y="227.7646">parse("addtag 1 t/validTag1 t/validTag2")</text><polygon fill="#181818" points="1061,260.3184,1071,264.3184,1061,268.3184,1065,264.3184" style="stroke:#181818;stroke-width:1.0;"/><line style="stroke:#181818;stroke-width:1.0;" x1="850" x2="1067" y1="264.3184" y2="264.3184"/><text fill="#000000" font-family="sans-serif" font-size="13" lengthAdjust="spacing" textLength="88" x="917.5" y="259.0557">parseIndex("1")</text><polygon fill="#181818" points="861,291.6094,851,295.6094,861,299.6094,857,295.6094" style="stroke:#181818;stroke-width:1.0;"/><line style="stroke:#181818;stroke-width:1.0;stroke-dasharray:2.0,2.0;" x1="855" x2="1077" y1="295.6094" y2="295.6094"/><text fill="#000000" font-family="sans-serif" font-size="13" lengthAdjust="spacing" textLength="31" x="948.5" y="290.3467">index</text><polygon fill="#181818" points="1061,322.9004,1071,326.9004,1061,330.9004,1065,326.9004" style="stroke:#181818;stroke-width:1.0;"/><line style="stroke:#181818;stroke-width:1.0;" x1="850" x2="1067" y1="326.9004" y2="326.9004"/><text fill="#000000" font-family="sans-serif" font-size="13" lengthAdjust="spacing" textLength="204" x="859.5" y="321.6377">parseTags("t/validTag1 t/validTag2")</text><polygon fill="#181818" points="861,354.1914,851,358.1914,861,362.1914,857,358.1914" style="stroke:#181818;stroke-width:1.0;"/><line style="stroke:#181818;stroke-width:1.0;stroke-dasharray:2.0,2.0;" x1="855" x2="1077" y1="358.1914" y2="358.1914"/><text fill="#000000" font-family="sans-serif" font-size="13" lengthAdjust="spacing" textLength="38" x="945" y="352.9287">tagSet</text><polygon fill="#181818" points="1133.5,385.4824,1143.5,389.4824,1133.5,393.4824,1137.5,389.4824" style="stroke:#181818;stroke-width:1.0;"/><line style="stroke:#181818;stroke-width:1.0;" x1="850" x2="1139.5" y1="389.4824" y2="389.4824"/><text fill="#000000" font-family="sans-serif" font-size="13" lengthAdjust="spacing" textLength="186" x="904.75" y="384.2197">addTagCommand(index, tagSet)</text><rect fill="#3333C4" height="32.6211" rx="2.5" ry="2.5" style="stroke:#181818;stroke-width:0.5;" width="140" x="1145.5" y="366.1914"/><text fill="#FFFFFF" font-family="sans-serif" font-size="14" lengthAdjust="spacing" textLength="126" x="1152.5" y="388.2988">a:AddTagCommand</text><polygon fill="#181818" points="861,429.1035,851,433.1035,861,437.1035,857,433.1035" style="stroke:#181818;stroke-width:1.0;"/><line style="stroke:#181818;stroke-width:1.0;stroke-dasharray:2.0,2.0;" x1="855" x2="1214.5" y1="433.1035" y2="433.1035"/><text fill="#000000" font-family="sans-serif" font-size="13" lengthAdjust="spacing" textLength="7" x="1029.25" y="427.8408">a</text><polygon fill="#181818" points="602,460.3945,592,464.3945,602,468.3945,598,464.3945" style="stroke:#181818;stroke-width:1.0;"/><line style="stroke:#181818;stroke-width:1.0;stroke-dasharray:2.0,2.0;" x1="596" x2="844" y1="464.3945" y2="464.3945"/><text fill="#000000" font-family="sans-serif" font-size="13" lengthAdjust="spacing" textLength="7" x="714.5" y="459.1318">a</text><polygon fill="#181818" points="284,491.6855,274,495.6855,284,499.6855,280,495.6855" style="stroke:#181818;stroke-width:1.0;"/><line style="stroke:#181818;stroke-width:1.0;stroke-dasharray:2.0,2.0;" x1="278" x2="585" y1="495.6855" y2="495.6855"/><text fill="#000000" font-family="sans-serif" font-size="13" lengthAdjust="spacing" textLength="7" x="426" y="490.4229">a</text><line style="stroke:#A80036;stroke-width:2.0;" x1="836" x2="854" y1="486.6855" y2="504.6855"/><line style="stroke:#A80036;stroke-width:2.0;" x1="836" x2="854" y1="504.6855" y2="486.6855"/><polygon fill="#181818" points="1198.5,522.9766,1208.5,526.9766,1198.5,530.9766,1202.5,526.9766" style="stroke:#181818;stroke-width:1.0;"/><line style="stroke:#181818;stroke-width:1.0;" x1="273" x2="1204.5" y1="526.9766" y2="526.9766"/><text fill="#000000" font-family="sans-serif" font-size="13" lengthAdjust="spacing" textLength="65" x="709.25" y="521.7139">execute(m)</text><polygon fill="#181818" points="1799,554.2676,1809,558.2676,1799,562.2676,1803,558.2676" style="stroke:#181818;stroke-width:1.0;"/><line style="stroke:#181818;stroke-width:1.0;" x1="1220.5" x2="1805" y1="558.2676" y2="558.2676"/><text fill="#000000" font-family="sans-serif" font-size="13" lengthAdjust="spacing" textLength="131" x="1450.25" y="553.0049">getFilteredPersonList()</text><polygon fill="#181818" points="1231.5,568.2676,1221.5,572.2676,1231.5,576.2676,1227.5,572.2676" style="stroke:#181818;stroke-width:1.0;"/><line style="stroke:#181818;stroke-width:1.0;stroke-dasharray:2.0,2.0;" x1="1225.5" x2="1815" y1="572.2676" y2="572.2676"/><polygon fill="#181818" points="1514.5,599.5586,1524.5,603.5586,1514.5,607.5586,1518.5,603.5586" style="stroke:#181818;stroke-width:1.0;"/><line style="stroke:#181818;stroke-width:1.0;" x1="1220.5" x2="1520.5" y1="603.5586" y2="603.5586"/><text fill="#000000" font-family="sans-serif" font-size="13" lengthAdjust="spacing" textLength="287" x="1230" y="598.2959">addTagsToPerson(personFilteredByIndex, tagSet)</text><polygon fill="#181818" points="1231.5,630.8496,1221.5,634.8496,1231.5,638.8496,1227.5,634.8496" style="stroke:#181818;stroke-width:1.0;"/><line style="stroke:#181818;stroke-width:1.0;stroke-dasharray:2.0,2.0;" x1="1225.5" x2="1530.5" y1="634.8496" y2="634.8496"/><text fill="#000000" font-family="sans-serif" font-size="13" lengthAdjust="spacing" textLength="131" x="1310.5" y="629.5869">personWithAddedTags</text><polygon fill="#181818" points="1799,662.1406,1809,666.1406,1799,670.1406,1803,666.1406" style="stroke:#181818;stroke-width:1.0;"/><line style="stroke:#181818;stroke-width:1.0;" x1="1220.5" x2="1805" y1="666.1406" y2="666.1406"/><text fill="#000000" font-family="sans-serif" font-size="13" lengthAdjust="spacing" textLength="335" x="1348.25" y="660.8779">setPerson(personFilteredByIndex, personWithAddedTags)</text><polygon fill="#181818" points="1231.5,676.1406,1221.5,680.1406,1231.5,684.1406,1227.5,680.1406" style="stroke:#181818;stroke-width:1.0;"/><line style="stroke:#181818;stroke-width:1.0;stroke-dasharray:2.0,2.0;" x1="1225.5" x2="1815" y1="680.1406" y2="680.1406"/><polygon fill="#181818" points="1799,707.4316,1809,711.4316,1799,715.4316,1803,711.4316" style="stroke:#181818;stroke-width:1.0;"/><line style="stroke:#181818;stroke-width:1.0;" x1="1220.5" x2="1805" y1="711.4316" y2="711.4316"/><text fill="#000000" font-family="sans-serif" font-size="13" lengthAdjust="spacing" textLength="374" x="1328.75" y="706.1689">updateFilteredPersonList(PREDICATE_SHOW_ALL_PERSONS)</text><polygon fill="#181818" points="1231.5,721.4316,1221.5,725.4316,1231.5,729.4316,1227.5,725.4316" style="stroke:#181818;stroke-width:1.0;"/><line style="stroke:#181818;stroke-width:1.0;stroke-dasharray:2.0,2.0;" x1="1225.5" x2="1815" y1="725.4316" y2="725.4316"/><polygon fill="#181818" points="1613.5,735.4316,1623.5,739.4316,1613.5,743.4316,1617.5,739.4316" style="stroke:#181818;stroke-width:1.0;"/><line style="stroke:#181818;stroke-width:1.0;" x1="1220.5" x2="1619.5" y1="739.4316" y2="739.4316"/><rect fill="#3333C4" height="32.6211" rx="2.5" ry="2.5" style="stroke:#181818;stroke-width:0.5;" width="127" x="1625.5" y="733.4316"/><text fill="#FFFFFF" font-family="sans-serif" font-size="14" lengthAdjust="spacing" textLength="113" x="1632.5" y="755.5391">r:CommandResult</text><polygon fill="#181818" points="1231.5,796.3438,1221.5,800.3438,1231.5,804.3438,1227.5,800.3438" style="stroke:#181818;stroke-width:1.0;"/><line style="stroke:#181818;stroke-width:1.0;stroke-dasharray:2.0,2.0;" x1="1225.5" x2="1688" y1="800.3438" y2="800.3438"/><text fill="#000000" font-family="sans-serif" font-size="13" lengthAdjust="spacing" textLength="4" x="1452.75" y="795.0811">r</text><polygon fill="#181818" points="284,827.6348,274,831.6348,284,835.6348,280,831.6348" style="stroke:#181818;stroke-width:1.0;"/><line style="stroke:#181818;stroke-width:1.0;stroke-dasharray:2.0,2.0;" x1="278" x2="1214.5" y1="831.6348" y2="831.6348"/><text fill="#000000" font-family="sans-serif" font-size="13" lengthAdjust="spacing" textLength="4" x="742.25" y="826.3721">r</text><polygon fill="#181818" points="11,858.9258,1,862.9258,11,866.9258,7,862.9258" style="stroke:#181818;stroke-width:1.0;"/><line style="stroke:#181818;stroke-width:1.0;stroke-dasharray:2.0,2.0;" x1="5" x2="267" y1="862.9258" y2="862.9258"/><text fill="#000000" font-family="sans-serif" font-size="13" lengthAdjust="spacing" textLength="4" x="132" y="857.6631">r</text><line style="stroke:#A80036;stroke-width:2.0;" x1="1206.5" x2="1224.5" y1="853.9258" y2="871.9258"/><line style="stroke:#A80036;stroke-width:2.0;" x1="1206.5" x2="1224.5" y1="871.9258" y2="853.9258"/><!--SRC=[hLNDZjem4BxxAToSKgbfHO_H2ebbsHOfD8XGxM4Fo8r7rDeaZcopXRTlIC9Ynqusg3qHxFb-F3CUVs15cXqeOAbE6Nmk3tc6v0ihIY98ZcT2y3-Fl539UHUN6M45Gh_u4KTypr8SnT-MyzqyZkBDRZj15KYnb9MaKDWBwv0LASWUX8U9nFg23ktWPfGAaFAUyvSr4R85Mwl335kod_Cy9mKrERhh_IpD_a_5iXfx_OllxjACI3cTzeE9wS5MxuU-0qmKgMB7U11X2zc0F6IgfZ9M32XKdgh2DjLTSGePNiKFYwYdkdbOnzIaLlILx3cOccKFCHmXFIZmFKAf8diymUhBAydO-OpwzrVl8oAfOgz4WS61aC5OATYz4UBo_D4UzpOjYmsXL42xq-qVP6itXgn0dT_QHAxM35n7GnJUPHfbw9AZcvCpqlnKlpAjrhAWSFIzYSvuZK98GmIzhjcPH4-3pZ3QIXKbVM_4YM_sL-Ko0TLdqDLAVQxDYH5Yel_twpnyQkNwIjJ9o81jqjjPDtJd8Cz0XzfZeajZtGAf13-v1HppmSZZPGJbexCsROTSYFUW7bccG01TWv2yY9XKlaPK1oBKn5lfra_LHbfIhdb_ARxSyaRMB-kVYvVxqt9CEpHi7SrM8d1agX5vOkftjGErWTxoEhdrr4bGmzuTQlyriVLwY0ybhQ8SLLnl5W_B-Moxs2NVuwVTB8fswyKcYNya_sAZlV76qsjxCxVVECnbPBxVheeP3qG7ROy2_QPqi9qByNmN14FXnWljl9r_0G00]--></g></svg>