<?xml version="1.0" encoding="us-ascii" standalone="no"?><svg xmlns="http://www.w3.org/2000/svg" xmlns:xlink="http://www.w3.org/1999/xlink" contentStyleType="text/css" height="798px" preserveAspectRatio="none" style="width:1468px;height:798px;background:#FFFFFF;" version="1.1" viewBox="0 0 1468 798" width="1468px" zoomAndPan="magnify"><defs/><g><rect fill="#C8C8FA" height="779.9395" style="stroke:#181818;stroke-width:0.5;" width="962" x="142" y="6"/><text fill="#FFFFFF" font-family="sans-serif" font-size="13" font-weight="bold" lengthAdjust="spacing" textLength="35" x="603.5" y="20.8979">Logic</text><rect fill="#F97181" height="779.9395" style="stroke:#181818;stroke-width:0.5;" width="95" x="1367.5" y="6"/><text fill="#FFFFFF" font-family="sans-serif" font-size="13" font-weight="bold" lengthAdjust="spacing" textLength="39" x="1393.5" y="20.8979">Model</text><rect fill="#FFFFFF" height="687.3105" style="stroke:#181818;stroke-width:1.0;" width="10" x="205" y="95.6289"/><rect fill="#FFFFFF" height="356.2754" style="stroke:#181818;stroke-width:1.0;" width="10" x="468" y="127.3833"/><rect fill="#FFFFFF" height="34.1201" style="stroke:#181818;stroke-width:1.0;" width="10" x="672" y="151.3833"/><rect fill="#FFFFFF" height="234.6465" style="stroke:#181818;stroke-width:1.0;" width="10" x="672" y="217.2578"/><rect fill="#FFFFFF" height="31.7544" style="stroke:#181818;stroke-width:1.0;" width="10" x="834" y="249.0122"/><rect fill="#FFFFFF" height="31.7544" style="stroke:#181818;stroke-width:1.0;" width="10" x="834" y="312.521"/><rect fill="#FFFFFF" height="34.1201" style="stroke:#181818;stroke-width:1.0;" width="10" x="1007" y="386.0298"/><rect fill="#FFFFFF" height="258.5264" style="stroke:#181818;stroke-width:1.0;" width="10" x="1007" y="515.4131"/><rect fill="#FFFFFF" height="42.7544" style="stroke:#181818;stroke-width:1.0;" width="10" x="1012" y="600.9219"/><rect fill="#FFFFFF" height="14" style="stroke:#181818;stroke-width:1.0;" width="10" x="1410" y="547.1675"/><rect fill="#FFFFFF" height="14" style="stroke:#181818;stroke-width:1.0;" width="10" x="1410" y="682.4307"/><rect fill="#FFFFFF" height="14" style="stroke:#181818;stroke-width:1.0;" width="10" x="1410" y="728.1851"/><line style="stroke:#181818;stroke-width:0.5;stroke-dasharray:5.0,5.0;" x1="210" x2="210" y1="61.8745" y2="791.9395"/><line style="stroke:#181818;stroke-width:0.5;stroke-dasharray:5.0,5.0;" x1="473" x2="473" y1="61.8745" y2="791.9395"/><line style="stroke:#181818;stroke-width:0.5;stroke-dasharray:5.0,5.0;" x1="677" x2="677" y1="167.4434" y2="791.9395"/><line style="stroke:#181818;stroke-width:0.5;stroke-dasharray:5.0,5.0;" x1="839" x2="839" y1="61.8745" y2="791.9395"/><line style="stroke:#181818;stroke-width:0.5;stroke-dasharray:5.0,5.0;" x1="1012" x2="1012" y1="384.3354" y2="791.9395"/><line style="stroke:#181818;stroke-width:0.5;stroke-dasharray:5.0,5.0;" x1="1414.5" x2="1414.5" y1="61.8745" y2="791.9395"/><rect fill="#3333C4" height="33.1201" rx="2.5" ry="2.5" style="stroke:#181818;stroke-width:0.5;" width="108" x="156" y="27.7544"/><text fill="#FFFFFF" font-family="sans-serif" font-size="14" lengthAdjust="spacing" textLength="94" x="163" y="50.7983">:LogicManager</text><rect fill="#3333C4" height="33.1201" rx="2.5" ry="2.5" style="stroke:#181818;stroke-width:0.5;" width="144" x="401" y="27.7544"/><text fill="#FFFFFF" font-family="sans-serif" font-size="14" lengthAdjust="spacing" textLength="130" x="408" y="50.7983">:AddressBookParser</text><rect fill="#3333C4" height="33.1201" rx="2.5" ry="2.5" style="stroke:#181818;stroke-width:0.5;" width="74" x="802" y="27.7544"/><text fill="#FFFFFF" font-family="sans-serif" font-size="14" lengthAdjust="spacing" textLength="60" x="809" y="50.7983">:ParseUtil</text><rect fill="#9D0012" height="33.1201" rx="2.5" ry="2.5" style="stroke:#181818;stroke-width:0.5;" width="67" x="1381.5" y="27.7544"/><text fill="#FFFFFF" font-family="sans-serif" font-size="14" lengthAdjust="spacing" textLength="53" x="1388.5" y="50.7983">m:Model</text><rect fill="#FFFFFF" height="687.3105" style="stroke:#181818;stroke-width:1.0;" width="10" x="205" y="95.6289"/><rect fill="#FFFFFF" height="356.2754" style="stroke:#181818;stroke-width:1.0;" width="10" x="468" y="127.3833"/><rect fill="#FFFFFF" height="34.1201" style="stroke:#181818;stroke-width:1.0;" width="10" x="672" y="151.3833"/><rect fill="#FFFFFF" height="234.6465" style="stroke:#181818;stroke-width:1.0;" width="10" x="672" y="217.2578"/><rect fill="#FFFFFF" height="31.7544" style="stroke:#181818;stroke-width:1.0;" width="10" x="834" y="249.0122"/><rect fill="#FFFFFF" height="31.7544" style="stroke:#181818;stroke-width:1.0;" width="10" x="834" y="312.521"/><rect fill="#FFFFFF" height="34.1201" style="stroke:#181818;stroke-width:1.0;" width="10" x="1007" y="386.0298"/><rect fill="#FFFFFF" height="258.5264" style="stroke:#181818;stroke-width:1.0;" width="10" x="1007" y="515.4131"/><rect fill="#FFFFFF" height="42.7544" style="stroke:#181818;stroke-width:1.0;" width="10" x="1012" y="600.9219"/><rect fill="#FFFFFF" height="14" style="stroke:#181818;stroke-width:1.0;" width="10" x="1410" y="547.1675"/><rect fill="#FFFFFF" height="14" style="stroke:#181818;stroke-width:1.0;" width="10" x="1410" y="682.4307"/><rect fill="#FFFFFF" height="14" style="stroke:#181818;stroke-width:1.0;" width="10" x="1410" y="728.1851"/><polygon fill="#181818" points="193,91.6289,203,95.6289,193,99.6289,197,95.6289" style="stroke:#181818;stroke-width:1.0;"/><line style="stroke:#181818;stroke-width:1.0;" x1="0" x2="199" y1="95.6289" y2="95.6289"/><text fill="#000000" font-family="sans-serif" font-size="13" lengthAdjust="spacing" textLength="186" x="9.5" y="90.7725">execute("deletetag 1 t/validTag")</text><polygon fill="#181818" points="456,123.3833,466,127.3833,456,131.3833,460,127.3833" style="stroke:#181818;stroke-width:1.0;"/><line style="stroke:#181818;stroke-width:1.0;" x1="215" x2="462" y1="127.3833" y2="127.3833"/><text fill="#000000" font-family="sans-serif" font-size="13" lengthAdjust="spacing" textLength="234" x="224.5" y="122.5269">parseCommand("deleteTag 1 t/validTag")</text><polygon fill="#181818" points="570,137.3833,580,141.3833,570,145.3833,574,141.3833" style="stroke:#181818;stroke-width:1.0;"/><line style="stroke:#181818;stroke-width:1.0;" x1="478" x2="576" y1="141.3833" y2="141.3833"/><rect fill="#3333C4" height="33.1201" rx="2.5" ry="2.5" style="stroke:#181818;stroke-width:0.5;" width="190" x="582" y="135.3833"/><text fill="#FFFFFF" font-family="sans-serif" font-size="14" lengthAdjust="spacing" textLength="176" x="589" y="158.4272">:DeleteTagCommandParser</text><polygon fill="#181818" points="489,181.5034,479,185.5034,489,189.5034,485,185.5034" style="stroke:#181818;stroke-width:1.0;"/><line style="stroke:#181818;stroke-width:1.0;stroke-dasharray:2.0,2.0;" x1="483" x2="676" y1="185.5034" y2="185.5034"/><polygon fill="#181818" points="660,213.2578,670,217.2578,660,221.2578,664,217.2578" style="stroke:#181818;stroke-width:1.0;"/><line style="stroke:#181818;stroke-width:1.0;" x1="478" x2="666" y1="217.2578" y2="217.2578"/><text fill="#000000" font-family="sans-serif" font-size="13" lengthAdjust="spacing" textLength="175" x="487.5" y="212.4014">parse("deleteTag 1 t/validTag")</text><polygon fill="#181818" points="822,245.0122,832,249.0122,822,253.0122,826,249.0122" style="stroke:#181818;stroke-width:1.0;"/><line style="stroke:#181818;stroke-width:1.0;" x1="682" x2="828" y1="249.0122" y2="249.0122"/><text fill="#000000" font-family="sans-serif" font-size="13" lengthAdjust="spacing" textLength="88" x="714" y="244.1558">parseIndex("1")</text><polygon fill="#181818" points="693,276.7666,683,280.7666,693,284.7666,689,280.7666" style="stroke:#181818;stroke-width:1.0;"/><line style="stroke:#181818;stroke-width:1.0;stroke-dasharray:2.0,2.0;" x1="687" x2="838" y1="280.7666" y2="280.7666"/><text fill="#000000" font-family="sans-serif" font-size="13" lengthAdjust="spacing" textLength="31" x="745" y="275.9102">index</text><polygon fill="#181818" points="822,308.521,832,312.521,822,316.521,826,312.521" style="stroke:#181818;stroke-width:1.0;"/><line style="stroke:#181818;stroke-width:1.0;" x1="682" x2="828" y1="312.521" y2="312.521"/><text fill="#000000" font-family="sans-serif" font-size="13" lengthAdjust="spacing" textLength="132" x="692" y="307.6646">parseTags("t/validTag")</text><polygon fill="#181818" points="693,340.2754,683,344.2754,693,348.2754,689,344.2754" style="stroke:#181818;stroke-width:1.0;"/><line style="stroke:#181818;stroke-width:1.0;stroke-dasharray:2.0,2.0;" x1="687" x2="838" y1="344.2754" y2="344.2754"/><text fill="#000000" font-family="sans-serif" font-size="13" lengthAdjust="spacing" textLength="54" x="733.5" y="339.4189">targetTag</text><polygon fill="#181818" points="922,372.0298,932,376.0298,922,380.0298,926,376.0298" style="stroke:#181818;stroke-width:1.0;"/><line style="stroke:#181818;stroke-width:1.0;" x1="682" x2="928" y1="376.0298" y2="376.0298"/><text fill="#000000" font-family="sans-serif" font-size="13" lengthAdjust="spacing" textLength="218" x="699" y="371.1733">DeleteTagCommand(index, targetTag)</text><rect fill="#3333C4" height="33.1201" rx="2.5" ry="2.5" style="stroke:#181818;stroke-width:0.5;" width="156" x="934" y="352.2754"/><text fill="#FFFFFF" font-family="sans-serif" font-size="14" lengthAdjust="spacing" textLength="142" x="941" y="375.3193">d:DeleteTagCommand</text><polygon fill="#181818" points="693,416.1499,683,420.1499,693,424.1499,689,420.1499" style="stroke:#181818;stroke-width:1.0;"/><line style="stroke:#181818;stroke-width:1.0;stroke-dasharray:2.0,2.0;" x1="687" x2="1011" y1="420.1499" y2="420.1499"/><text fill="#000000" font-family="sans-serif" font-size="13" lengthAdjust="spacing" textLength="7" x="843.5" y="415.2935">d</text><polygon fill="#181818" points="489,447.9043,479,451.9043,489,455.9043,485,451.9043" style="stroke:#181818;stroke-width:1.0;"/><line style="stroke:#181818;stroke-width:1.0;stroke-dasharray:2.0,2.0;" x1="483" x2="676" y1="451.9043" y2="451.9043"/><text fill="#000000" font-family="sans-serif" font-size="13" lengthAdjust="spacing" textLength="7" x="574" y="447.0479">d</text><polygon fill="#181818" points="226,479.6587,216,483.6587,226,487.6587,222,483.6587" style="stroke:#181818;stroke-width:1.0;"/><line style="stroke:#181818;stroke-width:1.0;stroke-dasharray:2.0,2.0;" x1="220" x2="472" y1="483.6587" y2="483.6587"/><text fill="#000000" font-family="sans-serif" font-size="13" lengthAdjust="spacing" textLength="7" x="340.5" y="478.8022">d</text><line style="stroke:#A80036;stroke-width:2.0;" x1="668" x2="686" y1="474.6587" y2="492.6587"/><line style="stroke:#A80036;stroke-width:2.0;" x1="668" x2="686" y1="492.6587" y2="474.6587"/><polygon fill="#181818" points="995,511.4131,1005,515.4131,995,519.4131,999,515.4131" style="stroke:#181818;stroke-width:1.0;"/><line style="stroke:#181818;stroke-width:1.0;" x1="215" x2="1001" y1="515.4131" y2="515.4131"/><text fill="#000000" font-family="sans-serif" font-size="13" lengthAdjust="spacing" textLength="65" x="578.5" y="510.5566">execute(m)</text><polygon fill="#181818" points="1398,543.1675,1408,547.1675,1398,551.1675,1402,547.1675" style="stroke:#181818;stroke-width:1.0;"/><line style="stroke:#181818;stroke-width:1.0;" x1="1017" x2="1404" y1="547.1675" y2="547.1675"/><text fill="#000000" font-family="sans-serif" font-size="13" lengthAdjust="spacing" textLength="131" x="1148" y="542.311">getFilteredPersonList()</text><polygon fill="#181818" points="1028,557.1675,1018,561.1675,1028,565.1675,1024,561.1675" style="stroke:#181818;stroke-width:1.0;"/><line style="stroke:#181818;stroke-width:1.0;stroke-dasharray:2.0,2.0;" x1="1022" x2="1414" y1="561.1675" y2="561.1675"/><line style="stroke:#181818;stroke-width:1.0;" x1="1017" x2="1064" y1="587.9219" y2="587.9219"/><line style="stroke:#181818;stroke-width:1.0;" x1="1064" x2="1064" y1="587.9219" y2="600.9219"/><line style="stroke:#181818;stroke-width:1.0;" x1="1023" x2="1064" y1="600.9219" y2="600.9219"/><polygon fill="#181818" points="1033,596.9219,1023,600.9219,1033,604.9219,1029,600.9219" style="stroke:#181818;stroke-width:1.0;"/><text fill="#000000" font-family="sans-serif" font-size="13" lengthAdjust="spacing" textLength="326" x="1029" y="583.0654">deleteTagFromPerson(personFilteredByIndex, targetTag)</text><line style="stroke:#181818;stroke-width:1.0;stroke-dasharray:2.0,2.0;" x1="1022" x2="1064" y1="642.6763" y2="642.6763"/><line style="stroke:#181818;stroke-width:1.0;stroke-dasharray:2.0,2.0;" x1="1064" x2="1064" y1="642.6763" y2="655.6763"/><line style="stroke:#181818;stroke-width:1.0;stroke-dasharray:2.0,2.0;" x1="1017" x2="1064" y1="655.6763" y2="655.6763"/><polygon fill="#181818" points="1027,651.6763,1017,655.6763,1027,659.6763,1023,655.6763" style="stroke:#181818;stroke-width:1.0;"/><text fill="#000000" font-family="sans-serif" font-size="13" lengthAdjust="spacing" textLength="76" x="1029" y="637.8198">editedPerson</text><polygon fill="#181818" points="1398,678.4307,1408,682.4307,1398,686.4307,1402,682.4307" style="stroke:#181818;stroke-width:1.0;"/><line style="stroke:#181818;stroke-width:1.0;" x1="1017" x2="1404" y1="682.4307" y2="682.4307"/><text fill="#000000" font-family="sans-serif" font-size="13" lengthAdjust="spacing" textLength="280" x="1073.5" y="677.5742">setPerson(personFilteredByIndex, editedPerson)</text><polygon fill="#181818" points="1028,692.4307,1018,696.4307,1028,700.4307,1024,696.4307" style="stroke:#181818;stroke-width:1.0;"/><line style="stroke:#181818;stroke-width:1.0;stroke-dasharray:2.0,2.0;" x1="1022" x2="1414" y1="696.4307" y2="696.4307"/><polygon fill="#181818" points="1398,724.1851,1408,728.1851,1398,732.1851,1402,728.1851" style="stroke:#181818;stroke-width:1.0;"/><line style="stroke:#181818;stroke-width:1.0;" x1="1017" x2="1404" y1="728.1851" y2="728.1851"/><text fill="#000000" font-family="sans-serif" font-size="13" lengthAdjust="spacing" textLength="374" x="1026.5" y="723.3286">updateFilteredPersonList(PREDICATE_SHOW_ALL_PERSONS)</text><polygon fill="#181818" points="1028,738.1851,1018,742.1851,1028,746.1851,1024,742.1851" style="stroke:#181818;stroke-width:1.0;"/><line style="stroke:#181818;stroke-width:1.0;stroke-dasharray:2.0,2.0;" x1="1022" x2="1414" y1="742.1851" y2="742.1851"/><polygon fill="#181818" points="226,769.9395,216,773.9395,226,777.9395,222,773.9395" style="stroke:#181818;stroke-width:1.0;"/><line style="stroke:#181818;stroke-width:1.0;stroke-dasharray:2.0,2.0;" x1="220" x2="1011" y1="773.9395" y2="773.9395"/><text fill="#000000" font-family="sans-serif" font-size="13" lengthAdjust="spacing" textLength="204" x="511.5" y="769.083">commandResult(successMessage)</text><!--SRC=[jLHDZvim4BtxLxYSMAbfbIk7IDbyj958YP9KFVI0N3n2rXgCRBDD_dqD8Oa9u2tgzX0Hc3TlthmP-mFB4rvIm4gVENmgoemZzSBoWaYIuRcKulTQvFfGHN712SiH-YLEE1GfIt0OVTaiuaKKHlluE4KcIRE45IJNs0jgo9Ra90NfOQAm_S5EVSYRKof1gMSXNdP4gYQvyzN1i0GE6euaNOWi8pcrQFf33guQy5qpNgVVteOpQATyR-4M0PXtu-h5sgsWmF4sMgx20MkpeCRKl1tqdUpdPDRsFC1mWgJKu7kqbgD9YgTOVtubd56ZpNj29D7ibMXePIBKuZ6ytN44kAZ-DErTAnmT5JeS22KIgaZ_b52tg54oWBrL6OYZWKsOz3M7ABp9DqBSrQk_CMci_9creqsPJKxXv7jJc_O6GkYEdxWKiuh5DiAY6276W9JljNhz5rMQo1Iq2Gme6rWeX-BEGGqwd_pQYu_tuevvTSrnDqHTkpPkQzzYSsnkz-PeCVKT4AMbE0_MUBm_Ubo-tatPI3TdpHqOO3ECDUCQ9D0TI2Noa2djMtGr4A4BlcyCTfCDkAzWZ_hRILvBaLsg-qNzk4fwFc_UVMqgsoZJrtx7xOvjdGBj5csN-G-Erg40bmKrm9uXxlQhvMOnFwxYmzVeHpmFmtYtsX-YRuTt5_Em-m5EBf4zg99hNvL9OdP_Qtuc_EIq_0y0]--></g></svg>