<?xml version="1.0" encoding="us-ascii" standalone="no"?><svg xmlns="http://www.w3.org/2000/svg" xmlns:xlink="http://www.w3.org/1999/xlink" contentStyleType="text/css" height="696px" preserveAspectRatio="none" style="width:1376px;height:696px;background:#FFFFFF;" version="1.1" viewBox="0 0 1376 696" width="1376px" zoomAndPan="magnify"><defs/><g><rect fill="#C8C8FA" height="681.3078" style="stroke:#181818;stroke-width:0.4000000000000001;" width="1180" x="113.6" y="4.8"/><text fill="#FFFFFF" font-family="sans-serif" font-size="10.4" font-weight="bold" lengthAdjust="spacing" textLength="28" x="688" y="16.0227">Logic</text><rect fill="#F97181" height="681.3078" style="stroke:#181818;stroke-width:0.4000000000000001;" width="76" x="1295.2" y="4.8"/><text fill="#FFFFFF" font-family="sans-serif" font-size="10.4" font-weight="bold" lengthAdjust="spacing" textLength="31.2" x="1316" y="16.0227">Model</text><rect fill="#FFFFFF" height="586.2484" style="stroke:#181818;stroke-width:0.8000000000000002;" width="8" x="164" y="90.2594"/><rect fill="#FFFFFF" height="281.2563" style="stroke:#181818;stroke-width:0.8000000000000002;" width="8" x="374.4" y="115.2922"/><rect fill="#FFFFFF" height="26.8969" style="stroke:#181818;stroke-width:0.8000000000000002;" width="8" x="537.6" y="134.4922"/><rect fill="#FFFFFF" height="185.0938" style="stroke:#181818;stroke-width:0.8000000000000002;" width="8" x="537.6" y="186.4219"/><rect fill="#FFFFFF" height="25.0328" style="stroke:#181818;stroke-width:0.8000000000000002;" width="8" x="667.6" y="211.4547"/><rect fill="#FFFFFF" height="25.0328" style="stroke:#181818;stroke-width:0.8000000000000002;" width="8" x="667.6" y="261.5203"/><rect fill="#FFFFFF" height="26.8969" style="stroke:#181818;stroke-width:0.8000000000000002;" width="8" x="811.2" y="319.5859"/><rect fill="#FFFFFF" height="229.8938" style="stroke:#181818;stroke-width:0.8000000000000002;" width="8" x="811.2" y="421.5813"/><rect fill="#FFFFFF" height="25.0328" style="stroke:#181818;stroke-width:0.8000000000000002;" width="8" x="1095.2" y="482.8469"/><rect fill="#FFFFFF" height="26.8969" style="stroke:#181818;stroke-width:0.8000000000000002;" width="8" x="1227.6" y="599.5453"/><rect fill="#FFFFFF" height="11.2" style="stroke:#181818;stroke-width:0.8000000000000002;" width="8" x="1329.2" y="446.6141"/><rect fill="#FFFFFF" height="11.2" style="stroke:#181818;stroke-width:0.8000000000000002;" width="8" x="1329.2" y="532.9125"/><rect fill="#FFFFFF" height="11.2" style="stroke:#181818;stroke-width:0.8000000000000002;" width="8" x="1329.2" y="569.1453"/><line style="stroke:#181818;stroke-width:0.4000000000000001;stroke-dasharray:5.0,5.0;" x1="168" x2="168" y1="63.6266" y2="690.9078"/><line style="stroke:#181818;stroke-width:0.4000000000000001;stroke-dasharray:5.0,5.0;" x1="378.4" x2="378.4" y1="63.6266" y2="690.9078"/><line style="stroke:#181818;stroke-width:0.4000000000000001;stroke-dasharray:5.0,5.0;" x1="541.6" x2="541.6" y1="147.1406" y2="690.9078"/><line style="stroke:#181818;stroke-width:0.4000000000000001;stroke-dasharray:5.0,5.0;" x1="671.2" x2="671.2" y1="63.6266" y2="690.9078"/><line style="stroke:#181818;stroke-width:0.4000000000000001;stroke-dasharray:5.0,5.0;" x1="815.2" x2="815.2" y1="318.4016" y2="690.9078"/><line style="stroke:#181818;stroke-width:0.4000000000000001;stroke-dasharray:5.0,5.0;" x1="1099.2" x2="1099.2" y1="63.6266" y2="690.9078"/><line style="stroke:#181818;stroke-width:0.4000000000000001;stroke-dasharray:5.0,5.0;" x1="1231.2" x2="1231.2" y1="612.1938" y2="690.9078"/><line style="stroke:#181818;stroke-width:0.4000000000000001;stroke-dasharray:5.0,5.0;" x1="1332.8" x2="1332.8" y1="63.6266" y2="690.9078"/><rect fill="#3333C4" height="26.0969" rx="2" ry="2" style="stroke:#181818;stroke-width:0.4000000000000001;" width="86.4" x="124.8" y="36.7297"/><text fill="#FFFFFF" font-family="sans-serif" font-size="11.2" lengthAdjust="spacing" textLength="75.2" x="130.4" y="54.4156">:LogicManager</text><rect fill="#3333C4" height="26.0969" rx="2" ry="2" style="stroke:#181818;stroke-width:0.4000000000000001;" width="115.2" x="320.8" y="36.7297"/><text fill="#FFFFFF" font-family="sans-serif" font-size="11.2" lengthAdjust="spacing" textLength="104" x="326.4" y="54.4156">:AddressBookParser</text><rect fill="#3333C4" height="40.9938" rx="2" ry="2" style="stroke:#181818;stroke-width:0.4000000000000001;" width="60" x="641.6" y="21.8328"/><text fill="#FFFFFF" font-family="sans-serif" font-size="11.2" font-style="italic" lengthAdjust="spacing" textLength="38.4" x="652.4" y="39.5188">&#171;class&#187;</text><text fill="#FFFFFF" font-family="sans-serif" font-size="11.2" lengthAdjust="spacing" textLength="48.8" x="647.2" y="54.4156">ParserUtil</text><rect fill="#3333C4" height="40.9938" rx="2" ry="2" style="stroke:#181818;stroke-width:0.4000000000000001;" width="115.2" x="1041.6" y="21.8328"/><text fill="#FFFFFF" font-family="sans-serif" font-size="11.2" font-style="italic" lengthAdjust="spacing" textLength="38.4" x="1080" y="39.5188">&#171;class&#187;</text><text fill="#FFFFFF" font-family="sans-serif" font-size="11.2" lengthAdjust="spacing" textLength="104" x="1047.2" y="54.4156">DeleteTagCommand</text><rect fill="#9D0012" height="26.0969" rx="2" ry="2" style="stroke:#181818;stroke-width:0.4000000000000001;" width="53.6" x="1306.4" y="36.7297"/><text fill="#FFFFFF" font-family="sans-serif" font-size="11.2" lengthAdjust="spacing" textLength="42.4" x="1312" y="54.4156">m:Model</text><rect fill="#FFFFFF" height="586.2484" style="stroke:#181818;stroke-width:0.8000000000000002;" width="8" x="164" y="90.2594"/><rect fill="#FFFFFF" height="281.2563" style="stroke:#181818;stroke-width:0.8000000000000002;" width="8" x="374.4" y="115.2922"/><rect fill="#FFFFFF" height="26.8969" style="stroke:#181818;stroke-width:0.8000000000000002;" width="8" x="537.6" y="134.4922"/><rect fill="#FFFFFF" height="185.0938" style="stroke:#181818;stroke-width:0.8000000000000002;" width="8" x="537.6" y="186.4219"/><rect fill="#FFFFFF" height="25.0328" style="stroke:#181818;stroke-width:0.8000000000000002;" width="8" x="667.6" y="211.4547"/><rect fill="#FFFFFF" height="25.0328" style="stroke:#181818;stroke-width:0.8000000000000002;" width="8" x="667.6" y="261.5203"/><rect fill="#FFFFFF" height="26.8969" style="stroke:#181818;stroke-width:0.8000000000000002;" width="8" x="811.2" y="319.5859"/><rect fill="#FFFFFF" height="229.8938" style="stroke:#181818;stroke-width:0.8000000000000002;" width="8" x="811.2" y="421.5813"/><rect fill="#FFFFFF" height="25.0328" style="stroke:#181818;stroke-width:0.8000000000000002;" width="8" x="1095.2" y="482.8469"/><rect fill="#FFFFFF" height="26.8969" style="stroke:#181818;stroke-width:0.8000000000000002;" width="8" x="1227.6" y="599.5453"/><rect fill="#FFFFFF" height="11.2" style="stroke:#181818;stroke-width:0.8000000000000002;" width="8" x="1329.2" y="446.6141"/><rect fill="#FFFFFF" height="11.2" style="stroke:#181818;stroke-width:0.8000000000000002;" width="8" x="1329.2" y="532.9125"/><rect fill="#FFFFFF" height="11.2" style="stroke:#181818;stroke-width:0.8000000000000002;" width="8" x="1329.2" y="569.1453"/><polygon fill="#181818" points="154.4,87.0594,162.4,90.2594,154.4,93.4594,157.6,90.2594" style="stroke:#181818;stroke-width:0.8000000000000002;"/><line style="stroke:#181818;stroke-width:0.8000000000000002;" x1="0" x2="159.2" y1="90.2594" y2="90.2594"/><text fill="#000000" font-family="sans-serif" font-size="10.4" lengthAdjust="spacing" textLength="148.8" x="7.6" y="86.0492">execute("deletetag 1 t/validTag")</text><polygon fill="#181818" points="364.8,112.0922,372.8,115.2922,364.8,118.4922,368,115.2922" style="stroke:#181818;stroke-width:0.8000000000000002;"/><line style="stroke:#181818;stroke-width:0.8000000000000002;" x1="172" x2="369.6" y1="115.2922" y2="115.2922"/><text fill="#000000" font-family="sans-serif" font-size="10.4" lengthAdjust="spacing" textLength="187.2" x="179.6" y="111.082">parseCommand("deleteTag 1 t/validTag")</text><polygon fill="#181818" points="456,123.2922,464,126.4922,456,129.6922,459.2,126.4922" style="stroke:#181818;stroke-width:0.8000000000000002;"/><line style="stroke:#181818;stroke-width:0.8000000000000002;" x1="382.4" x2="460.8" y1="126.4922" y2="126.4922"/><rect fill="#3333C4" height="26.0969" rx="2" ry="2" style="stroke:#181818;stroke-width:0.4000000000000001;" width="152" x="465.6" y="121.6922"/><text fill="#FFFFFF" font-family="sans-serif" font-size="11.2" lengthAdjust="spacing" textLength="140.8" x="471.2" y="139.3781">:DeleteTagCommandParser</text><polygon fill="#181818" points="391.2,158.1891,383.2,161.3891,391.2,164.5891,388,161.3891" style="stroke:#181818;stroke-width:0.8000000000000002;"/><line style="stroke:#181818;stroke-width:0.8000000000000002;stroke-dasharray:2.0,2.0;" x1="386.4" x2="540.8" y1="161.3891" y2="161.3891"/><polygon fill="#181818" points="528,183.2219,536,186.4219,528,189.6219,531.2,186.4219" style="stroke:#181818;stroke-width:0.8000000000000002;"/><line style="stroke:#181818;stroke-width:0.8000000000000002;" x1="382.4" x2="532.8" y1="186.4219" y2="186.4219"/><text fill="#000000" font-family="sans-serif" font-size="10.4" lengthAdjust="spacing" textLength="140" x="390" y="182.2117">parse("deleteTag 1 t/validTag")</text><polygon fill="#181818" points="658,208.2547,666,211.4547,658,214.6547,661.2,211.4547" style="stroke:#181818;stroke-width:0.8000000000000002;"/><line style="stroke:#181818;stroke-width:0.8000000000000002;" x1="545.6" x2="662.8" y1="211.4547" y2="211.4547"/><text fill="#000000" font-family="sans-serif" font-size="10.4" lengthAdjust="spacing" textLength="70.4" x="571.4" y="207.2445">parseIndex("1")</text><polygon fill="#181818" points="554.4,233.2875,546.4,236.4875,554.4,239.6875,551.2,236.4875" style="stroke:#181818;stroke-width:0.8000000000000002;"/><line style="stroke:#181818;stroke-width:0.8000000000000002;stroke-dasharray:2.0,2.0;" x1="549.6" x2="670.8" y1="236.4875" y2="236.4875"/><text fill="#000000" font-family="sans-serif" font-size="10.4" lengthAdjust="spacing" textLength="24.8" x="596.2" y="232.2773">index</text><polygon fill="#181818" points="658,258.3203,666,261.5203,658,264.7203,661.2,261.5203" style="stroke:#181818;stroke-width:0.8000000000000002;"/><line style="stroke:#181818;stroke-width:0.8000000000000002;" x1="545.6" x2="662.8" y1="261.5203" y2="261.5203"/><text fill="#000000" font-family="sans-serif" font-size="10.4" lengthAdjust="spacing" textLength="105.6" x="553.8" y="257.3102">parseTags("t/validTag")</text><polygon fill="#181818" points="554.4,283.3531,546.4,286.5531,554.4,289.7531,551.2,286.5531" style="stroke:#181818;stroke-width:0.8000000000000002;"/><line style="stroke:#181818;stroke-width:0.8000000000000002;stroke-dasharray:2.0,2.0;" x1="549.6" x2="670.8" y1="286.5531" y2="286.5531"/><text fill="#000000" font-family="sans-serif" font-size="10.4" lengthAdjust="spacing" textLength="48.8" x="584.2" y="282.343">targetTags</text><polygon fill="#181818" points="743.2,308.3859,751.2,311.5859,743.2,314.7859,746.4,311.5859" style="stroke:#181818;stroke-width:0.8000000000000002;"/><line style="stroke:#181818;stroke-width:0.8000000000000002;" x1="545.6" x2="748" y1="311.5859" y2="311.5859"/><text fill="#000000" font-family="sans-serif" font-size="10.4" lengthAdjust="spacing" textLength="180" x="559.2" y="307.3758">DeleteTagCommand(index, targetTags)</text><rect fill="#3333C4" height="26.0969" rx="2" ry="2" style="stroke:#181818;stroke-width:0.4000000000000001;" width="124.8" x="752.8" y="292.9531"/><text fill="#FFFFFF" font-family="sans-serif" font-size="11.2" lengthAdjust="spacing" textLength="113.6" x="758.4" y="310.6391">d:DeleteTagCommand</text><polygon fill="#181818" points="554.4,343.2828,546.4,346.4828,554.4,349.6828,551.2,346.4828" style="stroke:#181818;stroke-width:0.8000000000000002;"/><line style="stroke:#181818;stroke-width:0.8000000000000002;stroke-dasharray:2.0,2.0;" x1="549.6" x2="814.4" y1="346.4828" y2="346.4828"/><text fill="#000000" font-family="sans-serif" font-size="10.4" lengthAdjust="spacing" textLength="5.6" x="677.6" y="342.2727">d</text><polygon fill="#181818" points="391.2,368.3156,383.2,371.5156,391.2,374.7156,388,371.5156" style="stroke:#181818;stroke-width:0.8000000000000002;"/><line style="stroke:#181818;stroke-width:0.8000000000000002;stroke-dasharray:2.0,2.0;" x1="386.4" x2="540.8" y1="371.5156" y2="371.5156"/><text fill="#000000" font-family="sans-serif" font-size="10.4" lengthAdjust="spacing" textLength="5.6" x="459.2" y="367.3055">d</text><polygon fill="#181818" points="180.8,393.3484,172.8,396.5484,180.8,399.7484,177.6,396.5484" style="stroke:#181818;stroke-width:0.8000000000000002;"/><line style="stroke:#181818;stroke-width:0.8000000000000002;stroke-dasharray:2.0,2.0;" x1="176" x2="377.6" y1="396.5484" y2="396.5484"/><text fill="#000000" font-family="sans-serif" font-size="10.4" lengthAdjust="spacing" textLength="5.6" x="272.4" y="392.3383">d</text><line style="stroke:#A80036;stroke-width:1.6000000000000003;" x1="534.4" x2="548.8" y1="389.3484" y2="403.7484"/><line style="stroke:#A80036;stroke-width:1.6000000000000003;" x1="534.4" x2="548.8" y1="403.7484" y2="389.3484"/><polygon fill="#181818" points="801.6,418.3813,809.6,421.5813,801.6,424.7813,804.8,421.5813" style="stroke:#181818;stroke-width:0.8000000000000002;"/><line style="stroke:#181818;stroke-width:0.8000000000000002;" x1="172" x2="806.4" y1="421.5813" y2="421.5813"/><text fill="#000000" font-family="sans-serif" font-size="10.4" lengthAdjust="spacing" textLength="52" x="465.6" y="417.3711">execute(m)</text><polygon fill="#181818" points="1319.6,443.4141,1327.6,446.6141,1319.6,449.8141,1322.8,446.6141" style="stroke:#181818;stroke-width:0.8000000000000002;"/><line style="stroke:#181818;stroke-width:0.8000000000000002;" x1="819.2" x2="1324.4" y1="446.6141" y2="446.6141"/><text fill="#000000" font-family="sans-serif" font-size="10.4" lengthAdjust="spacing" textLength="104.8" x="1021.8" y="442.4039">getFilteredPersonList()</text><polygon fill="#181818" points="828,454.6141,820,457.8141,828,461.0141,824.8,457.8141" style="stroke:#181818;stroke-width:0.8000000000000002;"/><line style="stroke:#181818;stroke-width:0.8000000000000002;stroke-dasharray:2.0,2.0;" x1="823.2" x2="1332.4" y1="457.8141" y2="457.8141"/><polygon fill="#181818" points="1085.6,479.6469,1093.6,482.8469,1085.6,486.0469,1088.8,482.8469" style="stroke:#181818;stroke-width:0.8000000000000002;"/><line style="stroke:#181818;stroke-width:0.8000000000000002;" x1="819.2" x2="1090.4" y1="482.8469" y2="482.8469"/><text fill="#000000" font-family="sans-serif" font-size="10.4" lengthAdjust="spacing" textLength="260.8" x="826.8" y="478.6367">deleteTagFromPerson(personFilteredByIndex, targetTag)</text><polygon fill="#181818" points="828,504.6797,820,507.8797,828,511.0797,824.8,507.8797" style="stroke:#181818;stroke-width:0.8000000000000002;"/><line style="stroke:#181818;stroke-width:0.8000000000000002;stroke-dasharray:2.0,2.0;" x1="823.2" x2="1098.4" y1="507.8797" y2="507.8797"/><text fill="#000000" font-family="sans-serif" font-size="10.4" lengthAdjust="spacing" textLength="60.8" x="928.8" y="503.6695">editedPerson</text><polygon fill="#181818" points="1319.6,529.7125,1327.6,532.9125,1319.6,536.1125,1322.8,532.9125" style="stroke:#181818;stroke-width:0.8000000000000002;"/><line style="stroke:#181818;stroke-width:0.8000000000000002;" x1="819.2" x2="1324.4" y1="532.9125" y2="532.9125"/><text fill="#000000" font-family="sans-serif" font-size="10.4" lengthAdjust="spacing" textLength="224" x="962.2" y="528.7023">setPerson(personFilteredByIndex, editedPerson)</text><polygon fill="#181818" points="828,540.9125,820,544.1125,828,547.3125,824.8,544.1125" style="stroke:#181818;stroke-width:0.8000000000000002;"/><line style="stroke:#181818;stroke-width:0.8000000000000002;stroke-dasharray:2.0,2.0;" x1="823.2" x2="1332.4" y1="544.1125" y2="544.1125"/><polygon fill="#181818" points="1319.6,565.9453,1327.6,569.1453,1319.6,572.3453,1322.8,569.1453" style="stroke:#181818;stroke-width:0.8000000000000002;"/><line style="stroke:#181818;stroke-width:0.8000000000000002;" x1="819.2" x2="1324.4" y1="569.1453" y2="569.1453"/><text fill="#000000" font-family="sans-serif" font-size="10.4" lengthAdjust="spacing" textLength="299.2" x="924.6" y="564.9352">updateFilteredPersonList(PREDICATE_SHOW_ALL_PERSONS)</text><polygon fill="#181818" points="828,577.1453,820,580.3453,828,583.5453,824.8,580.3453" style="stroke:#181818;stroke-width:0.8000000000000002;"/><line style="stroke:#181818;stroke-width:0.8000000000000002;stroke-dasharray:2.0,2.0;" x1="823.2" x2="1332.4" y1="580.3453" y2="580.3453"/><polygon fill="#181818" points="1171.2,588.3453,1179.2,591.5453,1171.2,594.7453,1174.4,591.5453" style="stroke:#181818;stroke-width:0.8000000000000002;"/><line style="stroke:#181818;stroke-width:0.8000000000000002;" x1="819.2" x2="1176" y1="591.5453" y2="591.5453"/><rect fill="#3333C4" height="26.0969" rx="2" ry="2" style="stroke:#181818;stroke-width:0.4000000000000001;" width="101.6" x="1180.8" y="586.7453"/><text fill="#FFFFFF" font-family="sans-serif" font-size="11.2" lengthAdjust="spacing" textLength="90.4" x="1186.4" y="604.4313">r:CommandResult</text><polygon fill="#181818" points="828,623.2422,820,626.4422,828,629.6422,824.8,626.4422" style="stroke:#181818;stroke-width:0.8000000000000002;"/><line style="stroke:#181818;stroke-width:0.8000000000000002;stroke-dasharray:2.0,2.0;" x1="823.2" x2="1230.8" y1="626.4422" y2="626.4422"/><polygon fill="#181818" points="180.8,648.275,172.8,651.475,180.8,654.675,177.6,651.475" style="stroke:#181818;stroke-width:0.8000000000000002;"/><line style="stroke:#181818;stroke-width:0.8000000000000002;stroke-dasharray:2.0,2.0;" x1="176" x2="814.4" y1="651.475" y2="651.475"/><text fill="#000000" font-family="sans-serif" font-size="10.4" lengthAdjust="spacing" textLength="3.2" x="492" y="647.2648">r</text><polygon fill="#181818" points="8.8,673.3078,0.8,676.5078,8.8,679.7078,5.6,676.5078" style="stroke:#181818;stroke-width:0.8000000000000002;"/><line style="stroke:#181818;stroke-width:0.8000000000000002;stroke-dasharray:2.0,2.0;" x1="4" x2="167.2" y1="676.5078" y2="676.5078"/><text fill="#000000" font-family="sans-serif" font-size="10.4" lengthAdjust="spacing" textLength="3.2" x="82.4" y="672.2977">r</text><line style="stroke:#A80036;stroke-width:1.6000000000000003;" x1="808" x2="822.4" y1="669.3078" y2="683.7078"/><line style="stroke:#A80036;stroke-width:1.6000000000000003;" x1="808" x2="822.4" y1="683.7078" y2="669.3078"/><!--SRC=[jLRBZjem5DtxAzoiKgbfnJP2I0oF5Yaq2AYwc0LoOmjPuyIHRQRCtpU4PB3n0z2eAy3tddFFVVYQJxGgs04JADKR8r_hGyc0VA5LZGGguLW8_dVEAxKvMM7D4Aq0-CEFCEDxMi0i_xwOx2Pvbgztsm5eG8eMj4QLWb7QkYnHXVP4H119g1_eq2lS66D1f7pY_6M5XEp0rcc0OKeOKMIBzXDUbgZ26etRvESwstyfobhuvISS3Wk6f1oD_61iAN5gy1FS1Tyer23kqIFI3h8cyi1KosQS653IA6jQVUxtacF2u3AVpZ9FlykqzMb9BUyBsNCoCWSXXUH8YeCYSOJRp1JQmm5KtruHexX9C_eCKA7eArB4G09Wy3Iyzeoai3vzwPBi8sm34ImE00f1JXRtw00xQAF4u_iUnMC7dl5CNCa1J6xoFI2khzKzHNfK_aY_E5sSHON9COu6Ek_52m0DaOH4qnEFNWkTv151ZPUC8oFXZobJIEo9Ej7wv7acAo3RsXsfTHIt5VcYXGzqpYvHE2SSchh7vlSMMs26xHrYCBckYbI2ltbZN6yIHvdxBLK-MCrHjmrJs7HZJfaYWk0L4P9N6PKgrkXQHm3E_gusw4bspgw0dXUYgL9lc0jUdZN4TVlH2tjwMrnDJo3TCw-jeOkNU0g9gUeh4Eg_ZrqlgIGgd8OUx3zKkZMby53Znj7HtDLwDbrCnjlPRlCZ_xqRPzbkDLjlyf-R3uhfDeVnUZiLcXxlDEOnCFy5tD9m1NPk4Fr6fL24ryRpC4ckBhI1C9vztrt-1m00]--></g></svg>