<?xml version="1.0" encoding="us-ascii" standalone="no"?><svg xmlns="http://www.w3.org/2000/svg" xmlns:xlink="http://www.w3.org/1999/xlink" contentStyleType="text/css" height="570px" preserveAspectRatio="none" style="width:1020px;height:570px;background:#FFFFFF;" version="1.1" viewBox="0 0 1020 570" width="1020px" zoomAndPan="magnify"><defs/><g><rect fill="#C8C8FA" height="551.3945" style="stroke:#181818;stroke-width:0.5;" width="851" x="66" y="6"/><text fill="#FFFFFF" font-family="sans-serif" font-size="13" font-weight="bold" lengthAdjust="spacing" textLength="35" x="472" y="20.0283">Logic</text><rect fill="#F97181" height="551.3945" style="stroke:#181818;stroke-width:0.5;" width="95" x="919" y="6"/><text fill="#FFFFFF" font-family="sans-serif" font-size="13" font-weight="bold" lengthAdjust="spacing" textLength="39" x="945" y="20.0283">Model</text><rect fill="#FFFFFF" height="451.1914" style="stroke:#181818;stroke-width:1.0;" width="10" x="129" y="94.2031"/><rect fill="#FFFFFF" height="223.1152" style="stroke:#181818;stroke-width:1.0;" width="10" x="313" y="125.4941"/><rect fill="#FFFFFF" height="33.6211" style="stroke:#181818;stroke-width:1.0;" width="10" x="497.5" y="149.4941"/><rect fill="#FFFFFF" height="88.9121" style="stroke:#181818;stroke-width:1.0;" width="10" x="497.5" y="214.4063"/><rect fill="#FFFFFF" height="33.6211" style="stroke:#181818;stroke-width:1.0;" width="10" x="675.5" y="238.4063"/><rect fill="#FFFFFF" height="134.2031" style="stroke:#181818;stroke-width:1.0;" width="10" x="675.5" y="379.9004"/><rect fill="#FFFFFF" height="33.6211" style="stroke:#181818;stroke-width:1.0;" width="10" x="834.5" y="449.1914"/><rect fill="#FFFFFF" height="14" style="stroke:#181818;stroke-width:1.0;" width="10" x="961.5" y="411.1914"/><line style="stroke:#181818;stroke-width:0.5;stroke-dasharray:5.0,5.0;" x1="134" x2="134" y1="60.9121" y2="563.3945"/><line style="stroke:#181818;stroke-width:0.5;stroke-dasharray:5.0,5.0;" x1="318" x2="318" y1="60.9121" y2="563.3945"/><line style="stroke:#181818;stroke-width:0.5;stroke-dasharray:5.0,5.0;" x1="502" x2="502" y1="165.3047" y2="563.3945"/><line style="stroke:#181818;stroke-width:0.5;stroke-dasharray:5.0,5.0;" x1="680" x2="680" y1="254.2168" y2="563.3945"/><line style="stroke:#181818;stroke-width:0.5;stroke-dasharray:5.0,5.0;" x1="839" x2="839" y1="465.002" y2="563.3945"/><line style="stroke:#181818;stroke-width:0.5;stroke-dasharray:5.0,5.0;" x1="966" x2="966" y1="60.9121" y2="563.3945"/><rect fill="#3333C4" height="32.6211" rx="2.5" ry="2.5" style="stroke:#181818;stroke-width:0.5;" width="108" x="80" y="27.291"/><text fill="#FFFFFF" font-family="sans-serif" font-size="14" lengthAdjust="spacing" textLength="94" x="87" y="49.3984">:LogicManager</text><rect fill="#3333C4" height="32.6211" rx="2.5" ry="2.5" style="stroke:#181818;stroke-width:0.5;" width="144" x="246" y="27.291"/><text fill="#FFFFFF" font-family="sans-serif" font-size="14" lengthAdjust="spacing" textLength="130" x="253" y="49.3984">:AddressBookParser</text><rect fill="#9D0012" height="32.6211" rx="2.5" ry="2.5" style="stroke:#181818;stroke-width:0.5;" width="67" x="933" y="27.291"/><text fill="#FFFFFF" font-family="sans-serif" font-size="14" lengthAdjust="spacing" textLength="53" x="940" y="49.3984">m:Model</text><rect fill="#FFFFFF" height="451.1914" style="stroke:#181818;stroke-width:1.0;" width="10" x="129" y="94.2031"/><rect fill="#FFFFFF" height="223.1152" style="stroke:#181818;stroke-width:1.0;" width="10" x="313" y="125.4941"/><rect fill="#FFFFFF" height="33.6211" style="stroke:#181818;stroke-width:1.0;" width="10" x="497.5" y="149.4941"/><rect fill="#FFFFFF" height="88.9121" style="stroke:#181818;stroke-width:1.0;" width="10" x="497.5" y="214.4063"/><rect fill="#FFFFFF" height="33.6211" style="stroke:#181818;stroke-width:1.0;" width="10" x="675.5" y="238.4063"/><rect fill="#FFFFFF" height="134.2031" style="stroke:#181818;stroke-width:1.0;" width="10" x="675.5" y="379.9004"/><rect fill="#FFFFFF" height="33.6211" style="stroke:#181818;stroke-width:1.0;" width="10" x="834.5" y="449.1914"/><rect fill="#FFFFFF" height="14" style="stroke:#181818;stroke-width:1.0;" width="10" x="961.5" y="411.1914"/><polygon fill="#181818" points="117,90.2031,127,94.2031,117,98.2031,121,94.2031" style="stroke:#181818;stroke-width:1.0;"/><line style="stroke:#181818;stroke-width:1.0;" x1="0" x2="123" y1="94.2031" y2="94.2031"/><text fill="#000000" font-family="sans-serif" font-size="13" lengthAdjust="spacing" textLength="110" x="9.5" y="88.9404">execute("delete 1")</text><polygon fill="#181818" points="301,121.4941,311,125.4941,301,129.4941,305,125.4941" style="stroke:#181818;stroke-width:1.0;"/><line style="stroke:#181818;stroke-width:1.0;" x1="139" x2="307" y1="125.4941" y2="125.4941"/><text fill="#000000" font-family="sans-serif" font-size="13" lengthAdjust="spacing" textLength="155" x="148.5" y="120.2314">parseCommand("delete 1")</text><polygon fill="#181818" points="408,135.4941,418,139.4941,408,143.4941,412,139.4941" style="stroke:#181818;stroke-width:1.0;"/><line style="stroke:#181818;stroke-width:1.0;" x1="323" x2="414" y1="139.4941" y2="139.4941"/><rect fill="#3333C4" height="32.6211" rx="2.5" ry="2.5" style="stroke:#181818;stroke-width:0.5;" width="165" x="420" y="133.4941"/><text fill="#FFFFFF" font-family="sans-serif" font-size="14" lengthAdjust="spacing" textLength="151" x="427" y="155.6016">:DeleteCommandParser</text><polygon fill="#181818" points="334,179.1152,324,183.1152,334,187.1152,330,183.1152" style="stroke:#181818;stroke-width:1.0;"/><line style="stroke:#181818;stroke-width:1.0;stroke-dasharray:2.0,2.0;" x1="328" x2="501.5" y1="183.1152" y2="183.1152"/><polygon fill="#181818" points="485.5,210.4063,495.5,214.4063,485.5,218.4063,489.5,214.4063" style="stroke:#181818;stroke-width:1.0;"/><line style="stroke:#181818;stroke-width:1.0;" x1="323" x2="491.5" y1="214.4063" y2="214.4063"/><text fill="#000000" font-family="sans-serif" font-size="13" lengthAdjust="spacing" textLength="57" x="381.75" y="209.1436">parse("1")</text><polygon fill="#181818" points="603,224.4063,613,228.4063,603,232.4063,607,228.4063" style="stroke:#181818;stroke-width:1.0;"/><line style="stroke:#181818;stroke-width:1.0;" x1="507.5" x2="609" y1="228.4063" y2="228.4063"/><rect fill="#3333C4" height="32.6211" rx="2.5" ry="2.5" style="stroke:#181818;stroke-width:0.5;" width="131" x="615" y="222.4063"/><text fill="#FFFFFF" font-family="sans-serif" font-size="14" lengthAdjust="spacing" textLength="117" x="622" y="244.5137">d:DeleteCommand</text><polygon fill="#181818" points="518.5,268.0273,508.5,272.0273,518.5,276.0273,514.5,272.0273" style="stroke:#181818;stroke-width:1.0;"/><line style="stroke:#181818;stroke-width:1.0;stroke-dasharray:2.0,2.0;" x1="512.5" x2="679.5" y1="272.0273" y2="272.0273"/><polygon fill="#181818" points="334,299.3184,324,303.3184,334,307.3184,330,303.3184" style="stroke:#181818;stroke-width:1.0;"/><line style="stroke:#181818;stroke-width:1.0;stroke-dasharray:2.0,2.0;" x1="328" x2="501.5" y1="303.3184" y2="303.3184"/><text fill="#000000" font-family="sans-serif" font-size="13" lengthAdjust="spacing" textLength="7" x="409.25" y="298.0557">d</text><polygon fill="#181818" points="150,344.6094,140,348.6094,150,352.6094,146,348.6094" style="stroke:#181818;stroke-width:1.0;"/><line style="stroke:#181818;stroke-width:1.0;stroke-dasharray:2.0,2.0;" x1="144" x2="317" y1="348.6094" y2="348.6094"/><text fill="#000000" font-family="sans-serif" font-size="13" lengthAdjust="spacing" textLength="7" x="225" y="343.3467">d</text><line style="stroke:#A80036;stroke-width:2.0;" x1="493.5" x2="511.5" y1="339.6094" y2="357.6094"/><line style="stroke:#A80036;stroke-width:2.0;" x1="493.5" x2="511.5" y1="357.6094" y2="339.6094"/><polygon fill="#181818" points="663.5,375.9004,673.5,379.9004,663.5,383.9004,667.5,379.9004" style="stroke:#181818;stroke-width:1.0;"/><line style="stroke:#181818;stroke-width:1.0;" x1="139" x2="669.5" y1="379.9004" y2="379.9004"/><text fill="#000000" font-family="sans-serif" font-size="13" lengthAdjust="spacing" textLength="65" x="374.75" y="374.6377">execute(m)</text><polygon fill="#181818" points="949.5,407.1914,959.5,411.1914,949.5,415.1914,953.5,411.1914" style="stroke:#181818;stroke-width:1.0;"/><line style="stroke:#181818;stroke-width:1.0;" x1="685.5" x2="955.5" y1="411.1914" y2="411.1914"/><text fill="#000000" font-family="sans-serif" font-size="13" lengthAdjust="spacing" textLength="91" x="778" y="405.9287">deletePerson(1)</text><polygon fill="#181818" points="696.5,421.1914,686.5,425.1914,696.5,429.1914,692.5,425.1914" style="stroke:#181818;stroke-width:1.0;"/><line style="stroke:#181818;stroke-width:1.0;stroke-dasharray:2.0,2.0;" x1="690.5" x2="965.5" y1="425.1914" y2="425.1914"/><polygon fill="#181818" points="764,435.1914,774,439.1914,764,443.1914,768,439.1914" style="stroke:#181818;stroke-width:1.0;"/><line style="stroke:#181818;stroke-width:1.0;" x1="685.5" x2="770" y1="439.1914" y2="439.1914"/><rect fill="#3333C4" height="32.6211" rx="2.5" ry="2.5" style="stroke:#181818;stroke-width:0.5;" width="127" x="776" y="433.1914"/><text fill="#FFFFFF" font-family="sans-serif" font-size="14" lengthAdjust="spacing" textLength="113" x="783" y="455.2988">r:CommandResult</text><polygon fill="#181818" points="696.5,478.8125,686.5,482.8125,696.5,486.8125,692.5,482.8125" style="stroke:#181818;stroke-width:1.0;"/><line style="stroke:#181818;stroke-width:1.0;stroke-dasharray:2.0,2.0;" x1="690.5" x2="838.5" y1="482.8125" y2="482.8125"/><polygon fill="#181818" points="150,510.1035,140,514.1035,150,518.1035,146,514.1035" style="stroke:#181818;stroke-width:1.0;"/><line style="stroke:#181818;stroke-width:1.0;stroke-dasharray:2.0,2.0;" x1="144" x2="679.5" y1="514.1035" y2="514.1035"/><text fill="#000000" font-family="sans-serif" font-size="13" lengthAdjust="spacing" textLength="4" x="407.75" y="508.8408">r</text><polygon fill="#181818" points="11,541.3945,1,545.3945,11,549.3945,7,545.3945" style="stroke:#181818;stroke-width:1.0;"/><line style="stroke:#181818;stroke-width:1.0;stroke-dasharray:2.0,2.0;" x1="5" x2="133" y1="545.3945" y2="545.3945"/><text fill="#000000" font-family="sans-serif" font-size="13" lengthAdjust="spacing" textLength="4" x="65" y="540.1318">r</text><line style="stroke:#A80036;stroke-width:2.0;" x1="671.5" x2="689.5" y1="536.3945" y2="554.3945"/><line style="stroke:#A80036;stroke-width:2.0;" x1="671.5" x2="689.5" y1="554.3945" y2="536.3945"/><!--SRC=[bLJ1JkCm4BtxAuPSA8SYzHgjaA2mWDIg2BXL2BdnB5XDxCXs5_Xx73T074y2t1BFUs_cpOnz85LHxWI2TMyb7jUxgcHsArND3Q_Wr1ZzybShTzT4eIwvL8njz2iiz9CiOB6wl9u_pbUBrUtZ_OnvafE5hBboaEK1ikIAFw79W5le7dIfFTwf40QjFTDwUyEDRSd9wOZ2EPReSAwhYYlHqI3EXrL4B9CA35DDta9kqUvA5wZHIKH5B-LRkk_hKWiiORawlrWCzBNA0oQ89kWliVNq96vu3lYAnSxX91F11ioo8yOB9_zp_zF5CXOnlLBQ_HpgvgErHMicBCOAWqs4c0HBS_Z45F1JdmeoQiXJoW8JEAxqqu8-UZ798lUa9kMVBhcNQa2tvpSu9KiSTFkBZdcZuhkk7Lv98L01RvuES1fgRQMJMe5xHX1edT5lK76pzNeRB1kG3pHxg_-5prQ-eMouEQRBMp-7D0_aOAd9fTSXia9jnxvKSepz-n4FuUkgLKS_dTj9UvbzNI5mWyPgDPbr10A0iJqk6NJNJOjiborwUjAySVXJ8pvcyVircht7J1UqDmWpiflhFzFf63nwjiYHlGC0]--></g></svg>