<?xml version="1.0" encoding="us-ascii" standalone="no"?><svg xmlns="http://www.w3.org/2000/svg" xmlns:xlink="http://www.w3.org/1999/xlink" contentStyleType="text/css" height="530px" preserveAspectRatio="none" style="width:1279px;height:530px;background:#FFFFFF;" version="1.1" viewBox="0 0 1279 530" width="1279px" zoomAndPan="magnify"><defs/><g><rect fill="#F97181" height="511.1133" style="stroke:#181818;stroke-width:0.5;" width="945.5" x="328" y="6"/><text fill="#FFFFFF" font-family="sans-serif" font-size="13" font-weight="bold" lengthAdjust="spacing" textLength="39" x="779.25" y="20.0283">Model</text><rect fill="#FFFFFF" height="14" style="stroke:#181818;stroke-width:1.0;" width="10" x="393" y="94.2031"/><rect fill="#FFFFFF" height="212.4551" style="stroke:#181818;stroke-width:1.0;" width="10" x="393" y="139.4941"/><rect fill="#FFFFFF" height="59.291" style="stroke:#181818;stroke-width:1.0;" width="10" x="393" y="383.2402"/><rect fill="#FFFFFF" height="31.291" style="stroke:#181818;stroke-width:1.0;" width="10" x="393" y="473.8223"/><rect fill="#FFFFFF" height="167.1641" style="stroke:#181818;stroke-width:1.0;" width="10" x="649" y="170.7852"/><rect fill="#FFFFFF" height="121.873" style="stroke:#181818;stroke-width:1.0;" width="10" x="905" y="202.0762"/><rect fill="#FFFFFF" height="76.582" style="stroke:#181818;stroke-width:1.0;" width="10" x="1080" y="233.3672"/><rect fill="#FFFFFF" height="14" style="stroke:#181818;stroke-width:1.0;" width="10" x="1210.5" y="414.5313"/><line style="stroke:#181818;stroke-width:0.5;stroke-dasharray:5.0,5.0;" x1="398" x2="398" y1="60.9121" y2="523.1133"/><line style="stroke:#181818;stroke-width:0.5;stroke-dasharray:5.0,5.0;" x1="654" x2="654" y1="60.9121" y2="523.1133"/><line style="stroke:#181818;stroke-width:0.5;stroke-dasharray:5.0,5.0;" x1="909.5" x2="909.5" y1="60.9121" y2="523.1133"/><line style="stroke:#181818;stroke-width:0.5;stroke-dasharray:5.0,5.0;" x1="1084.5" x2="1084.5" y1="60.9121" y2="523.1133"/><line style="stroke:#181818;stroke-width:0.5;stroke-dasharray:5.0,5.0;" x1="1215.5" x2="1215.5" y1="60.9121" y2="523.1133"/><rect fill="#9D0012" height="32.6211" rx="2.5" ry="2.5" style="stroke:#181818;stroke-width:0.5;" width="112" x="342" y="27.291"/><text fill="#FFFFFF" font-family="sans-serif" font-size="14" lengthAdjust="spacing" textLength="98" x="349" y="49.3984">:ModelManager</text><rect fill="#9D0012" height="32.6211" rx="2.5" ry="2.5" style="stroke:#181818;stroke-width:0.5;" width="102" x="603" y="27.291"/><text fill="#FFFFFF" font-family="sans-serif" font-size="14" lengthAdjust="spacing" textLength="88" x="610" y="49.3984">:AddressBook</text><rect fill="#9D0012" height="32.6211" rx="2.5" ry="2.5" style="stroke:#181818;stroke-width:0.5;" width="129" x="845.5" y="27.291"/><text fill="#FFFFFF" font-family="sans-serif" font-size="14" lengthAdjust="spacing" textLength="115" x="852.5" y="49.3984">:UniquePersonList</text><rect fill="#9D0012" height="32.6211" rx="2.5" ry="2.5" style="stroke:#181818;stroke-width:0.5;" width="113" x="1028.5" y="27.291"/><text fill="#FFFFFF" font-family="sans-serif" font-size="14" lengthAdjust="spacing" textLength="99" x="1035.5" y="49.3984">:ObservableList</text><rect fill="#9D0012" height="32.6211" rx="2.5" ry="2.5" style="stroke:#181818;stroke-width:0.5;" width="88" x="1171.5" y="27.291"/><text fill="#FFFFFF" font-family="sans-serif" font-size="14" lengthAdjust="spacing" textLength="74" x="1178.5" y="49.3984">:FilteredList</text><rect fill="#FFFFFF" height="14" style="stroke:#181818;stroke-width:1.0;" width="10" x="393" y="94.2031"/><rect fill="#FFFFFF" height="212.4551" style="stroke:#181818;stroke-width:1.0;" width="10" x="393" y="139.4941"/><rect fill="#FFFFFF" height="59.291" style="stroke:#181818;stroke-width:1.0;" width="10" x="393" y="383.2402"/><rect fill="#FFFFFF" height="31.291" style="stroke:#181818;stroke-width:1.0;" width="10" x="393" y="473.8223"/><rect fill="#FFFFFF" height="167.1641" style="stroke:#181818;stroke-width:1.0;" width="10" x="649" y="170.7852"/><rect fill="#FFFFFF" height="121.873" style="stroke:#181818;stroke-width:1.0;" width="10" x="905" y="202.0762"/><rect fill="#FFFFFF" height="76.582" style="stroke:#181818;stroke-width:1.0;" width="10" x="1080" y="233.3672"/><rect fill="#FFFFFF" height="14" style="stroke:#181818;stroke-width:1.0;" width="10" x="1210.5" y="414.5313"/><polygon fill="#181818" points="381,90.2031,391,94.2031,381,98.2031,385,94.2031" style="stroke:#181818;stroke-width:1.0;"/><line style="stroke:#181818;stroke-width:1.0;" x1="0" x2="387" y1="94.2031" y2="94.2031"/><text fill="#000000" font-family="sans-serif" font-size="13" lengthAdjust="spacing" textLength="131" x="131" y="88.9404">getFilteredPersonList()</text><polygon fill="#181818" points="11,104.2031,1,108.2031,11,112.2031,7,108.2031" style="stroke:#181818;stroke-width:1.0;"/><line style="stroke:#181818;stroke-width:1.0;stroke-dasharray:2.0,2.0;" x1="5" x2="397" y1="108.2031" y2="108.2031"/><polygon fill="#181818" points="381,135.4941,391,139.4941,381,143.4941,385,139.4941" style="stroke:#181818;stroke-width:1.0;"/><line style="stroke:#181818;stroke-width:1.0;" x1="0" x2="387" y1="139.4941" y2="139.4941"/><text fill="#000000" font-family="sans-serif" font-size="13" lengthAdjust="spacing" textLength="227" x="83" y="134.2314">setPerson(personToEdit, editedPerson)</text><polygon fill="#181818" points="637,166.7852,647,170.7852,637,174.7852,641,170.7852" style="stroke:#181818;stroke-width:1.0;"/><line style="stroke:#181818;stroke-width:1.0;" x1="403" x2="643" y1="170.7852" y2="170.7852"/><text fill="#000000" font-family="sans-serif" font-size="13" lengthAdjust="spacing" textLength="227" x="412.5" y="165.5225">setPerson(personToEdit, editedPerson)</text><polygon fill="#181818" points="893,198.0762,903,202.0762,893,206.0762,897,202.0762" style="stroke:#181818;stroke-width:1.0;"/><line style="stroke:#181818;stroke-width:1.0;" x1="659" x2="899" y1="202.0762" y2="202.0762"/><text fill="#000000" font-family="sans-serif" font-size="13" lengthAdjust="spacing" textLength="227" x="668.5" y="196.8135">setPerson(personToEdit, editedPerson)</text><polygon fill="#181818" points="1068,229.3672,1078,233.3672,1068,237.3672,1072,233.3672" style="stroke:#181818;stroke-width:1.0;"/><line style="stroke:#181818;stroke-width:1.0;" x1="915" x2="1074" y1="233.3672" y2="233.3672"/><text fill="#000000" font-family="sans-serif" font-size="13" lengthAdjust="spacing" textLength="128" x="933.5" y="228.1045">indexOf(personToEdit)</text><polygon fill="#181818" points="926,260.6582,916,264.6582,926,268.6582,922,264.6582" style="stroke:#181818;stroke-width:1.0;"/><line style="stroke:#181818;stroke-width:1.0;stroke-dasharray:2.0,2.0;" x1="920" x2="1079" y1="264.6582" y2="264.6582"/><text fill="#000000" font-family="sans-serif" font-size="13" lengthAdjust="spacing" textLength="31" x="982" y="259.3955">index</text><polygon fill="#181818" points="1068,291.9492,1078,295.9492,1068,299.9492,1072,295.9492" style="stroke:#181818;stroke-width:1.0;"/><line style="stroke:#181818;stroke-width:1.0;" x1="915" x2="1074" y1="295.9492" y2="295.9492"/><text fill="#000000" font-family="sans-serif" font-size="13" lengthAdjust="spacing" textLength="141" x="927" y="290.6865">set(index, editedPerson)</text><polygon fill="#181818" points="926,305.9492,916,309.9492,926,313.9492,922,309.9492" style="stroke:#181818;stroke-width:1.0;"/><line style="stroke:#181818;stroke-width:1.0;stroke-dasharray:2.0,2.0;" x1="920" x2="1084" y1="309.9492" y2="309.9492"/><polygon fill="#181818" points="670,319.9492,660,323.9492,670,327.9492,666,323.9492" style="stroke:#181818;stroke-width:1.0;"/><line style="stroke:#181818;stroke-width:1.0;stroke-dasharray:2.0,2.0;" x1="664" x2="909" y1="323.9492" y2="323.9492"/><polygon fill="#181818" points="414,333.9492,404,337.9492,414,341.9492,410,337.9492" style="stroke:#181818;stroke-width:1.0;"/><line style="stroke:#181818;stroke-width:1.0;stroke-dasharray:2.0,2.0;" x1="408" x2="653" y1="337.9492" y2="337.9492"/><polygon fill="#181818" points="11,347.9492,1,351.9492,11,355.9492,7,351.9492" style="stroke:#181818;stroke-width:1.0;"/><line style="stroke:#181818;stroke-width:1.0;stroke-dasharray:2.0,2.0;" x1="5" x2="397" y1="351.9492" y2="351.9492"/><polygon fill="#181818" points="381,379.2402,391,383.2402,381,387.2402,385,383.2402" style="stroke:#181818;stroke-width:1.0;"/><line style="stroke:#181818;stroke-width:1.0;" x1="0" x2="387" y1="383.2402" y2="383.2402"/><text fill="#000000" font-family="sans-serif" font-size="13" lengthAdjust="spacing" textLength="374" x="9.5" y="377.9775">updateFilteredPersonList(PREDICATE_SHOW_ALL_PERSONS)</text><polygon fill="#181818" points="1198.5,410.5313,1208.5,414.5313,1198.5,418.5313,1202.5,414.5313" style="stroke:#181818;stroke-width:1.0;"/><line style="stroke:#181818;stroke-width:1.0;" x1="403" x2="1204.5" y1="414.5313" y2="414.5313"/><text fill="#000000" font-family="sans-serif" font-size="13" lengthAdjust="spacing" textLength="303" x="655.25" y="409.2686">setPredicate(PREDICATE_SHOW_ALL_PERSONS)</text><polygon fill="#181818" points="414,424.5313,404,428.5313,414,432.5313,410,428.5313" style="stroke:#181818;stroke-width:1.0;"/><line style="stroke:#181818;stroke-width:1.0;stroke-dasharray:2.0,2.0;" x1="408" x2="1214.5" y1="428.5313" y2="428.5313"/><polygon fill="#181818" points="11,438.5313,1,442.5313,11,446.5313,7,442.5313" style="stroke:#181818;stroke-width:1.0;"/><line style="stroke:#181818;stroke-width:1.0;stroke-dasharray:2.0,2.0;" x1="5" x2="397" y1="442.5313" y2="442.5313"/><polygon fill="#181818" points="381,469.8223,391,473.8223,381,477.8223,385,473.8223" style="stroke:#181818;stroke-width:1.0;"/><line style="stroke:#181818;stroke-width:1.0;" x1="0" x2="387" y1="473.8223" y2="473.8223"/><text fill="#000000" font-family="sans-serif" font-size="13" lengthAdjust="spacing" textLength="104" x="144.5" y="468.5596">getAddressBook()</text><polygon fill="#181818" points="11,501.1133,1,505.1133,11,509.1133,7,505.1133" style="stroke:#181818;stroke-width:1.0;"/><line style="stroke:#181818;stroke-width:1.0;stroke-dasharray:2.0,2.0;" x1="5" x2="397" y1="505.1133" y2="505.1133"/><text fill="#000000" font-family="sans-serif" font-size="13" lengthAdjust="spacing" textLength="76" x="161" y="499.8506">addressBook</text><!--SRC=[fPHHJuCm4CVV-odgdcOY9huIOu8RYoPCbZ7ZWm-ae-VIZBNObZc_lPLbioqROV45md6___-uEth5U57M5B3ItoNSLlMcH6hDU4KasU18Il4r4LndlsznLHB64LgA7PuA2YMUfkCuoKTfaixpnHqoa6O5gmZNU10sALF2oGha01E5xO2DUbn4gGIb7eLODvZrt46zSlPPmmoa4ZnXIZUe7-pWqwK2kINB4ewq6-fW9wpK884UIJlWSC0fDkr3w3ruSFiHuXNe0_TNyV0QaKApBT7Wv1k5-o1mGnJEfNfc8LQWznx3ghajH4oPli5WhWVxiyvEtKRQ7j35qXQCaAraX5lZkrZTLq2efMbyl467c74Ak_J3yR1KtNo4F3uuNNeZshC0yvd39j__iZvUoDu4lzQslJj11suhEnForif17SdshlPVLjEDkg8cxyJFCPl7u-THj8Zpx2bzowCaoMVnF4jVijxBw_og-_qoJwmmP3zvMm0XHwwpGIxtpmwPiyDg-0M7Xc69DQapdZy0]--></g></svg>