<?xml version="1.0" encoding="us-ascii" standalone="no"?><svg xmlns="http://www.w3.org/2000/svg" xmlns:xlink="http://www.w3.org/1999/xlink" contentStyleType="text/css" height="907px" preserveAspectRatio="none" style="width:1657px;height:907px;background:#FFFFFF;" version="1.1" viewBox="0 0 1657 907" width="1657px" zoomAndPan="magnify"><defs/><g><rect fill="#C8C8FA" height="888.6738" style="stroke:#181818;stroke-width:0.5;" width="1322.5" x="127" y="6"/><text fill="#FFFFFF" font-family="sans-serif" font-size="13" font-weight="bold" lengthAdjust="spacing" textLength="35" x="768.75" y="20.0283">Logic</text><rect fill="#F97181" height="888.6738" style="stroke:#181818;stroke-width:0.5;" width="95" x="1451.5" y="6"/><text fill="#FFFFFF" font-family="sans-serif" font-size="13" font-weight="bold" lengthAdjust="spacing" textLength="39" x="1477.5" y="20.0283">Model</text><rect fill="#FFE374" height="888.6738" style="stroke:#181818;stroke-width:0.5;" width="103" x="1548.5" y="6"/><text fill="#FFFFFF" font-family="sans-serif" font-size="13" font-weight="bold" lengthAdjust="spacing" textLength="50" x="1573" y="20.0283">Storage</text><rect fill="#FFFFFF" height="769.8496" style="stroke:#181818;stroke-width:1.0;" width="10" x="190" y="112.8242"/><rect fill="#FFFFFF" height="280.7363" style="stroke:#181818;stroke-width:1.0;" width="10" x="435" y="144.1152"/><rect fill="#FFFFFF" height="33.6211" style="stroke:#181818;stroke-width:1.0;" width="10" x="611" y="168.1152"/><rect fill="#FFFFFF" height="146.5332" style="stroke:#181818;stroke-width:1.0;" width="10" x="611" y="233.0273"/><rect fill="#FFFFFF" height="33.6211" style="stroke:#181818;stroke-width:1.0;" width="10" x="804.5" y="257.0273"/><rect fill="#FFFFFF" height="16.3301" style="stroke:#181818;stroke-width:1.0;" width="10" x="980.5" y="331.9395"/><rect fill="#FFFFFF" height="287.3672" style="stroke:#181818;stroke-width:1.0;" width="10" x="980.5" y="456.1426"/><rect fill="#FFFFFF" height="31.291" style="stroke:#181818;stroke-width:1.0;" width="10" x="1222.5" y="532.7246"/><rect fill="#FFFFFF" height="33.6211" style="stroke:#181818;stroke-width:1.0;" width="10" x="1367" y="678.5977"/><rect fill="#FFFFFF" height="14" style="stroke:#181818;stroke-width:1.0;" width="10" x="1494" y="487.4336"/><rect fill="#FFFFFF" height="14" style="stroke:#181818;stroke-width:1.0;" width="10" x="1494" y="595.3066"/><rect fill="#FFFFFF" height="14" style="stroke:#181818;stroke-width:1.0;" width="10" x="1494" y="640.5977"/><rect fill="#FFFFFF" height="31.291" style="stroke:#181818;stroke-width:1.0;" width="10" x="1494" y="774.8008"/><rect fill="#FFFFFF" height="14" style="stroke:#181818;stroke-width:1.0;" width="10" x="1595" y="837.3828"/><line style="stroke:#181818;stroke-width:0.5;stroke-dasharray:5.0,5.0;" x1="195" x2="195" y1="79.5332" y2="900.6738"/><line style="stroke:#181818;stroke-width:0.5;stroke-dasharray:5.0,5.0;" x1="440" x2="440" y1="79.5332" y2="900.6738"/><line style="stroke:#181818;stroke-width:0.5;stroke-dasharray:5.0,5.0;" x1="616" x2="616" y1="183.9258" y2="900.6738"/><line style="stroke:#181818;stroke-width:0.5;stroke-dasharray:5.0,5.0;" x1="809" x2="809" y1="272.8379" y2="900.6738"/><line style="stroke:#181818;stroke-width:0.5;stroke-dasharray:5.0,5.0;" x1="985" x2="985" y1="330.459" y2="900.6738"/><line style="stroke:#181818;stroke-width:0.5;stroke-dasharray:5.0,5.0;" x1="1227.5" x2="1227.5" y1="79.5332" y2="900.6738"/><line style="stroke:#181818;stroke-width:0.5;stroke-dasharray:5.0,5.0;" x1="1371.5" x2="1371.5" y1="694.4082" y2="900.6738"/><line style="stroke:#181818;stroke-width:0.5;stroke-dasharray:5.0,5.0;" x1="1498.5" x2="1498.5" y1="79.5332" y2="900.6738"/><line style="stroke:#181818;stroke-width:0.5;stroke-dasharray:5.0,5.0;" x1="1599.5" x2="1599.5" y1="79.5332" y2="900.6738"/><rect fill="#3333C4" height="32.6211" rx="2.5" ry="2.5" style="stroke:#181818;stroke-width:0.5;" width="108" x="141" y="45.9121"/><text fill="#FFFFFF" font-family="sans-serif" font-size="14" lengthAdjust="spacing" textLength="94" x="148" y="68.0195">:LogicManager</text><rect fill="#3333C4" height="32.6211" rx="2.5" ry="2.5" style="stroke:#181818;stroke-width:0.5;" width="144" x="368" y="45.9121"/><text fill="#FFFFFF" font-family="sans-serif" font-size="14" lengthAdjust="spacing" textLength="130" x="375" y="68.0195">:AddressBookParser</text><rect fill="#3333C4" height="51.2422" rx="2.5" ry="2.5" style="stroke:#181818;stroke-width:0.5;" width="102" x="1176.5" y="27.291"/><text fill="#FFFFFF" font-family="sans-serif" font-size="14" font-style="italic" lengthAdjust="spacing" textLength="48" x="1203.5" y="49.3984">&#171;class&#187;</text><text fill="#FFFFFF" font-family="sans-serif" font-size="14" lengthAdjust="spacing" textLength="88" x="1183.5" y="68.0195">EditCommand</text><rect fill="#9D0012" height="32.6211" rx="2.5" ry="2.5" style="stroke:#181818;stroke-width:0.5;" width="67" x="1465.5" y="45.9121"/><text fill="#FFFFFF" font-family="sans-serif" font-size="14" lengthAdjust="spacing" textLength="53" x="1472.5" y="68.0195">m:Model</text><rect fill="#A38300" height="32.6211" rx="2.5" ry="2.5" style="stroke:#181818;stroke-width:0.5;" width="75" x="1562.5" y="45.9121"/><text fill="#FFFFFF" font-family="sans-serif" font-size="14" lengthAdjust="spacing" textLength="61" x="1569.5" y="68.0195">s:Storage</text><rect fill="#FFFFFF" height="769.8496" style="stroke:#181818;stroke-width:1.0;" width="10" x="190" y="112.8242"/><rect fill="#FFFFFF" height="280.7363" style="stroke:#181818;stroke-width:1.0;" width="10" x="435" y="144.1152"/><rect fill="#FFFFFF" height="33.6211" style="stroke:#181818;stroke-width:1.0;" width="10" x="611" y="168.1152"/><rect fill="#FFFFFF" height="146.5332" style="stroke:#181818;stroke-width:1.0;" width="10" x="611" y="233.0273"/><rect fill="#FFFFFF" height="33.6211" style="stroke:#181818;stroke-width:1.0;" width="10" x="804.5" y="257.0273"/><rect fill="#FFFFFF" height="16.3301" style="stroke:#181818;stroke-width:1.0;" width="10" x="980.5" y="331.9395"/><rect fill="#FFFFFF" height="287.3672" style="stroke:#181818;stroke-width:1.0;" width="10" x="980.5" y="456.1426"/><rect fill="#FFFFFF" height="31.291" style="stroke:#181818;stroke-width:1.0;" width="10" x="1222.5" y="532.7246"/><rect fill="#FFFFFF" height="33.6211" style="stroke:#181818;stroke-width:1.0;" width="10" x="1367" y="678.5977"/><rect fill="#FFFFFF" height="14" style="stroke:#181818;stroke-width:1.0;" width="10" x="1494" y="487.4336"/><rect fill="#FFFFFF" height="14" style="stroke:#181818;stroke-width:1.0;" width="10" x="1494" y="595.3066"/><rect fill="#FFFFFF" height="14" style="stroke:#181818;stroke-width:1.0;" width="10" x="1494" y="640.5977"/><rect fill="#FFFFFF" height="31.291" style="stroke:#181818;stroke-width:1.0;" width="10" x="1494" y="774.8008"/><rect fill="#FFFFFF" height="14" style="stroke:#181818;stroke-width:1.0;" width="10" x="1595" y="837.3828"/><polygon fill="#181818" points="178,108.8242,188,112.8242,178,116.8242,182,112.8242" style="stroke:#181818;stroke-width:1.0;"/><line style="stroke:#181818;stroke-width:1.0;" x1="0" x2="184" y1="112.8242" y2="112.8242"/><text fill="#000000" font-family="sans-serif" font-size="13" lengthAdjust="spacing" textLength="171" x="9.5" y="107.5615">execute("edit 1 n/Alex Yeoh")</text><polygon fill="#181818" points="423,140.1152,433,144.1152,423,148.1152,427,144.1152" style="stroke:#181818;stroke-width:1.0;"/><line style="stroke:#181818;stroke-width:1.0;" x1="200" x2="429" y1="144.1152" y2="144.1152"/><text fill="#000000" font-family="sans-serif" font-size="13" lengthAdjust="spacing" textLength="216" x="209.5" y="138.8525">parseCommand("edit 1 n/Alex Yeoh")</text><polygon fill="#181818" points="530,154.1152,540,158.1152,530,162.1152,534,158.1152" style="stroke:#181818;stroke-width:1.0;"/><line style="stroke:#181818;stroke-width:1.0;" x1="445" x2="536" y1="158.1152" y2="158.1152"/><rect fill="#3333C4" height="32.6211" rx="2.5" ry="2.5" style="stroke:#181818;stroke-width:0.5;" width="148" x="542" y="152.1152"/><text fill="#FFFFFF" font-family="sans-serif" font-size="14" lengthAdjust="spacing" textLength="134" x="549" y="174.2227">:EditCommandParser</text><polygon fill="#181818" points="456,197.7363,446,201.7363,456,205.7363,452,201.7363" style="stroke:#181818;stroke-width:1.0;"/><line style="stroke:#181818;stroke-width:1.0;stroke-dasharray:2.0,2.0;" x1="450" x2="615" y1="201.7363" y2="201.7363"/><polygon fill="#181818" points="599,229.0273,609,233.0273,599,237.0273,603,233.0273" style="stroke:#181818;stroke-width:1.0;"/><line style="stroke:#181818;stroke-width:1.0;" x1="445" x2="605" y1="233.0273" y2="233.0273"/><text fill="#000000" font-family="sans-serif" font-size="13" lengthAdjust="spacing" textLength="132" x="462" y="227.7646">parse("1 n/Alex Yeoh")</text><polygon fill="#181818" points="708,243.0273,718,247.0273,708,251.0273,712,247.0273" style="stroke:#181818;stroke-width:1.0;"/><line style="stroke:#181818;stroke-width:1.0;" x1="621" x2="714" y1="247.0273" y2="247.0273"/><rect fill="#3333C4" height="32.6211" rx="2.5" ry="2.5" style="stroke:#181818;stroke-width:0.5;" width="179" x="720" y="241.0273"/><text fill="#FFFFFF" font-family="sans-serif" font-size="14" lengthAdjust="spacing" textLength="165" x="727" y="263.1348">d:EditCommandDescriptor</text><polygon fill="#181818" points="632,286.6484,622,290.6484,632,294.6484,628,290.6484" style="stroke:#181818;stroke-width:1.0;"/><line style="stroke:#181818;stroke-width:1.0;stroke-dasharray:2.0,2.0;" x1="626" x2="808.5" y1="290.6484" y2="290.6484"/><polygon fill="#181818" points="917,317.9395,927,321.9395,917,325.9395,921,321.9395" style="stroke:#181818;stroke-width:1.0;"/><line style="stroke:#181818;stroke-width:1.0;" x1="621" x2="923" y1="321.9395" y2="321.9395"/><text fill="#000000" font-family="sans-serif" font-size="13" lengthAdjust="spacing" textLength="112" x="719" y="316.6768">EditCommand(1, d)</text><rect fill="#3333C4" height="32.6211" rx="2.5" ry="2.5" style="stroke:#181818;stroke-width:0.5;" width="113" x="929" y="298.6484"/><text fill="#FFFFFF" font-family="sans-serif" font-size="14" lengthAdjust="spacing" textLength="99" x="936" y="320.7559">c:EditCommand</text><polygon fill="#181818" points="632,344.2695,622,348.2695,632,352.2695,628,348.2695" style="stroke:#181818;stroke-width:1.0;"/><line style="stroke:#181818;stroke-width:1.0;stroke-dasharray:2.0,2.0;" x1="626" x2="984.5" y1="348.2695" y2="348.2695"/><polygon fill="#181818" points="456,375.5605,446,379.5605,456,383.5605,452,379.5605" style="stroke:#181818;stroke-width:1.0;"/><line style="stroke:#181818;stroke-width:1.0;stroke-dasharray:2.0,2.0;" x1="450" x2="615" y1="379.5605" y2="379.5605"/><text fill="#000000" font-family="sans-serif" font-size="13" lengthAdjust="spacing" textLength="7" x="527" y="374.2979">c</text><line style="stroke:#A80036;stroke-width:2.0;" x1="800.5" x2="818.5" y1="384.5605" y2="402.5605"/><line style="stroke:#A80036;stroke-width:2.0;" x1="800.5" x2="818.5" y1="402.5605" y2="384.5605"/><polygon fill="#181818" points="211,420.8516,201,424.8516,211,428.8516,207,424.8516" style="stroke:#181818;stroke-width:1.0;"/><line style="stroke:#181818;stroke-width:1.0;stroke-dasharray:2.0,2.0;" x1="205" x2="439" y1="424.8516" y2="424.8516"/><text fill="#000000" font-family="sans-serif" font-size="13" lengthAdjust="spacing" textLength="7" x="316.5" y="419.5889">c</text><line style="stroke:#A80036;stroke-width:2.0;" x1="607" x2="625" y1="415.8516" y2="433.8516"/><line style="stroke:#A80036;stroke-width:2.0;" x1="607" x2="625" y1="433.8516" y2="415.8516"/><polygon fill="#181818" points="968.5,452.1426,978.5,456.1426,968.5,460.1426,972.5,456.1426" style="stroke:#181818;stroke-width:1.0;"/><line style="stroke:#181818;stroke-width:1.0;" x1="200" x2="974.5" y1="456.1426" y2="456.1426"/><text fill="#000000" font-family="sans-serif" font-size="13" lengthAdjust="spacing" textLength="65" x="557.75" y="450.8799">execute(m)</text><polygon fill="#181818" points="1482,483.4336,1492,487.4336,1482,491.4336,1486,487.4336" style="stroke:#181818;stroke-width:1.0;"/><line style="stroke:#181818;stroke-width:1.0;" x1="990.5" x2="1488" y1="487.4336" y2="487.4336"/><text fill="#000000" font-family="sans-serif" font-size="13" lengthAdjust="spacing" textLength="131" x="1176.75" y="482.1709">getFilteredPersonList()</text><polygon fill="#181818" points="1001.5,497.4336,991.5,501.4336,1001.5,505.4336,997.5,501.4336" style="stroke:#181818;stroke-width:1.0;"/><line style="stroke:#181818;stroke-width:1.0;stroke-dasharray:2.0,2.0;" x1="995.5" x2="1498" y1="501.4336" y2="501.4336"/><polygon fill="#181818" points="1210.5,528.7246,1220.5,532.7246,1210.5,536.7246,1214.5,532.7246" style="stroke:#181818;stroke-width:1.0;"/><line style="stroke:#181818;stroke-width:1.0;" x1="990.5" x2="1216.5" y1="532.7246" y2="532.7246"/><text fill="#000000" font-family="sans-serif" font-size="13" lengthAdjust="spacing" textLength="213" x="1000" y="527.4619">createEditedPerson(personToEdit, d)</text><polygon fill="#181818" points="1001.5,560.0156,991.5,564.0156,1001.5,568.0156,997.5,564.0156" style="stroke:#181818;stroke-width:1.0;"/><line style="stroke:#181818;stroke-width:1.0;stroke-dasharray:2.0,2.0;" x1="995.5" x2="1226.5" y1="564.0156" y2="564.0156"/><text fill="#000000" font-family="sans-serif" font-size="13" lengthAdjust="spacing" textLength="76" x="1071" y="558.7529">editedPerson</text><polygon fill="#181818" points="1482,591.3066,1492,595.3066,1482,599.3066,1486,595.3066" style="stroke:#181818;stroke-width:1.0;"/><line style="stroke:#181818;stroke-width:1.0;" x1="990.5" x2="1488" y1="595.3066" y2="595.3066"/><text fill="#000000" font-family="sans-serif" font-size="13" lengthAdjust="spacing" textLength="227" x="1128.75" y="590.0439">setPerson(personToEdit, editedPerson)</text><polygon fill="#181818" points="1001.5,605.3066,991.5,609.3066,1001.5,613.3066,997.5,609.3066" style="stroke:#181818;stroke-width:1.0;"/><line style="stroke:#181818;stroke-width:1.0;stroke-dasharray:2.0,2.0;" x1="995.5" x2="1498" y1="609.3066" y2="609.3066"/><polygon fill="#181818" points="1482,636.5977,1492,640.5977,1482,644.5977,1486,640.5977" style="stroke:#181818;stroke-width:1.0;"/><line style="stroke:#181818;stroke-width:1.0;" x1="990.5" x2="1488" y1="640.5977" y2="640.5977"/><text fill="#000000" font-family="sans-serif" font-size="13" lengthAdjust="spacing" textLength="374" x="1055.25" y="635.335">updateFilteredPersonList(PREDICATE_SHOW_ALL_PERSONS)</text><polygon fill="#181818" points="1001.5,650.5977,991.5,654.5977,1001.5,658.5977,997.5,654.5977" style="stroke:#181818;stroke-width:1.0;"/><line style="stroke:#181818;stroke-width:1.0;stroke-dasharray:2.0,2.0;" x1="995.5" x2="1498" y1="654.5977" y2="654.5977"/><polygon fill="#181818" points="1296.5,664.5977,1306.5,668.5977,1296.5,672.5977,1300.5,668.5977" style="stroke:#181818;stroke-width:1.0;"/><line style="stroke:#181818;stroke-width:1.0;" x1="990.5" x2="1302.5" y1="668.5977" y2="668.5977"/><rect fill="#3333C4" height="32.6211" rx="2.5" ry="2.5" style="stroke:#181818;stroke-width:0.5;" width="127" x="1308.5" y="662.5977"/><text fill="#FFFFFF" font-family="sans-serif" font-size="14" lengthAdjust="spacing" textLength="113" x="1315.5" y="684.7051">r:CommandResult</text><polygon fill="#181818" points="1001.5,708.2188,991.5,712.2188,1001.5,716.2188,997.5,712.2188" style="stroke:#181818;stroke-width:1.0;"/><line style="stroke:#181818;stroke-width:1.0;stroke-dasharray:2.0,2.0;" x1="995.5" x2="1371" y1="712.2188" y2="712.2188"/><polygon fill="#181818" points="211,739.5098,201,743.5098,211,747.5098,207,743.5098" style="stroke:#181818;stroke-width:1.0;"/><line style="stroke:#181818;stroke-width:1.0;stroke-dasharray:2.0,2.0;" x1="205" x2="984.5" y1="743.5098" y2="743.5098"/><text fill="#000000" font-family="sans-serif" font-size="13" lengthAdjust="spacing" textLength="4" x="590.75" y="738.2471">r</text><polygon fill="#181818" points="1482,770.8008,1492,774.8008,1482,778.8008,1486,774.8008" style="stroke:#181818;stroke-width:1.0;"/><line style="stroke:#181818;stroke-width:1.0;" x1="200" x2="1488" y1="774.8008" y2="774.8008"/><text fill="#000000" font-family="sans-serif" font-size="13" lengthAdjust="spacing" textLength="104" x="795" y="769.5381">getAddressBook()</text><polygon fill="#181818" points="211,802.0918,201,806.0918,211,810.0918,207,806.0918" style="stroke:#181818;stroke-width:1.0;"/><line style="stroke:#181818;stroke-width:1.0;stroke-dasharray:2.0,2.0;" x1="205" x2="1498" y1="806.0918" y2="806.0918"/><text fill="#000000" font-family="sans-serif" font-size="13" lengthAdjust="spacing" textLength="76" x="811.5" y="800.8291">addressBook</text><polygon fill="#181818" points="1583,833.3828,1593,837.3828,1583,841.3828,1587,837.3828" style="stroke:#181818;stroke-width:1.0;"/><line style="stroke:#181818;stroke-width:1.0;" x1="200" x2="1589" y1="837.3828" y2="837.3828"/><text fill="#000000" font-family="sans-serif" font-size="13" lengthAdjust="spacing" textLength="188" x="803.5" y="832.1201">saveAddressBook(addressBook)</text><polygon fill="#181818" points="211,847.3828,201,851.3828,211,855.3828,207,851.3828" style="stroke:#181818;stroke-width:1.0;"/><line style="stroke:#181818;stroke-width:1.0;stroke-dasharray:2.0,2.0;" x1="205" x2="1599" y1="851.3828" y2="851.3828"/><polygon fill="#181818" points="11,878.6738,1,882.6738,11,886.6738,7,882.6738" style="stroke:#181818;stroke-width:1.0;"/><line style="stroke:#181818;stroke-width:1.0;stroke-dasharray:2.0,2.0;" x1="5" x2="194" y1="882.6738" y2="882.6738"/><text fill="#000000" font-family="sans-serif" font-size="13" lengthAdjust="spacing" textLength="4" x="95.5" y="877.4111">r</text><line style="stroke:#A80036;stroke-width:2.0;" x1="976.5" x2="994.5" y1="873.6738" y2="891.6738"/><line style="stroke:#A80036;stroke-width:2.0;" x1="976.5" x2="994.5" y1="891.6738" y2="873.6738"/><!--SRC=[bLLTZzem47ptht1vebBJYjS88QMGkvuK6aIGJXMga1jRN7H97Ddcoltxcbm2_Wpf4y4xEpiUxzgVYZelJvX0BjvByhKvLINWhqNT88Og6356_pxGMcINA6nALDG0_A5dcD1ZaSCaVNnQ7fPfacuFkncGIQB8YmRL0ax25h96DJeIDe68GtL1JJNo8emPuVmxfQyRn7YNRAqECCIu44jQLQZ62eErwcV0AiMAy9mLZQ0MpItYfyfLAfF0dpQGb0aaSN0-pql4-MBX9s5Xbx8b_5IAbaXRqLA9r2EFzkDyrnIJ4gxJLPnuphSAMqnBQg5Dw8OmJkkauCA3rufdqb7P933RfTleCVO8u667QocTEJVQVR3G-o-4v4poao3J2P7UmXcilqKbESDVXBvCFWEKY-8D2Q9b0Q1nI4wxBKFON3uwd- -nM_a0v8nS8bQx0hkM5633hjns2DWp4BWs0J0POXadf7TYEl7kti5jx_usPIxv2m_KLKC90_SO1-wDUFnG-MpTTzLAWvH_qzaNYDtUQ6h_K-FeCvTgyZldxc3QlnGOa_gtfukuOFJTPvcZZUmfrJIDAj6hDKTLTxwV_cgKvOlkoWhXaOY7eXI44NoxrAOAIGi4u0Dld9MwbmvdbB7lUMb1srgNI5zpshG_EtfPzBRD1u5MekCCR3iKTayNEEXKOpWHJd4gyqYRz6Ps6zMNFJLOWXn7ijd6gwTbj8iFsO_q-H0boM4JRxFqPpPIXKj4D-NQ8segquDN1dqPwE_mG9yOUUPDO8mByru3vZWe3QsCrM0d6xNGBSrXbLclVw1bfw0tefPKU9Jg7Hw0Fj5Me5QzmlVp81WoHN_F7VV7Fm00]--></g></svg>