<?xml version="1.0" encoding="us-ascii" standalone="no"?><svg xmlns="http://www.w3.org/2000/svg" xmlns:xlink="http://www.w3.org/1999/xlink" contentStyleType="text/css" height="915px" preserveAspectRatio="none" style="width:1547px;height:915px;background:#FFFFFF;" version="1.1" viewBox="0 0 1547 915" width="1547px" zoomAndPan="magnify"><defs/><g><rect fill="#C8C8FA" height="896.0527" style="stroke:#181818;stroke-width:0.5;" width="1173" x="127" y="6"/><text fill="#FFFFFF" font-family="sans-serif" font-size="13" font-weight="bold" lengthAdjust="spacing" textLength="35" x="694" y="20.0283">Logic</text><rect fill="#F97181" height="896.0527" style="stroke:#181818;stroke-width:0.5;" width="95" x="1341" y="6"/><text fill="#FFFFFF" font-family="sans-serif" font-size="13" font-weight="bold" lengthAdjust="spacing" textLength="39" x="1367" y="20.0283">Model</text><rect fill="#FFE374" height="896.0527" style="stroke:#181818;stroke-width:0.5;" width="103" x="1438" y="6"/><text fill="#FFFFFF" font-family="sans-serif" font-size="13" font-weight="bold" lengthAdjust="spacing" textLength="50" x="1462.5" y="20.0283">Storage</text><rect fill="#FFFFFF" height="795.8496" style="stroke:#181818;stroke-width:1.0;" width="10" x="190" y="94.2031"/><rect fill="#FFFFFF" height="280.7363" style="stroke:#181818;stroke-width:1.0;" width="10" x="435" y="125.4941"/><rect fill="#FFFFFF" height="33.6211" style="stroke:#181818;stroke-width:1.0;" width="10" x="611" y="149.4941"/><rect fill="#FFFFFF" height="146.5332" style="stroke:#181818;stroke-width:1.0;" width="10" x="611" y="214.4063"/><rect fill="#FFFFFF" height="33.6211" style="stroke:#181818;stroke-width:1.0;" width="10" x="804.5" y="238.4063"/><rect fill="#FFFFFF" height="16.3301" style="stroke:#181818;stroke-width:1.0;" width="10" x="980.5" y="313.3184"/><rect fill="#FFFFFF" height="313.3672" style="stroke:#181818;stroke-width:1.0;" width="10" x="980.5" y="437.5215"/><rect fill="#FFFFFF" height="42.291" style="stroke:#181818;stroke-width:1.0;" width="10" x="985.5" y="522.1035"/><rect fill="#FFFFFF" height="33.6211" style="stroke:#181818;stroke-width:1.0;" width="10" x="1217.5" y="685.9766"/><rect fill="#FFFFFF" height="14" style="stroke:#181818;stroke-width:1.0;" width="10" x="1383.5" y="468.8125"/><rect fill="#FFFFFF" height="14" style="stroke:#181818;stroke-width:1.0;" width="10" x="1383.5" y="602.6855"/><rect fill="#FFFFFF" height="14" style="stroke:#181818;stroke-width:1.0;" width="10" x="1383.5" y="647.9766"/><rect fill="#FFFFFF" height="31.291" style="stroke:#181818;stroke-width:1.0;" width="10" x="1383.5" y="782.1797"/><rect fill="#FFFFFF" height="14" style="stroke:#181818;stroke-width:1.0;" width="10" x="1484.5" y="844.7617"/><line style="stroke:#181818;stroke-width:0.5;stroke-dasharray:5.0,5.0;" x1="195" x2="195" y1="60.9121" y2="908.0527"/><line style="stroke:#181818;stroke-width:0.5;stroke-dasharray:5.0,5.0;" x1="440" x2="440" y1="60.9121" y2="908.0527"/><line style="stroke:#181818;stroke-width:0.5;stroke-dasharray:5.0,5.0;" x1="616" x2="616" y1="165.3047" y2="908.0527"/><line style="stroke:#181818;stroke-width:0.5;stroke-dasharray:5.0,5.0;" x1="809" x2="809" y1="254.2168" y2="908.0527"/><line style="stroke:#181818;stroke-width:0.5;stroke-dasharray:5.0,5.0;" x1="985" x2="985" y1="311.8379" y2="908.0527"/><line style="stroke:#181818;stroke-width:0.5;stroke-dasharray:5.0,5.0;" x1="1222" x2="1222" y1="701.7871" y2="908.0527"/><line style="stroke:#181818;stroke-width:0.5;stroke-dasharray:5.0,5.0;" x1="1388" x2="1388" y1="60.9121" y2="908.0527"/><line style="stroke:#181818;stroke-width:0.5;stroke-dasharray:5.0,5.0;" x1="1489" x2="1489" y1="60.9121" y2="908.0527"/><rect fill="#3333C4" height="32.6211" rx="2.5" ry="2.5" style="stroke:#181818;stroke-width:0.5;" width="108" x="141" y="27.291"/><text fill="#FFFFFF" font-family="sans-serif" font-size="14" lengthAdjust="spacing" textLength="94" x="148" y="49.3984">:LogicManager</text><rect fill="#3333C4" height="32.6211" rx="2.5" ry="2.5" style="stroke:#181818;stroke-width:0.5;" width="144" x="368" y="27.291"/><text fill="#FFFFFF" font-family="sans-serif" font-size="14" lengthAdjust="spacing" textLength="130" x="375" y="49.3984">:AddressBookParser</text><rect fill="#9D0012" height="32.6211" rx="2.5" ry="2.5" style="stroke:#181818;stroke-width:0.5;" width="67" x="1355" y="27.291"/><text fill="#FFFFFF" font-family="sans-serif" font-size="14" lengthAdjust="spacing" textLength="53" x="1362" y="49.3984">m:Model</text><rect fill="#A38300" height="32.6211" rx="2.5" ry="2.5" style="stroke:#181818;stroke-width:0.5;" width="75" x="1452" y="27.291"/><text fill="#FFFFFF" font-family="sans-serif" font-size="14" lengthAdjust="spacing" textLength="61" x="1459" y="49.3984">s:Storage</text><rect fill="#FFFFFF" height="795.8496" style="stroke:#181818;stroke-width:1.0;" width="10" x="190" y="94.2031"/><rect fill="#FFFFFF" height="280.7363" style="stroke:#181818;stroke-width:1.0;" width="10" x="435" y="125.4941"/><rect fill="#FFFFFF" height="33.6211" style="stroke:#181818;stroke-width:1.0;" width="10" x="611" y="149.4941"/><rect fill="#FFFFFF" height="146.5332" style="stroke:#181818;stroke-width:1.0;" width="10" x="611" y="214.4063"/><rect fill="#FFFFFF" height="33.6211" style="stroke:#181818;stroke-width:1.0;" width="10" x="804.5" y="238.4063"/><rect fill="#FFFFFF" height="16.3301" style="stroke:#181818;stroke-width:1.0;" width="10" x="980.5" y="313.3184"/><rect fill="#FFFFFF" height="313.3672" style="stroke:#181818;stroke-width:1.0;" width="10" x="980.5" y="437.5215"/><rect fill="#FFFFFF" height="42.291" style="stroke:#181818;stroke-width:1.0;" width="10" x="985.5" y="522.1035"/><rect fill="#FFFFFF" height="33.6211" style="stroke:#181818;stroke-width:1.0;" width="10" x="1217.5" y="685.9766"/><rect fill="#FFFFFF" height="14" style="stroke:#181818;stroke-width:1.0;" width="10" x="1383.5" y="468.8125"/><rect fill="#FFFFFF" height="14" style="stroke:#181818;stroke-width:1.0;" width="10" x="1383.5" y="602.6855"/><rect fill="#FFFFFF" height="14" style="stroke:#181818;stroke-width:1.0;" width="10" x="1383.5" y="647.9766"/><rect fill="#FFFFFF" height="31.291" style="stroke:#181818;stroke-width:1.0;" width="10" x="1383.5" y="782.1797"/><rect fill="#FFFFFF" height="14" style="stroke:#181818;stroke-width:1.0;" width="10" x="1484.5" y="844.7617"/><polygon fill="#181818" points="178,90.2031,188,94.2031,178,98.2031,182,94.2031" style="stroke:#181818;stroke-width:1.0;"/><line style="stroke:#181818;stroke-width:1.0;" x1="0" x2="184" y1="94.2031" y2="94.2031"/><text fill="#000000" font-family="sans-serif" font-size="13" lengthAdjust="spacing" textLength="171" x="9.5" y="88.9404">execute("edit 1 n/Alex Yeoh")</text><polygon fill="#181818" points="423,121.4941,433,125.4941,423,129.4941,427,125.4941" style="stroke:#181818;stroke-width:1.0;"/><line style="stroke:#181818;stroke-width:1.0;" x1="200" x2="429" y1="125.4941" y2="125.4941"/><text fill="#000000" font-family="sans-serif" font-size="13" lengthAdjust="spacing" textLength="216" x="209.5" y="120.2314">parseCommand("edit 1 n/Alex Yeoh")</text><polygon fill="#181818" points="530,135.4941,540,139.4941,530,143.4941,534,139.4941" style="stroke:#181818;stroke-width:1.0;"/><line style="stroke:#181818;stroke-width:1.0;" x1="445" x2="536" y1="139.4941" y2="139.4941"/><rect fill="#3333C4" height="32.6211" rx="2.5" ry="2.5" style="stroke:#181818;stroke-width:0.5;" width="148" x="542" y="133.4941"/><text fill="#FFFFFF" font-family="sans-serif" font-size="14" lengthAdjust="spacing" textLength="134" x="549" y="155.6016">:EditCommandParser</text><polygon fill="#181818" points="456,179.1152,446,183.1152,456,187.1152,452,183.1152" style="stroke:#181818;stroke-width:1.0;"/><line style="stroke:#181818;stroke-width:1.0;stroke-dasharray:2.0,2.0;" x1="450" x2="615" y1="183.1152" y2="183.1152"/><polygon fill="#181818" points="599,210.4063,609,214.4063,599,218.4063,603,214.4063" style="stroke:#181818;stroke-width:1.0;"/><line style="stroke:#181818;stroke-width:1.0;" x1="445" x2="605" y1="214.4063" y2="214.4063"/><text fill="#000000" font-family="sans-serif" font-size="13" lengthAdjust="spacing" textLength="132" x="462" y="209.1436">parse("1 n/Alex Yeoh")</text><polygon fill="#181818" points="708,224.4063,718,228.4063,708,232.4063,712,228.4063" style="stroke:#181818;stroke-width:1.0;"/><line style="stroke:#181818;stroke-width:1.0;" x1="621" x2="714" y1="228.4063" y2="228.4063"/><rect fill="#3333C4" height="32.6211" rx="2.5" ry="2.5" style="stroke:#181818;stroke-width:0.5;" width="179" x="720" y="222.4063"/><text fill="#FFFFFF" font-family="sans-serif" font-size="14" lengthAdjust="spacing" textLength="165" x="727" y="244.5137">d:EditCommandDescriptor</text><polygon fill="#181818" points="632,268.0273,622,272.0273,632,276.0273,628,272.0273" style="stroke:#181818;stroke-width:1.0;"/><line style="stroke:#181818;stroke-width:1.0;stroke-dasharray:2.0,2.0;" x1="626" x2="808.5" y1="272.0273" y2="272.0273"/><polygon fill="#181818" points="917,299.3184,927,303.3184,917,307.3184,921,303.3184" style="stroke:#181818;stroke-width:1.0;"/><line style="stroke:#181818;stroke-width:1.0;" x1="621" x2="923" y1="303.3184" y2="303.3184"/><text fill="#000000" font-family="sans-serif" font-size="13" lengthAdjust="spacing" textLength="112" x="719" y="298.0557">EditCommand(1, d)</text><rect fill="#3333C4" height="32.6211" rx="2.5" ry="2.5" style="stroke:#181818;stroke-width:0.5;" width="113" x="929" y="280.0273"/><text fill="#FFFFFF" font-family="sans-serif" font-size="14" lengthAdjust="spacing" textLength="99" x="936" y="302.1348">c:EditCommand</text><polygon fill="#181818" points="632,325.6484,622,329.6484,632,333.6484,628,329.6484" style="stroke:#181818;stroke-width:1.0;"/><line style="stroke:#181818;stroke-width:1.0;stroke-dasharray:2.0,2.0;" x1="626" x2="984.5" y1="329.6484" y2="329.6484"/><polygon fill="#181818" points="456,356.9395,446,360.9395,456,364.9395,452,360.9395" style="stroke:#181818;stroke-width:1.0;"/><line style="stroke:#181818;stroke-width:1.0;stroke-dasharray:2.0,2.0;" x1="450" x2="615" y1="360.9395" y2="360.9395"/><text fill="#000000" font-family="sans-serif" font-size="13" lengthAdjust="spacing" textLength="7" x="527" y="355.6768">c</text><line style="stroke:#A80036;stroke-width:2.0;" x1="607" x2="625" y1="365.9395" y2="383.9395"/><line style="stroke:#A80036;stroke-width:2.0;" x1="607" x2="625" y1="383.9395" y2="365.9395"/><line style="stroke:#A80036;stroke-width:2.0;" x1="800.5" x2="818.5" y1="365.9395" y2="383.9395"/><line style="stroke:#A80036;stroke-width:2.0;" x1="800.5" x2="818.5" y1="383.9395" y2="365.9395"/><polygon fill="#181818" points="211,402.2305,201,406.2305,211,410.2305,207,406.2305" style="stroke:#181818;stroke-width:1.0;"/><line style="stroke:#181818;stroke-width:1.0;stroke-dasharray:2.0,2.0;" x1="205" x2="439" y1="406.2305" y2="406.2305"/><text fill="#000000" font-family="sans-serif" font-size="13" lengthAdjust="spacing" textLength="7" x="316.5" y="400.9678">c</text><polygon fill="#181818" points="968.5,433.5215,978.5,437.5215,968.5,441.5215,972.5,437.5215" style="stroke:#181818;stroke-width:1.0;"/><line style="stroke:#181818;stroke-width:1.0;" x1="200" x2="974.5" y1="437.5215" y2="437.5215"/><text fill="#000000" font-family="sans-serif" font-size="13" lengthAdjust="spacing" textLength="65" x="557.75" y="432.2588">execute(m)</text><polygon fill="#181818" points="1371.5,464.8125,1381.5,468.8125,1371.5,472.8125,1375.5,468.8125" style="stroke:#181818;stroke-width:1.0;"/><line style="stroke:#181818;stroke-width:1.0;" x1="990.5" x2="1377.5" y1="468.8125" y2="468.8125"/><text fill="#000000" font-family="sans-serif" font-size="13" lengthAdjust="spacing" textLength="131" x="1121.5" y="463.5498">getFilteredPersonList()</text><polygon fill="#181818" points="1001.5,478.8125,991.5,482.8125,1001.5,486.8125,997.5,482.8125" style="stroke:#181818;stroke-width:1.0;"/><line style="stroke:#181818;stroke-width:1.0;stroke-dasharray:2.0,2.0;" x1="995.5" x2="1387.5" y1="482.8125" y2="482.8125"/><line style="stroke:#181818;stroke-width:1.0;" x1="990.5" x2="1037.5" y1="509.1035" y2="509.1035"/><line style="stroke:#181818;stroke-width:1.0;" x1="1037.5" x2="1037.5" y1="509.1035" y2="522.1035"/><line style="stroke:#181818;stroke-width:1.0;" x1="996.5" x2="1037.5" y1="522.1035" y2="522.1035"/><polygon fill="#181818" points="1006.5,518.1035,996.5,522.1035,1006.5,526.1035,1002.5,522.1035" style="stroke:#181818;stroke-width:1.0;"/><text fill="#000000" font-family="sans-serif" font-size="13" lengthAdjust="spacing" textLength="213" x="1002.5" y="503.8408">createEditedPerson(personToEdit, d)</text><line style="stroke:#181818;stroke-width:1.0;stroke-dasharray:2.0,2.0;" x1="995.5" x2="1037.5" y1="563.3945" y2="563.3945"/><line style="stroke:#181818;stroke-width:1.0;stroke-dasharray:2.0,2.0;" x1="1037.5" x2="1037.5" y1="563.3945" y2="576.3945"/><line style="stroke:#181818;stroke-width:1.0;stroke-dasharray:2.0,2.0;" x1="990.5" x2="1037.5" y1="576.3945" y2="576.3945"/><polygon fill="#181818" points="1000.5,572.3945,990.5,576.3945,1000.5,580.3945,996.5,576.3945" style="stroke:#181818;stroke-width:1.0;"/><text fill="#000000" font-family="sans-serif" font-size="13" lengthAdjust="spacing" textLength="76" x="1002.5" y="558.1318">editedPerson</text><polygon fill="#181818" points="1371.5,598.6855,1381.5,602.6855,1371.5,606.6855,1375.5,602.6855" style="stroke:#181818;stroke-width:1.0;"/><line style="stroke:#181818;stroke-width:1.0;" x1="990.5" x2="1377.5" y1="602.6855" y2="602.6855"/><text fill="#000000" font-family="sans-serif" font-size="13" lengthAdjust="spacing" textLength="227" x="1073.5" y="597.4229">setPerson(personToEdit, editedPerson)</text><polygon fill="#181818" points="1001.5,612.6855,991.5,616.6855,1001.5,620.6855,997.5,616.6855" style="stroke:#181818;stroke-width:1.0;"/><line style="stroke:#181818;stroke-width:1.0;stroke-dasharray:2.0,2.0;" x1="995.5" x2="1387.5" y1="616.6855" y2="616.6855"/><polygon fill="#181818" points="1371.5,643.9766,1381.5,647.9766,1371.5,651.9766,1375.5,647.9766" style="stroke:#181818;stroke-width:1.0;"/><line style="stroke:#181818;stroke-width:1.0;" x1="990.5" x2="1377.5" y1="647.9766" y2="647.9766"/><text fill="#000000" font-family="sans-serif" font-size="13" lengthAdjust="spacing" textLength="374" x="1000" y="642.7139">updateFilteredPersonList(PREDICATE_SHOW_ALL_PERSONS)</text><polygon fill="#181818" points="1001.5,657.9766,991.5,661.9766,1001.5,665.9766,997.5,661.9766" style="stroke:#181818;stroke-width:1.0;"/><line style="stroke:#181818;stroke-width:1.0;stroke-dasharray:2.0,2.0;" x1="995.5" x2="1387.5" y1="661.9766" y2="661.9766"/><polygon fill="#181818" points="1147,671.9766,1157,675.9766,1147,679.9766,1151,675.9766" style="stroke:#181818;stroke-width:1.0;"/><line style="stroke:#181818;stroke-width:1.0;" x1="990.5" x2="1153" y1="675.9766" y2="675.9766"/><rect fill="#3333C4" height="32.6211" rx="2.5" ry="2.5" style="stroke:#181818;stroke-width:0.5;" width="127" x="1159" y="669.9766"/><text fill="#FFFFFF" font-family="sans-serif" font-size="14" lengthAdjust="spacing" textLength="113" x="1166" y="692.084">r:CommandResult</text><polygon fill="#181818" points="1001.5,715.5977,991.5,719.5977,1001.5,723.5977,997.5,719.5977" style="stroke:#181818;stroke-width:1.0;"/><line style="stroke:#181818;stroke-width:1.0;stroke-dasharray:2.0,2.0;" x1="995.5" x2="1221.5" y1="719.5977" y2="719.5977"/><polygon fill="#181818" points="211,746.8887,201,750.8887,211,754.8887,207,750.8887" style="stroke:#181818;stroke-width:1.0;"/><line style="stroke:#181818;stroke-width:1.0;stroke-dasharray:2.0,2.0;" x1="205" x2="984.5" y1="750.8887" y2="750.8887"/><text fill="#000000" font-family="sans-serif" font-size="13" lengthAdjust="spacing" textLength="4" x="590.75" y="745.626">r</text><polygon fill="#181818" points="1371.5,778.1797,1381.5,782.1797,1371.5,786.1797,1375.5,782.1797" style="stroke:#181818;stroke-width:1.0;"/><line style="stroke:#181818;stroke-width:1.0;" x1="200" x2="1377.5" y1="782.1797" y2="782.1797"/><text fill="#000000" font-family="sans-serif" font-size="13" lengthAdjust="spacing" textLength="104" x="739.75" y="776.917">getAddressBook()</text><polygon fill="#181818" points="211,809.4707,201,813.4707,211,817.4707,207,813.4707" style="stroke:#181818;stroke-width:1.0;"/><line style="stroke:#181818;stroke-width:1.0;stroke-dasharray:2.0,2.0;" x1="205" x2="1387.5" y1="813.4707" y2="813.4707"/><text fill="#000000" font-family="sans-serif" font-size="13" lengthAdjust="spacing" textLength="76" x="756.25" y="808.208">addressBook</text><polygon fill="#181818" points="1472.5,840.7617,1482.5,844.7617,1472.5,848.7617,1476.5,844.7617" style="stroke:#181818;stroke-width:1.0;"/><line style="stroke:#181818;stroke-width:1.0;" x1="200" x2="1478.5" y1="844.7617" y2="844.7617"/><text fill="#000000" font-family="sans-serif" font-size="13" lengthAdjust="spacing" textLength="188" x="748.25" y="839.499">saveAddressBook(addressBook)</text><polygon fill="#181818" points="211,854.7617,201,858.7617,211,862.7617,207,858.7617" style="stroke:#181818;stroke-width:1.0;"/><line style="stroke:#181818;stroke-width:1.0;stroke-dasharray:2.0,2.0;" x1="205" x2="1488.5" y1="858.7617" y2="858.7617"/><polygon fill="#181818" points="11,886.0527,1,890.0527,11,894.0527,7,890.0527" style="stroke:#181818;stroke-width:1.0;"/><line style="stroke:#181818;stroke-width:1.0;stroke-dasharray:2.0,2.0;" x1="5" x2="194" y1="890.0527" y2="890.0527"/><text fill="#000000" font-family="sans-serif" font-size="13" lengthAdjust="spacing" textLength="4" x="95.5" y="884.79">r</text><line style="stroke:#A80036;stroke-width:2.0;" x1="976.5" x2="994.5" y1="881.0527" y2="899.0527"/><line style="stroke:#A80036;stroke-width:2.0;" x1="976.5" x2="994.5" y1="899.0527" y2="881.0527"/><!--SRC=[dLLTZzem47ptht1veb9fnMjK8QMGkvuK6aIGJXMga1klkEYIEBBDbVltDI41VmNIFXtdtPqTpyx67_8gAmuKi93l1Nok3sM1n6jUrOIJ4eUSipyFh9BfAOhhWkGLGh_P4STidsSuJXwVvhjv4YVhtMQAL97CixmcbSIZe4bPaehiWOym4LW_q4kjkf1I3a9yO-nrHRXeYvtJ6mWHpUMSbIMfg8RWdFOZK1rY0IBZUIsP0tEDz4DbEfGDq5_6WpPb3U9GoARGE35AGK6fgPn7isGK2hnC5b7SCveoQ78QK2VRJbq15woASo5xyetcgH93pHUdcsGTFaOz14JGvZMGtfehx7OoCwqJO3X2Tf0m7e7I4aznzIKiu8X_0diPVKGaa_aRaM1K8MHWA4pNKG6kJpzQdU-XE_K8PHnE4STfoEsb2BXf5smtX5pxJdoNG1HkeGmZqYan7lNUteFjtlww83xwivvKNmyjZFmREF5Vf4SF7S_bVPUj4aZxRppzXAbV6uFjFt8SF7F59hipTm_IzYMd5AfVFIuIahDt3vGdeelfCPYxlmPRpnxPgsegtsr_EKZoMVl92l0Uv4DUIE10hn-riGRI929qphTcfJDkywms9icpgKvdNRTntVpPiDFX_ndcT7aDSOXlT044I2yL7NEW7APf_O9qRGyrLKaUwLVhQF4q3pVHBlsUFE_2EDwjedMQ_4W7il2HQBVPU2njPcRmWc0U8_EzlU47gyuUe6L-tZiss_QQSRKbkUbOgnUvbdcailjr3x5o2da3lQM6etLlyn7g2bq6UjTB-lRhP79B5FFTzdnm_W80]--></g></svg>