<?xml version="1.0" encoding="us-ascii" standalone="no"?><svg xmlns="http://www.w3.org/2000/svg" xmlns:xlink="http://www.w3.org/1999/xlink" contentStyleType="text/css" height="757px" preserveAspectRatio="none" style="width:1302px;height:757px;background:#FFFFFF;" version="1.1" viewBox="0 0 1302 757" width="1302px" zoomAndPan="magnify"><defs/><g><rect fill="#C8C8FA" height="738.8008" style="stroke:#181818;stroke-width:0.5;" width="928.5" x="30" y="6"/><text fill="#FFFFFF" font-family="sans-serif" font-size="13" font-weight="bold" lengthAdjust="spacing" textLength="35" x="474.75" y="20.0283">Logic</text><rect fill="#F97181" height="738.8008" style="stroke:#181818;stroke-width:0.5;" width="336" x="960.5" y="6"/><text fill="#FFFFFF" font-family="sans-serif" font-size="13" font-weight="bold" lengthAdjust="spacing" textLength="39" x="1107" y="20.0283">Model</text><rect fill="#FFFFFF" height="619.9766" style="stroke:#181818;stroke-width:1.0;" width="10" x="93" y="112.8242"/><rect fill="#FFFFFF" height="360.6094" style="stroke:#181818;stroke-width:1.0;" width="10" x="249" y="144.1152"/><rect fill="#FFFFFF" height="33.6211" style="stroke:#181818;stroke-width:1.0;" width="10" x="427" y="168.1152"/><rect fill="#FFFFFF" height="209.1152" style="stroke:#181818;stroke-width:1.0;" width="10" x="427" y="233.0273"/><rect fill="#FFFFFF" height="31.291" style="stroke:#181818;stroke-width:1.0;" width="10" x="598" y="264.3184"/><rect fill="#FFFFFF" height="16.3301" style="stroke:#181818;stroke-width:1.0;" width="10" x="724" y="394.5215"/><rect fill="#FFFFFF" height="134.2031" style="stroke:#181818;stroke-width:1.0;" width="10" x="724" y="536.0156"/><rect fill="#FFFFFF" height="33.6211" style="stroke:#181818;stroke-width:1.0;" width="10" x="876" y="605.3066"/><rect fill="#FFFFFF" height="16.3301" style="stroke:#181818;stroke-width:1.0;" width="10" x="1075" y="336.9004"/><rect fill="#FFFFFF" height="14" style="stroke:#181818;stroke-width:1.0;" width="10" x="1244" y="567.3066"/><line style="stroke:#181818;stroke-width:0.5;stroke-dasharray:5.0,5.0;" x1="98" x2="98" y1="79.5332" y2="750.8008"/><line style="stroke:#181818;stroke-width:0.5;stroke-dasharray:5.0,5.0;" x1="254" x2="254" y1="79.5332" y2="750.8008"/><line style="stroke:#181818;stroke-width:0.5;stroke-dasharray:5.0,5.0;" x1="432" x2="432" y1="183.9258" y2="750.8008"/><line style="stroke:#181818;stroke-width:0.5;stroke-dasharray:5.0,5.0;" x1="602.5" x2="602.5" y1="79.5332" y2="750.8008"/><line style="stroke:#181818;stroke-width:0.5;stroke-dasharray:5.0,5.0;" x1="728.5" x2="728.5" y1="393.041" y2="750.8008"/><line style="stroke:#181818;stroke-width:0.5;stroke-dasharray:5.0,5.0;" x1="880.5" x2="880.5" y1="621.1172" y2="750.8008"/><line style="stroke:#181818;stroke-width:0.5;stroke-dasharray:5.0,5.0;" x1="1079.5" x2="1079.5" y1="335.4199" y2="750.8008"/><line style="stroke:#181818;stroke-width:0.5;stroke-dasharray:5.0,5.0;" x1="1248.5" x2="1248.5" y1="79.5332" y2="750.8008"/><rect fill="#3333C4" height="32.6211" rx="2.5" ry="2.5" style="stroke:#181818;stroke-width:0.5;" width="108" x="44" y="45.9121"/><text fill="#FFFFFF" font-family="sans-serif" font-size="14" lengthAdjust="spacing" textLength="94" x="51" y="68.0195">:LogicManager</text><rect fill="#3333C4" height="32.6211" rx="2.5" ry="2.5" style="stroke:#181818;stroke-width:0.5;" width="144" x="182" y="45.9121"/><text fill="#FFFFFF" font-family="sans-serif" font-size="14" lengthAdjust="spacing" textLength="130" x="189" y="68.0195">:AddressBookParser</text><rect fill="#3333C4" height="51.2422" rx="2.5" ry="2.5" style="stroke:#181818;stroke-width:0.5;" width="75" x="565.5" y="27.291"/><text fill="#FFFFFF" font-family="sans-serif" font-size="14" font-style="italic" lengthAdjust="spacing" textLength="48" x="579" y="49.3984">&#171;class&#187;</text><text fill="#FFFFFF" font-family="sans-serif" font-size="14" lengthAdjust="spacing" textLength="61" x="572.5" y="68.0195">ParserUtil</text><rect fill="#9D0012" height="32.6211" rx="2.5" ry="2.5" style="stroke:#181818;stroke-width:0.5;" width="67" x="1215.5" y="45.9121"/><text fill="#FFFFFF" font-family="sans-serif" font-size="14" lengthAdjust="spacing" textLength="53" x="1222.5" y="68.0195">m:Model</text><rect fill="#FFFFFF" height="619.9766" style="stroke:#181818;stroke-width:1.0;" width="10" x="93" y="112.8242"/><rect fill="#FFFFFF" height="360.6094" style="stroke:#181818;stroke-width:1.0;" width="10" x="249" y="144.1152"/><rect fill="#FFFFFF" height="33.6211" style="stroke:#181818;stroke-width:1.0;" width="10" x="427" y="168.1152"/><rect fill="#FFFFFF" height="209.1152" style="stroke:#181818;stroke-width:1.0;" width="10" x="427" y="233.0273"/><rect fill="#FFFFFF" height="31.291" style="stroke:#181818;stroke-width:1.0;" width="10" x="598" y="264.3184"/><rect fill="#FFFFFF" height="16.3301" style="stroke:#181818;stroke-width:1.0;" width="10" x="724" y="394.5215"/><rect fill="#FFFFFF" height="134.2031" style="stroke:#181818;stroke-width:1.0;" width="10" x="724" y="536.0156"/><rect fill="#FFFFFF" height="33.6211" style="stroke:#181818;stroke-width:1.0;" width="10" x="876" y="605.3066"/><rect fill="#FFFFFF" height="16.3301" style="stroke:#181818;stroke-width:1.0;" width="10" x="1075" y="336.9004"/><rect fill="#FFFFFF" height="14" style="stroke:#181818;stroke-width:1.0;" width="10" x="1244" y="567.3066"/><polygon fill="#181818" points="81,108.8242,91,112.8242,81,116.8242,85,112.8242" style="stroke:#181818;stroke-width:1.0;"/><line style="stroke:#181818;stroke-width:1.0;" x1="0" x2="87" y1="112.8242" y2="112.8242"/><text fill="#000000" font-family="sans-serif" font-size="13" lengthAdjust="spacing" textLength="74" x="9.5" y="107.5615">execute(find)</text><polygon fill="#181818" points="237,140.1152,247,144.1152,237,148.1152,241,144.1152" style="stroke:#181818;stroke-width:1.0;"/><line style="stroke:#181818;stroke-width:1.0;" x1="103" x2="243" y1="144.1152" y2="144.1152"/><text fill="#000000" font-family="sans-serif" font-size="13" lengthAdjust="spacing" textLength="119" x="116.5" y="138.8525">parseCommand(find)</text><polygon fill="#181818" points="344,154.1152,354,158.1152,344,162.1152,348,158.1152" style="stroke:#181818;stroke-width:1.0;"/><line style="stroke:#181818;stroke-width:1.0;" x1="259" x2="350" y1="158.1152" y2="158.1152"/><rect fill="#3333C4" height="32.6211" rx="2.5" ry="2.5" style="stroke:#181818;stroke-width:0.5;" width="152" x="356" y="152.1152"/><text fill="#FFFFFF" font-family="sans-serif" font-size="14" lengthAdjust="spacing" textLength="138" x="363" y="174.2227">:FindCommandParser</text><polygon fill="#181818" points="270,197.7363,260,201.7363,270,205.7363,266,201.7363" style="stroke:#181818;stroke-width:1.0;"/><line style="stroke:#181818;stroke-width:1.0;" x1="264" x2="431" y1="201.7363" y2="201.7363"/><polygon fill="#181818" points="415,229.0273,425,233.0273,415,237.0273,419,233.0273" style="stroke:#181818;stroke-width:1.0;"/><line style="stroke:#181818;stroke-width:1.0;" x1="259" x2="421" y1="233.0273" y2="233.0273"/><text fill="#000000" font-family="sans-serif" font-size="13" lengthAdjust="spacing" textLength="94" x="296" y="227.7646">parse(argument)</text><polygon fill="#181818" points="586,260.3184,596,264.3184,586,268.3184,590,264.3184" style="stroke:#181818;stroke-width:1.0;"/><line style="stroke:#181818;stroke-width:1.0;" x1="437" x2="592" y1="264.3184" y2="264.3184"/><text fill="#000000" font-family="sans-serif" font-size="13" lengthAdjust="spacing" textLength="142" x="446.5" y="259.0557">parseMeetingDate(value)</text><polygon fill="#181818" points="448,291.6094,438,295.6094,448,299.6094,444,295.6094" style="stroke:#181818;stroke-width:1.0;"/><line style="stroke:#181818;stroke-width:1.0;" x1="442" x2="602" y1="295.6094" y2="295.6094"/><text fill="#000000" font-family="sans-serif" font-size="13" lengthAdjust="spacing" textLength="7" x="516.5" y="290.3467">d</text><polygon fill="#181818" points="962.5,322.9004,972.5,326.9004,962.5,330.9004,966.5,326.9004" style="stroke:#181818;stroke-width:1.0;"/><line style="stroke:#181818;stroke-width:1.0;" x1="437" x2="968.5" y1="326.9004" y2="326.9004"/><text fill="#000000" font-family="sans-serif" font-size="13" lengthAdjust="spacing" textLength="184" x="613.75" y="321.6377">PersonMeetingDatePredicate(d)</text><rect fill="#9D0012" height="32.6211" rx="2.5" ry="2.5" style="stroke:#181818;stroke-width:0.5;" width="211" x="974.5" y="303.6094"/><text fill="#FFFFFF" font-family="sans-serif" font-size="14" lengthAdjust="spacing" textLength="197" x="981.5" y="325.7168">p:PersonMeetingDatePredicate</text><polygon fill="#181818" points="448,349.2305,438,353.2305,448,357.2305,444,353.2305" style="stroke:#181818;stroke-width:1.0;"/><line style="stroke:#181818;stroke-width:1.0;stroke-dasharray:2.0,2.0;" x1="442" x2="1079" y1="353.2305" y2="353.2305"/><polygon fill="#181818" points="658.5,380.5215,668.5,384.5215,658.5,388.5215,662.5,384.5215" style="stroke:#181818;stroke-width:1.0;"/><line style="stroke:#181818;stroke-width:1.0;" x1="437" x2="664.5" y1="384.5215" y2="384.5215"/><text fill="#000000" font-family="sans-serif" font-size="13" lengthAdjust="spacing" textLength="99" x="504.25" y="379.2588">FindCommand(p)</text><rect fill="#3333C4" height="32.6211" rx="2.5" ry="2.5" style="stroke:#181818;stroke-width:0.5;" width="117" x="670.5" y="361.2305"/><text fill="#FFFFFF" font-family="sans-serif" font-size="14" lengthAdjust="spacing" textLength="103" x="677.5" y="383.3379">c:FindCommand</text><polygon fill="#181818" points="448,406.8516,438,410.8516,448,414.8516,444,410.8516" style="stroke:#181818;stroke-width:1.0;"/><line style="stroke:#181818;stroke-width:1.0;stroke-dasharray:2.0,2.0;" x1="442" x2="728" y1="410.8516" y2="410.8516"/><polygon fill="#181818" points="270,438.1426,260,442.1426,270,446.1426,266,442.1426" style="stroke:#181818;stroke-width:1.0;"/><line style="stroke:#181818;stroke-width:1.0;stroke-dasharray:2.0,2.0;" x1="264" x2="431" y1="442.1426" y2="442.1426"/><text fill="#000000" font-family="sans-serif" font-size="13" lengthAdjust="spacing" textLength="7" x="342" y="436.8799">c</text><polygon fill="#181818" points="114,500.7246,104,504.7246,114,508.7246,110,504.7246" style="stroke:#181818;stroke-width:1.0;"/><line style="stroke:#181818;stroke-width:1.0;stroke-dasharray:2.0,2.0;" x1="108" x2="253" y1="504.7246" y2="504.7246"/><text fill="#000000" font-family="sans-serif" font-size="13" lengthAdjust="spacing" textLength="7" x="175" y="499.4619">c</text><line style="stroke:#A80036;stroke-width:2.0;" x1="423" x2="441" y1="495.7246" y2="513.7246"/><line style="stroke:#A80036;stroke-width:2.0;" x1="423" x2="441" y1="513.7246" y2="495.7246"/><polygon fill="#181818" points="712,532.0156,722,536.0156,712,540.0156,716,536.0156" style="stroke:#181818;stroke-width:1.0;"/><line style="stroke:#181818;stroke-width:1.0;" x1="103" x2="718" y1="536.0156" y2="536.0156"/><text fill="#000000" font-family="sans-serif" font-size="13" lengthAdjust="spacing" textLength="65" x="381" y="530.7529">execute(m)</text><polygon fill="#181818" points="1232,563.3066,1242,567.3066,1232,571.3066,1236,567.3066" style="stroke:#181818;stroke-width:1.0;"/><line style="stroke:#181818;stroke-width:1.0;" x1="734" x2="1238" y1="567.3066" y2="567.3066"/><text fill="#000000" font-family="sans-serif" font-size="13" lengthAdjust="spacing" textLength="159" x="909.5" y="562.0439">updateFilteredPersonList(p)</text><polygon fill="#181818" points="745,577.3066,735,581.3066,745,585.3066,741,581.3066" style="stroke:#181818;stroke-width:1.0;"/><line style="stroke:#181818;stroke-width:1.0;stroke-dasharray:2.0,2.0;" x1="739" x2="1248" y1="581.3066" y2="581.3066"/><polygon fill="#181818" points="805.5,591.3066,815.5,595.3066,805.5,599.3066,809.5,595.3066" style="stroke:#181818;stroke-width:1.0;"/><line style="stroke:#181818;stroke-width:1.0;" x1="734" x2="811.5" y1="595.3066" y2="595.3066"/><rect fill="#3333C4" height="32.6211" rx="2.5" ry="2.5" style="stroke:#181818;stroke-width:0.5;" width="127" x="817.5" y="589.3066"/><text fill="#FFFFFF" font-family="sans-serif" font-size="14" lengthAdjust="spacing" textLength="113" x="824.5" y="611.4141">r:CommandResult</text><polygon fill="#181818" points="745,634.9277,735,638.9277,745,642.9277,741,638.9277" style="stroke:#181818;stroke-width:1.0;"/><line style="stroke:#181818;stroke-width:1.0;stroke-dasharray:2.0,2.0;" x1="739" x2="880" y1="638.9277" y2="638.9277"/><polygon fill="#181818" points="114,666.2188,104,670.2188,114,674.2188,110,670.2188" style="stroke:#181818;stroke-width:1.0;"/><line style="stroke:#181818;stroke-width:1.0;stroke-dasharray:2.0,2.0;" x1="108" x2="728" y1="670.2188" y2="670.2188"/><text fill="#000000" font-family="sans-serif" font-size="13" lengthAdjust="spacing" textLength="4" x="414" y="664.9561">r</text><polygon fill="#181818" points="11,728.8008,1,732.8008,11,736.8008,7,732.8008" style="stroke:#181818;stroke-width:1.0;"/><line style="stroke:#181818;stroke-width:1.0;stroke-dasharray:2.0,2.0;" x1="5" x2="97" y1="732.8008" y2="732.8008"/><text fill="#000000" font-family="sans-serif" font-size="13" lengthAdjust="spacing" textLength="4" x="47" y="727.5381">r</text><line style="stroke:#A80036;stroke-width:2.0;" x1="720" x2="738" y1="723.8008" y2="741.8008"/><line style="stroke:#A80036;stroke-width:2.0;" x1="720" x2="738" y1="741.8008" y2="723.8008"/><!--SRC=[ZLNBRjim4BppAzYSb8C3z2eO1bAdBWh8i96s9wC867BZ4g58WQJIvEyhIxB3TtEJk3kpkvpHwXENLFGCiB5l0cwwlXN8F7FP4KrQVAkr-hjHqluuHN4d29S8FQfNtAWZfxZPVVk-VbZlcjtzmy_FQ01PJdb7fCLNzPYo9P8SGLzXOh1xu483t2rZ6epvejJpdcWpWwFJ0iE6IxPMRKiaSnYYqpp35FzbkHYHxwzukQI26BDQvS7KhHzMpiDqFQVSW-c57O7UYGU5WMhGOH9ZgnW8lDtTVMqoOdJr7hHHSWjWkJpU4Gjx3OpJuM4QCHjsUNtIjXuBZ_YeXKk7XyNALxx6y0gqjr0z3VToZGYr_ELKoCr2oCCC7B41QjoT7kPB2jcYV8IeXbCaCWAAkOU2STg5EmwXs5sfdX634id7-ZWFNX5zx5kGzhhKMR8nnz4pcIDzzK943mxfUpPoW9dMc3kZWvmlFs-qJATvOzQ5OELQeL0J5VWNIHEuqnLuOw-bvtDtG-s-LLrQLizg_-ynXpntaFcoQDcf2QB37yuOoDzPmfIxuztW5KvzFyPgzPRwUCA5uT_iUUUq7xhLrRpGQjntR4ZTS65X47TIlE76UlACoGXDc40ITvuvR_Q6jzt3-dxmmk0V8_y7KQWSu48B1I9a7UJX7CL3_5pci5miIjJUnaz8-my0]--></g></svg>