<?xml version="1.0" encoding="us-ascii" standalone="no"?><svg xmlns="http://www.w3.org/2000/svg" xmlns:xlink="http://www.w3.org/1999/xlink" contentStyleType="text/css" height="701px" preserveAspectRatio="none" style="width:1368px;height:701px;background:#FFFFFF;" version="1.1" viewBox="0 0 1368 701" width="1368px" zoomAndPan="magnify"><defs/><g><rect fill="#C8C8FA" height="682.9668" style="stroke:#181818;stroke-width:0.5;" width="980" x="35" y="6"/><text fill="#FFFFFF" font-family="sans-serif" font-size="13" font-weight="bold" lengthAdjust="spacing" textLength="36" x="505" y="18.5684">Logic</text><rect fill="#F97181" height="682.9668" style="stroke:#181818;stroke-width:0.5;" width="345" x="1017" y="6"/><text fill="#FFFFFF" font-family="sans-serif" font-size="13" font-weight="bold" lengthAdjust="spacing" textLength="41" x="1167" y="18.5684">Model</text><rect fill="#FFFFFF" height="572.3691" style="stroke:#181818;stroke-width:1.0;" width="10" x="101" y="104.5977"/><rect fill="#FFFFFF" height="342.3281" style="stroke:#181818;stroke-width:1.0;" width="10" x="263.5" y="133.9082"/><rect fill="#FFFFFF" height="31.4883" style="stroke:#181818;stroke-width:1.0;" width="10" x="450" y="157.9082"/><rect fill="#FFFFFF" height="198.9082" style="stroke:#181818;stroke-width:1.0;" width="10" x="450" y="218.707"/><rect fill="#FFFFFF" height="29.3105" style="stroke:#181818;stroke-width:1.0;" width="10" x="633" y="248.0176"/><rect fill="#FFFFFF" height="16.1777" style="stroke:#181818;stroke-width:1.0;" width="10" x="766" y="372.127"/><rect fill="#FFFFFF" height="128.1094" style="stroke:#181818;stroke-width:1.0;" width="10" x="766" y="505.5469"/><rect fill="#FFFFFF" height="31.4883" style="stroke:#181818;stroke-width:1.0;" width="10" x="927.5" y="572.8574"/><rect fill="#FFFFFF" height="16.1777" style="stroke:#181818;stroke-width:1.0;" width="10" x="1137.5" y="316.6387"/><rect fill="#FFFFFF" height="14" style="stroke:#181818;stroke-width:1.0;" width="10" x="1311" y="534.8574"/><line style="stroke:#181818;stroke-width:0.5;stroke-dasharray:5.0,5.0;" x1="106" x2="106" y1="73.2871" y2="694.9668"/><line style="stroke:#181818;stroke-width:0.5;stroke-dasharray:5.0,5.0;" x1="268" x2="268" y1="73.2871" y2="694.9668"/><line style="stroke:#181818;stroke-width:0.5;stroke-dasharray:5.0,5.0;" x1="455" x2="455" y1="172.6523" y2="694.9668"/><line style="stroke:#181818;stroke-width:0.5;stroke-dasharray:5.0,5.0;" x1="638" x2="638" y1="73.2871" y2="694.9668"/><line style="stroke:#181818;stroke-width:0.5;stroke-dasharray:5.0,5.0;" x1="771" x2="771" y1="371.5605" y2="694.9668"/><line style="stroke:#181818;stroke-width:0.5;stroke-dasharray:5.0,5.0;" x1="932" x2="932" y1="587.6016" y2="694.9668"/><line style="stroke:#181818;stroke-width:0.5;stroke-dasharray:5.0,5.0;" x1="1142" x2="1142" y1="316.0723" y2="694.9668"/><line style="stroke:#181818;stroke-width:0.5;stroke-dasharray:5.0,5.0;" x1="1316" x2="1316" y1="73.2871" y2="694.9668"/><rect fill="#3333C4" height="30.4883" rx="2.5" ry="2.5" style="stroke:#181818;stroke-width:0.5;" width="114" x="49" y="41.7988"/><text fill="#FFFFFF" font-family="sans-serif" font-size="14" lengthAdjust="spacing" textLength="100" x="56" y="62.334">:LogicManager</text><rect fill="#3333C4" height="30.4883" rx="2.5" ry="2.5" style="stroke:#181818;stroke-width:0.5;" width="151" x="193" y="41.7988"/><text fill="#FFFFFF" font-family="sans-serif" font-size="14" lengthAdjust="spacing" textLength="137" x="200" y="62.334">:AddressBookParser</text><rect fill="#3333C4" height="46.9766" rx="2.5" ry="2.5" style="stroke:#181818;stroke-width:0.5;" width="80" x="598" y="25.3105"/><text fill="#FFFFFF" font-family="sans-serif" font-size="14" font-style="italic" lengthAdjust="spacing" textLength="47" x="614.5" y="45.8457">&#171;class&#187;</text><text fill="#FFFFFF" font-family="sans-serif" font-size="14" lengthAdjust="spacing" textLength="66" x="605" y="62.334">ParserUtil</text><rect fill="#9D0012" height="30.4883" rx="2.5" ry="2.5" style="stroke:#181818;stroke-width:0.5;" width="64" x="1284" y="41.7988"/><text fill="#FFFFFF" font-family="sans-serif" font-size="14" lengthAdjust="spacing" textLength="46" x="1293" y="62.334">:Model</text><rect fill="#FFFFFF" height="572.3691" style="stroke:#181818;stroke-width:1.0;" width="10" x="101" y="104.5977"/><rect fill="#FFFFFF" height="342.3281" style="stroke:#181818;stroke-width:1.0;" width="10" x="263.5" y="133.9082"/><rect fill="#FFFFFF" height="31.4883" style="stroke:#181818;stroke-width:1.0;" width="10" x="450" y="157.9082"/><rect fill="#FFFFFF" height="198.9082" style="stroke:#181818;stroke-width:1.0;" width="10" x="450" y="218.707"/><rect fill="#FFFFFF" height="29.3105" style="stroke:#181818;stroke-width:1.0;" width="10" x="633" y="248.0176"/><rect fill="#FFFFFF" height="16.1777" style="stroke:#181818;stroke-width:1.0;" width="10" x="766" y="372.127"/><rect fill="#FFFFFF" height="128.1094" style="stroke:#181818;stroke-width:1.0;" width="10" x="766" y="505.5469"/><rect fill="#FFFFFF" height="31.4883" style="stroke:#181818;stroke-width:1.0;" width="10" x="927.5" y="572.8574"/><rect fill="#FFFFFF" height="16.1777" style="stroke:#181818;stroke-width:1.0;" width="10" x="1137.5" y="316.6387"/><rect fill="#FFFFFF" height="14" style="stroke:#181818;stroke-width:1.0;" width="10" x="1311" y="534.8574"/><polygon fill="#181818" points="89,100.5977,99,104.5977,89,108.5977,93,104.5977" style="stroke:#181818;stroke-width:1.0;"/><line style="stroke:#181818;stroke-width:1.0;" x1="0" x2="95" y1="104.5977" y2="104.5977"/><text fill="#000000" font-family="sans-serif" font-size="13" lengthAdjust="spacing" textLength="82" x="9.5" y="99.8555">execute(find)</text><polygon fill="#181818" points="251.5,129.9082,261.5,133.9082,251.5,137.9082,255.5,133.9082" style="stroke:#181818;stroke-width:1.0;"/><line style="stroke:#181818;stroke-width:1.0;" x1="111" x2="257.5" y1="133.9082" y2="133.9082"/><text fill="#000000" font-family="sans-serif" font-size="13" lengthAdjust="spacing" textLength="131" x="121.75" y="129.166">parseCommand(find)</text><polygon fill="#181818" points="362,143.9082,372,147.9082,362,151.9082,366,147.9082" style="stroke:#181818;stroke-width:1.0;"/><line style="stroke:#181818;stroke-width:1.0;" x1="273.5" x2="368" y1="147.9082" y2="147.9082"/><rect fill="#3333C4" height="30.4883" rx="2.5" ry="2.5" style="stroke:#181818;stroke-width:0.5;" width="162" x="374" y="141.9082"/><text fill="#FFFFFF" font-family="sans-serif" font-size="14" lengthAdjust="spacing" textLength="148" x="381" y="162.4434">:FindCommandParser</text><polygon fill="#181818" points="284.5,185.3965,274.5,189.3965,284.5,193.3965,280.5,189.3965" style="stroke:#181818;stroke-width:1.0;"/><line style="stroke:#181818;stroke-width:1.0;" x1="278.5" x2="454" y1="189.3965" y2="189.3965"/><polygon fill="#181818" points="438,214.707,448,218.707,438,222.707,442,218.707" style="stroke:#181818;stroke-width:1.0;"/><line style="stroke:#181818;stroke-width:1.0;" x1="273.5" x2="444" y1="218.707" y2="218.707"/><text fill="#000000" font-family="sans-serif" font-size="13" lengthAdjust="spacing" textLength="102" x="310.75" y="213.9648">parse(argument)</text><polygon fill="#181818" points="621,244.0176,631,248.0176,621,252.0176,625,248.0176" style="stroke:#181818;stroke-width:1.0;"/><line style="stroke:#181818;stroke-width:1.0;" x1="460" x2="627" y1="248.0176" y2="248.0176"/><text fill="#000000" font-family="sans-serif" font-size="13" lengthAdjust="spacing" textLength="154" x="469.5" y="243.2754">parseMeetingDate(value)</text><polygon fill="#181818" points="471,273.3281,461,277.3281,471,281.3281,467,277.3281" style="stroke:#181818;stroke-width:1.0;"/><line style="stroke:#181818;stroke-width:1.0;" x1="465" x2="637" y1="277.3281" y2="277.3281"/><text fill="#000000" font-family="sans-serif" font-size="13" lengthAdjust="spacing" textLength="8" x="545" y="272.5859">d</text><polygon fill="#181818" points="1019,302.6387,1029,306.6387,1019,310.6387,1023,306.6387" style="stroke:#181818;stroke-width:1.0;"/><line style="stroke:#181818;stroke-width:1.0;" x1="460" x2="1025" y1="306.6387" y2="306.6387"/><text fill="#000000" font-family="sans-serif" font-size="13" lengthAdjust="spacing" textLength="194" x="648.5" y="301.8965">PersonMeetingDatePredicate(d)</text><rect fill="#9D0012" height="30.4883" rx="2.5" ry="2.5" style="stroke:#181818;stroke-width:0.5;" width="223" x="1031" y="285.3281"/><text fill="#FFFFFF" font-family="sans-serif" font-size="14" lengthAdjust="spacing" textLength="209" x="1038" y="305.8633">p:PersonMeetingDatePredicate</text><polygon fill="#181818" points="471,328.8164,461,332.8164,471,336.8164,467,332.8164" style="stroke:#181818;stroke-width:1.0;"/><line style="stroke:#181818;stroke-width:1.0;stroke-dasharray:2.0,2.0;" x1="465" x2="1141.5" y1="332.8164" y2="332.8164"/><polygon fill="#181818" points="696,358.127,706,362.127,696,366.127,700,362.127" style="stroke:#181818;stroke-width:1.0;"/><line style="stroke:#181818;stroke-width:1.0;" x1="460" x2="702" y1="362.127" y2="362.127"/><text fill="#000000" font-family="sans-serif" font-size="13" lengthAdjust="spacing" textLength="107" x="530.5" y="357.3848">FindCommand(p)</text><rect fill="#3333C4" height="30.4883" rx="2.5" ry="2.5" style="stroke:#181818;stroke-width:0.5;" width="126" x="708" y="340.8164"/><text fill="#FFFFFF" font-family="sans-serif" font-size="14" lengthAdjust="spacing" textLength="112" x="715" y="361.3516">c:FindCommand</text><polygon fill="#181818" points="471,384.3047,461,388.3047,471,392.3047,467,388.3047" style="stroke:#181818;stroke-width:1.0;"/><line style="stroke:#181818;stroke-width:1.0;stroke-dasharray:2.0,2.0;" x1="465" x2="770" y1="388.3047" y2="388.3047"/><polygon fill="#181818" points="284.5,413.6152,274.5,417.6152,284.5,421.6152,280.5,417.6152" style="stroke:#181818;stroke-width:1.0;"/><line style="stroke:#181818;stroke-width:1.0;stroke-dasharray:2.0,2.0;" x1="278.5" x2="454" y1="417.6152" y2="417.6152"/><text fill="#000000" font-family="sans-serif" font-size="13" lengthAdjust="spacing" textLength="7" x="360.75" y="412.873">c</text><line style="stroke:#A80036;stroke-width:2.0;" x1="446" x2="464" y1="437.9258" y2="455.9258"/><line style="stroke:#A80036;stroke-width:2.0;" x1="446" x2="464" y1="455.9258" y2="437.9258"/><polygon fill="#181818" points="122,472.2363,112,476.2363,122,480.2363,118,476.2363" style="stroke:#181818;stroke-width:1.0;"/><line style="stroke:#181818;stroke-width:1.0;stroke-dasharray:2.0,2.0;" x1="116" x2="267.5" y1="476.2363" y2="476.2363"/><text fill="#000000" font-family="sans-serif" font-size="13" lengthAdjust="spacing" textLength="7" x="186.25" y="471.4941">c</text><polygon fill="#181818" points="754,501.5469,764,505.5469,754,509.5469,758,505.5469" style="stroke:#181818;stroke-width:1.0;"/><line style="stroke:#181818;stroke-width:1.0;" x1="111" x2="760" y1="505.5469" y2="505.5469"/><text fill="#000000" font-family="sans-serif" font-size="13" lengthAdjust="spacing" textLength="57" x="410" y="500.8047">execute()</text><polygon fill="#181818" points="1299,530.8574,1309,534.8574,1299,538.8574,1303,534.8574" style="stroke:#181818;stroke-width:1.0;"/><line style="stroke:#181818;stroke-width:1.0;" x1="776" x2="1305" y1="534.8574" y2="534.8574"/><text fill="#000000" font-family="sans-serif" font-size="13" lengthAdjust="spacing" textLength="171" x="958" y="530.1152">updateFilteredPersonList(p)</text><polygon fill="#181818" points="787,544.8574,777,548.8574,787,552.8574,783,548.8574" style="stroke:#181818;stroke-width:1.0;"/><line style="stroke:#181818;stroke-width:1.0;stroke-dasharray:2.0,2.0;" x1="781" x2="1315" y1="548.8574" y2="548.8574"/><polygon fill="#181818" points="852,558.8574,862,562.8574,852,566.8574,856,562.8574" style="stroke:#181818;stroke-width:1.0;"/><line style="stroke:#181818;stroke-width:1.0;" x1="776" x2="858" y1="562.8574" y2="562.8574"/><rect fill="#3333C4" height="30.4883" rx="2.5" ry="2.5" style="stroke:#181818;stroke-width:0.5;" width="137" x="864" y="556.8574"/><text fill="#FFFFFF" font-family="sans-serif" font-size="14" lengthAdjust="spacing" textLength="123" x="871" y="577.3926">r:CommandResult</text><polygon fill="#181818" points="787,600.3457,777,604.3457,787,608.3457,783,604.3457" style="stroke:#181818;stroke-width:1.0;"/><line style="stroke:#181818;stroke-width:1.0;stroke-dasharray:2.0,2.0;" x1="781" x2="931.5" y1="604.3457" y2="604.3457"/><polygon fill="#181818" points="122,629.6563,112,633.6563,122,637.6563,118,633.6563" style="stroke:#181818;stroke-width:1.0;"/><line style="stroke:#181818;stroke-width:1.0;stroke-dasharray:2.0,2.0;" x1="116" x2="770" y1="633.6563" y2="633.6563"/><text fill="#000000" font-family="sans-serif" font-size="13" lengthAdjust="spacing" textLength="5" x="438.5" y="628.9141">r</text><line style="stroke:#A80036;stroke-width:2.0;" x1="762" x2="780" y1="653.9668" y2="671.9668"/><line style="stroke:#A80036;stroke-width:2.0;" x1="762" x2="780" y1="671.9668" y2="653.9668"/><polygon fill="#181818" points="11,672.9668,1,676.9668,11,680.9668,7,676.9668" style="stroke:#181818;stroke-width:1.0;"/><line style="stroke:#181818;stroke-width:1.0;stroke-dasharray:2.0,2.0;" x1="5" x2="105" y1="676.9668" y2="676.9668"/><!--SRC=[ZLN1Rjim3BthAxIUt4C6x6e40Rfq6GOuID1jfs0eL8dBXDgI8SbT-_TpR2Ub94lBpHRv7Yc-P_g3LBpk153htchus7PDJUopL2qphA5tnkY_6wtSzrEKjZMJYf0d_KehVPISLhkltzQFwrsrUtZyyOdq82UvR9bozAOSKhPCiIEO6yeinGSO6k3kX31WxMUjd_VCs0aSdMOODbA9jMuQfWHYY4xJ36FyfvFrW7n_fSibhvcrgrKQp77zi78QPiefvG5iLxi1w9ruKEYfUXr6CRPQG4stk_ilLKACjjo3iLfj0PnKntlcO6z0IDu_Z5TCXZ5lCEUXxW2FEhWqU5YiVE5B2g_0EmV5xtuijuHn9rzETN0M8HwcvuZrBsbxUfXc5B95-OHm0wT8v0CIS_S5uxGBTnmYiRdcUYO2SYJNzN6-UC7CiMj0kTjSPxED8KDFP4ZvueNL7I3Izso2W8dM1BuZGax3J_iiqMdQbsKcM60hP6gI3FzYrWJuTXdUs6lpzyEheSHlHJilgsUr__UOGfuxI7nPFE_K6QB37oa4g5yPGkkCVhlIz_7My5gQ-Rh3XU5FzhnphXhgQjfd9UrQqQTkPEsWrtOKl9BMUUeCoOICc40HtFIKDrd3s-rXVJzuOV2FYVzxo5GESA63Waad3UJXaE0XVYmp8pWXX-LYuIrwL0gV_mC0]--></g></svg>