<?xml version="1.0" encoding="us-ascii" standalone="no"?><svg xmlns="http://www.w3.org/2000/svg" xmlns:xlink="http://www.w3.org/1999/xlink" contentStyleType="text/css" height="626px" preserveAspectRatio="none" style="width:1201px;height:626px;background:#FFFFFF;" version="1.1" viewBox="0 0 1201 626" width="1201px" zoomAndPan="magnify"><defs/><g><rect fill="#C8C8FA" height="607.8574" style="stroke:#181818;stroke-width:0.5;" width="873" x="35" y="6"/><text fill="#FFFFFF" font-family="sans-serif" font-size="13" font-weight="bold" lengthAdjust="spacing" textLength="36" x="451.5" y="18.5684">Logic</text><rect fill="#F97181" height="607.8574" style="stroke:#181818;stroke-width:0.5;" width="285" x="910" y="6"/><text fill="#FFFFFF" font-family="sans-serif" font-size="13" font-weight="bold" lengthAdjust="spacing" textLength="41" x="1030" y="18.5684">Model</text><rect fill="#FFFFFF" height="513.748" style="stroke:#181818;stroke-width:1.0;" width="10" x="101" y="88.1094"/><rect fill="#FFFFFF" height="283.707" style="stroke:#181818;stroke-width:1.0;" width="10" x="263.5" y="117.4199"/><rect fill="#FFFFFF" height="31.4883" style="stroke:#181818;stroke-width:1.0;" width="10" x="450" y="141.4199"/><rect fill="#FFFFFF" height="140.2871" style="stroke:#181818;stroke-width:1.0;" width="10" x="450" y="202.2188"/><rect fill="#FFFFFF" height="16.1777" style="stroke:#181818;stroke-width:1.0;" width="10" x="659" y="297.0176"/><rect fill="#FFFFFF" height="128.1094" style="stroke:#181818;stroke-width:1.0;" width="10" x="659" y="430.4375"/><rect fill="#FFFFFF" height="31.4883" style="stroke:#181818;stroke-width:1.0;" width="10" x="820.5" y="497.748"/><rect fill="#FFFFFF" height="16.1777" style="stroke:#181818;stroke-width:1.0;" width="10" x="1000.5" y="241.5293"/><rect fill="#FFFFFF" height="14" style="stroke:#181818;stroke-width:1.0;" width="10" x="1144" y="459.748"/><line style="stroke:#181818;stroke-width:0.5;stroke-dasharray:5.0,5.0;" x1="106" x2="106" y1="56.7988" y2="619.8574"/><line style="stroke:#181818;stroke-width:0.5;stroke-dasharray:5.0,5.0;" x1="268" x2="268" y1="56.7988" y2="619.8574"/><line style="stroke:#181818;stroke-width:0.5;stroke-dasharray:5.0,5.0;" x1="455" x2="455" y1="156.1641" y2="619.8574"/><line style="stroke:#181818;stroke-width:0.5;stroke-dasharray:5.0,5.0;" x1="664" x2="664" y1="296.4512" y2="619.8574"/><line style="stroke:#181818;stroke-width:0.5;stroke-dasharray:5.0,5.0;" x1="825" x2="825" y1="512.4922" y2="619.8574"/><line style="stroke:#181818;stroke-width:0.5;stroke-dasharray:5.0,5.0;" x1="1005" x2="1005" y1="240.9629" y2="619.8574"/><line style="stroke:#181818;stroke-width:0.5;stroke-dasharray:5.0,5.0;" x1="1149" x2="1149" y1="56.7988" y2="619.8574"/><rect fill="#3333C4" height="30.4883" rx="2.5" ry="2.5" style="stroke:#181818;stroke-width:0.5;" width="114" x="49" y="25.3105"/><text fill="#FFFFFF" font-family="sans-serif" font-size="14" lengthAdjust="spacing" textLength="100" x="56" y="45.8457">:LogicManager</text><rect fill="#3333C4" height="30.4883" rx="2.5" ry="2.5" style="stroke:#181818;stroke-width:0.5;" width="151" x="193" y="25.3105"/><text fill="#FFFFFF" font-family="sans-serif" font-size="14" lengthAdjust="spacing" textLength="137" x="200" y="45.8457">:AddressBookParser</text><rect fill="#9D0012" height="30.4883" rx="2.5" ry="2.5" style="stroke:#181818;stroke-width:0.5;" width="64" x="1117" y="25.3105"/><text fill="#FFFFFF" font-family="sans-serif" font-size="14" lengthAdjust="spacing" textLength="46" x="1126" y="45.8457">:Model</text><rect fill="#FFFFFF" height="513.748" style="stroke:#181818;stroke-width:1.0;" width="10" x="101" y="88.1094"/><rect fill="#FFFFFF" height="283.707" style="stroke:#181818;stroke-width:1.0;" width="10" x="263.5" y="117.4199"/><rect fill="#FFFFFF" height="31.4883" style="stroke:#181818;stroke-width:1.0;" width="10" x="450" y="141.4199"/><rect fill="#FFFFFF" height="140.2871" style="stroke:#181818;stroke-width:1.0;" width="10" x="450" y="202.2188"/><rect fill="#FFFFFF" height="16.1777" style="stroke:#181818;stroke-width:1.0;" width="10" x="659" y="297.0176"/><rect fill="#FFFFFF" height="128.1094" style="stroke:#181818;stroke-width:1.0;" width="10" x="659" y="430.4375"/><rect fill="#FFFFFF" height="31.4883" style="stroke:#181818;stroke-width:1.0;" width="10" x="820.5" y="497.748"/><rect fill="#FFFFFF" height="16.1777" style="stroke:#181818;stroke-width:1.0;" width="10" x="1000.5" y="241.5293"/><rect fill="#FFFFFF" height="14" style="stroke:#181818;stroke-width:1.0;" width="10" x="1144" y="459.748"/><polygon fill="#181818" points="89,84.1094,99,88.1094,89,92.1094,93,88.1094" style="stroke:#181818;stroke-width:1.0;"/><line style="stroke:#181818;stroke-width:1.0;" x1="0" x2="95" y1="88.1094" y2="88.1094"/><text fill="#000000" font-family="sans-serif" font-size="13" lengthAdjust="spacing" textLength="82" x="9.5" y="83.3672">execute(find)</text><polygon fill="#181818" points="251.5,113.4199,261.5,117.4199,251.5,121.4199,255.5,117.4199" style="stroke:#181818;stroke-width:1.0;"/><line style="stroke:#181818;stroke-width:1.0;" x1="111" x2="257.5" y1="117.4199" y2="117.4199"/><text fill="#000000" font-family="sans-serif" font-size="13" lengthAdjust="spacing" textLength="131" x="121.75" y="112.6777">parseCommand(find)</text><polygon fill="#181818" points="362,127.4199,372,131.4199,362,135.4199,366,131.4199" style="stroke:#181818;stroke-width:1.0;"/><line style="stroke:#181818;stroke-width:1.0;" x1="273.5" x2="368" y1="131.4199" y2="131.4199"/><rect fill="#3333C4" height="30.4883" rx="2.5" ry="2.5" style="stroke:#181818;stroke-width:0.5;" width="162" x="374" y="125.4199"/><text fill="#FFFFFF" font-family="sans-serif" font-size="14" lengthAdjust="spacing" textLength="148" x="381" y="145.9551">:FindCommandParser</text><polygon fill="#181818" points="284.5,168.9082,274.5,172.9082,284.5,176.9082,280.5,172.9082" style="stroke:#181818;stroke-width:1.0;"/><line style="stroke:#181818;stroke-width:1.0;" x1="278.5" x2="454" y1="172.9082" y2="172.9082"/><polygon fill="#181818" points="438,198.2188,448,202.2188,438,206.2188,442,202.2188" style="stroke:#181818;stroke-width:1.0;"/><line style="stroke:#181818;stroke-width:1.0;" x1="273.5" x2="444" y1="202.2188" y2="202.2188"/><text fill="#000000" font-family="sans-serif" font-size="13" lengthAdjust="spacing" textLength="102" x="310.75" y="197.4766">parse(argument)</text><polygon fill="#181818" points="912,227.5293,922,231.5293,912,235.5293,916,231.5293" style="stroke:#181818;stroke-width:1.0;"/><line style="stroke:#181818;stroke-width:1.0;" x1="460" x2="918" y1="231.5293" y2="231.5293"/><text fill="#000000" font-family="sans-serif" font-size="13" lengthAdjust="spacing" textLength="164" x="610" y="226.7871">PersonXYZPredicate(value)</text><rect fill="#9D0012" height="30.4883" rx="2.5" ry="2.5" style="stroke:#181818;stroke-width:0.5;" width="163" x="924" y="210.2188"/><text fill="#FFFFFF" font-family="sans-serif" font-size="14" lengthAdjust="spacing" textLength="149" x="931" y="230.7539">p:PersonXYZPredicate</text><polygon fill="#181818" points="471,253.707,461,257.707,471,261.707,467,257.707" style="stroke:#181818;stroke-width:1.0;"/><line style="stroke:#181818;stroke-width:1.0;stroke-dasharray:2.0,2.0;" x1="465" x2="1004.5" y1="257.707" y2="257.707"/><polygon fill="#181818" points="589,283.0176,599,287.0176,589,291.0176,593,287.0176" style="stroke:#181818;stroke-width:1.0;"/><line style="stroke:#181818;stroke-width:1.0;" x1="460" x2="595" y1="287.0176" y2="287.0176"/><text fill="#000000" font-family="sans-serif" font-size="13" lengthAdjust="spacing" textLength="107" x="477" y="282.2754">FindCommand(p)</text><rect fill="#3333C4" height="30.4883" rx="2.5" ry="2.5" style="stroke:#181818;stroke-width:0.5;" width="126" x="601" y="265.707"/><text fill="#FFFFFF" font-family="sans-serif" font-size="14" lengthAdjust="spacing" textLength="112" x="608" y="286.2422">c:FindCommand</text><polygon fill="#181818" points="471,309.1953,461,313.1953,471,317.1953,467,313.1953" style="stroke:#181818;stroke-width:1.0;"/><line style="stroke:#181818;stroke-width:1.0;stroke-dasharray:2.0,2.0;" x1="465" x2="663" y1="313.1953" y2="313.1953"/><polygon fill="#181818" points="284.5,338.5059,274.5,342.5059,284.5,346.5059,280.5,342.5059" style="stroke:#181818;stroke-width:1.0;"/><line style="stroke:#181818;stroke-width:1.0;stroke-dasharray:2.0,2.0;" x1="278.5" x2="454" y1="342.5059" y2="342.5059"/><text fill="#000000" font-family="sans-serif" font-size="13" lengthAdjust="spacing" textLength="7" x="360.75" y="337.7637">c</text><line style="stroke:#A80036;stroke-width:2.0;" x1="446" x2="464" y1="362.8164" y2="380.8164"/><line style="stroke:#A80036;stroke-width:2.0;" x1="446" x2="464" y1="380.8164" y2="362.8164"/><polygon fill="#181818" points="122,397.127,112,401.127,122,405.127,118,401.127" style="stroke:#181818;stroke-width:1.0;"/><line style="stroke:#181818;stroke-width:1.0;stroke-dasharray:2.0,2.0;" x1="116" x2="267.5" y1="401.127" y2="401.127"/><text fill="#000000" font-family="sans-serif" font-size="13" lengthAdjust="spacing" textLength="7" x="186.25" y="396.3848">c</text><polygon fill="#181818" points="647,426.4375,657,430.4375,647,434.4375,651,430.4375" style="stroke:#181818;stroke-width:1.0;"/><line style="stroke:#181818;stroke-width:1.0;" x1="111" x2="653" y1="430.4375" y2="430.4375"/><text fill="#000000" font-family="sans-serif" font-size="13" lengthAdjust="spacing" textLength="57" x="356.5" y="425.6953">execute()</text><polygon fill="#181818" points="1132,455.748,1142,459.748,1132,463.748,1136,459.748" style="stroke:#181818;stroke-width:1.0;"/><line style="stroke:#181818;stroke-width:1.0;" x1="669" x2="1138" y1="459.748" y2="459.748"/><text fill="#000000" font-family="sans-serif" font-size="13" lengthAdjust="spacing" textLength="171" x="821" y="455.0059">updateFilteredPersonList(p)</text><polygon fill="#181818" points="680,469.748,670,473.748,680,477.748,676,473.748" style="stroke:#181818;stroke-width:1.0;"/><line style="stroke:#181818;stroke-width:1.0;stroke-dasharray:2.0,2.0;" x1="674" x2="1148" y1="473.748" y2="473.748"/><polygon fill="#181818" points="745,483.748,755,487.748,745,491.748,749,487.748" style="stroke:#181818;stroke-width:1.0;"/><line style="stroke:#181818;stroke-width:1.0;" x1="669" x2="751" y1="487.748" y2="487.748"/><rect fill="#3333C4" height="30.4883" rx="2.5" ry="2.5" style="stroke:#181818;stroke-width:0.5;" width="137" x="757" y="481.748"/><text fill="#FFFFFF" font-family="sans-serif" font-size="14" lengthAdjust="spacing" textLength="123" x="764" y="502.2832">r:CommandResult</text><polygon fill="#181818" points="680,525.2363,670,529.2363,680,533.2363,676,529.2363" style="stroke:#181818;stroke-width:1.0;"/><line style="stroke:#181818;stroke-width:1.0;stroke-dasharray:2.0,2.0;" x1="674" x2="824.5" y1="529.2363" y2="529.2363"/><polygon fill="#181818" points="122,554.5469,112,558.5469,122,562.5469,118,558.5469" style="stroke:#181818;stroke-width:1.0;"/><line style="stroke:#181818;stroke-width:1.0;stroke-dasharray:2.0,2.0;" x1="116" x2="663" y1="558.5469" y2="558.5469"/><text fill="#000000" font-family="sans-serif" font-size="13" lengthAdjust="spacing" textLength="5" x="385" y="553.8047">r</text><line style="stroke:#A80036;stroke-width:2.0;" x1="655" x2="673" y1="578.8574" y2="596.8574"/><line style="stroke:#A80036;stroke-width:2.0;" x1="655" x2="673" y1="596.8574" y2="578.8574"/><polygon fill="#181818" points="11,597.8574,1,601.8574,11,605.8574,7,601.8574" style="stroke:#181818;stroke-width:1.0;"/><line style="stroke:#181818;stroke-width:1.0;stroke-dasharray:2.0,2.0;" x1="5" x2="105" y1="601.8574" y2="601.8574"/><!--SRC=[ZLJBJiCm4BplLnXEvL0ahX52Wa8HKgfMm06eK6NifLWaTcGxFFwUD4qhln9wQzSxCvkPjO-4P4NDaHZxM-1fLPS5c4yXAwffIIwrLjzJ9Ut3vfHK1HKIu4tza5oj1IFv_FPkifhCy_dzwl4C6f0LJ5HKMdASjIqpAkaQzJ6XXhW55nhWBZdNQCoLKfyBgaq7Zge335CX-KIL9PNSOOYg_GpCfGZ1_J2TTIttQEh2ja2lua6neMgitFevKnmBCfjVt-GzVbRP0hLHykdvPQ6H2qOjjWfnsUK9h6brMbYak1zeERxmiye8_Y2hBOxU6njEW38hlZOwRXU0XsauuiWoKcr-T9w4R54_0DEuEOcYWvYx4OpRzjpn4SJxa9ePE0wH73R7xiD7LA_h4gKz6Poi- -eusFJCYGN84iNH5orgT9GJ_93W6YUTTMn9ySJ1fMTtxrNc_XjLQO-ytFwVhG-vcw1dJTbmx0cYvOVW7ENh0A6nMlqUk4Jn5VH6IboLyFRvpkuky46cNdIFGqRgYZUjKr5ORBBT1fqBOxrqscQ0BIP8n1sww-jMmtiOGtt_SC_Wby5_MmUK0rouGO7JlGlauPp0G_nM9X4umF9yFFPUJKVAhVy1]--></g></svg>