<?xml version="1.0" encoding="us-ascii" standalone="no"?><svg xmlns="http://www.w3.org/2000/svg" xmlns:xlink="http://www.w3.org/1999/xlink" contentStyleType="text/css" height="645px" preserveAspectRatio="none" style="width:1102px;height:645px;background:#FFFFFF;" version="1.1" viewBox="0 0 1102 645" width="1102px" zoomAndPan="magnify"><defs/><g><rect fill="#C8C8FA" height="626.3066" style="stroke:#181818;stroke-width:0.5;" width="828" x="30" y="6"/><text fill="#FFFFFF" font-family="sans-serif" font-size="13" font-weight="bold" lengthAdjust="spacing" textLength="35" x="424.5" y="20.0283">Logic</text><rect fill="#F97181" height="626.3066" style="stroke:#181818;stroke-width:0.5;" width="236" x="860" y="6"/><text fill="#FFFFFF" font-family="sans-serif" font-size="13" font-weight="bold" lengthAdjust="spacing" textLength="39" x="956.5" y="20.0283">Model</text><rect fill="#FFFFFF" height="526.1035" style="stroke:#181818;stroke-width:1.0;" width="10" x="93" y="94.2031"/><rect fill="#FFFFFF" height="298.0273" style="stroke:#181818;stroke-width:1.0;" width="10" x="249" y="125.4941"/><rect fill="#FFFFFF" height="33.6211" style="stroke:#181818;stroke-width:1.0;" width="10" x="427" y="149.4941"/><rect fill="#FFFFFF" height="146.5332" style="stroke:#181818;stroke-width:1.0;" width="10" x="427" y="214.4063"/><rect fill="#FFFFFF" height="16.3301" style="stroke:#181818;stroke-width:1.0;" width="10" x="623.5" y="313.3184"/><rect fill="#FFFFFF" height="134.2031" style="stroke:#181818;stroke-width:1.0;" width="10" x="623.5" y="454.8125"/><rect fill="#FFFFFF" height="33.6211" style="stroke:#181818;stroke-width:1.0;" width="10" x="775.5" y="524.1035"/><rect fill="#FFFFFF" height="16.3301" style="stroke:#181818;stroke-width:1.0;" width="10" x="924.5" y="255.6973"/><rect fill="#FFFFFF" height="14" style="stroke:#181818;stroke-width:1.0;" width="10" x="1043.5" y="486.1035"/><line style="stroke:#181818;stroke-width:0.5;stroke-dasharray:5.0,5.0;" x1="98" x2="98" y1="60.9121" y2="638.3066"/><line style="stroke:#181818;stroke-width:0.5;stroke-dasharray:5.0,5.0;" x1="254" x2="254" y1="60.9121" y2="638.3066"/><line style="stroke:#181818;stroke-width:0.5;stroke-dasharray:5.0,5.0;" x1="432" x2="432" y1="165.3047" y2="638.3066"/><line style="stroke:#181818;stroke-width:0.5;stroke-dasharray:5.0,5.0;" x1="628" x2="628" y1="311.8379" y2="638.3066"/><line style="stroke:#181818;stroke-width:0.5;stroke-dasharray:5.0,5.0;" x1="780" x2="780" y1="539.9141" y2="638.3066"/><line style="stroke:#181818;stroke-width:0.5;stroke-dasharray:5.0,5.0;" x1="929" x2="929" y1="254.2168" y2="638.3066"/><line style="stroke:#181818;stroke-width:0.5;stroke-dasharray:5.0,5.0;" x1="1048" x2="1048" y1="60.9121" y2="638.3066"/><rect fill="#3333C4" height="32.6211" rx="2.5" ry="2.5" style="stroke:#181818;stroke-width:0.5;" width="108" x="44" y="27.291"/><text fill="#FFFFFF" font-family="sans-serif" font-size="14" lengthAdjust="spacing" textLength="94" x="51" y="49.3984">:LogicManager</text><rect fill="#3333C4" height="32.6211" rx="2.5" ry="2.5" style="stroke:#181818;stroke-width:0.5;" width="144" x="182" y="27.291"/><text fill="#FFFFFF" font-family="sans-serif" font-size="14" lengthAdjust="spacing" textLength="130" x="189" y="49.3984">:AddressBookParser</text><rect fill="#9D0012" height="32.6211" rx="2.5" ry="2.5" style="stroke:#181818;stroke-width:0.5;" width="67" x="1015" y="27.291"/><text fill="#FFFFFF" font-family="sans-serif" font-size="14" lengthAdjust="spacing" textLength="53" x="1022" y="49.3984">m:Model</text><rect fill="#FFFFFF" height="526.1035" style="stroke:#181818;stroke-width:1.0;" width="10" x="93" y="94.2031"/><rect fill="#FFFFFF" height="298.0273" style="stroke:#181818;stroke-width:1.0;" width="10" x="249" y="125.4941"/><rect fill="#FFFFFF" height="33.6211" style="stroke:#181818;stroke-width:1.0;" width="10" x="427" y="149.4941"/><rect fill="#FFFFFF" height="146.5332" style="stroke:#181818;stroke-width:1.0;" width="10" x="427" y="214.4063"/><rect fill="#FFFFFF" height="16.3301" style="stroke:#181818;stroke-width:1.0;" width="10" x="623.5" y="313.3184"/><rect fill="#FFFFFF" height="134.2031" style="stroke:#181818;stroke-width:1.0;" width="10" x="623.5" y="454.8125"/><rect fill="#FFFFFF" height="33.6211" style="stroke:#181818;stroke-width:1.0;" width="10" x="775.5" y="524.1035"/><rect fill="#FFFFFF" height="16.3301" style="stroke:#181818;stroke-width:1.0;" width="10" x="924.5" y="255.6973"/><rect fill="#FFFFFF" height="14" style="stroke:#181818;stroke-width:1.0;" width="10" x="1043.5" y="486.1035"/><polygon fill="#181818" points="81,90.2031,91,94.2031,81,98.2031,85,94.2031" style="stroke:#181818;stroke-width:1.0;"/><line style="stroke:#181818;stroke-width:1.0;" x1="0" x2="87" y1="94.2031" y2="94.2031"/><text fill="#000000" font-family="sans-serif" font-size="13" lengthAdjust="spacing" textLength="74" x="9.5" y="88.9404">execute(find)</text><polygon fill="#181818" points="237,121.4941,247,125.4941,237,129.4941,241,125.4941" style="stroke:#181818;stroke-width:1.0;"/><line style="stroke:#181818;stroke-width:1.0;" x1="103" x2="243" y1="125.4941" y2="125.4941"/><text fill="#000000" font-family="sans-serif" font-size="13" lengthAdjust="spacing" textLength="119" x="116.5" y="120.2314">parseCommand(find)</text><polygon fill="#181818" points="344,135.4941,354,139.4941,344,143.4941,348,139.4941" style="stroke:#181818;stroke-width:1.0;"/><line style="stroke:#181818;stroke-width:1.0;" x1="259" x2="350" y1="139.4941" y2="139.4941"/><rect fill="#3333C4" height="32.6211" rx="2.5" ry="2.5" style="stroke:#181818;stroke-width:0.5;" width="152" x="356" y="133.4941"/><text fill="#FFFFFF" font-family="sans-serif" font-size="14" lengthAdjust="spacing" textLength="138" x="363" y="155.6016">:FindCommandParser</text><polygon fill="#181818" points="270,179.1152,260,183.1152,270,187.1152,266,183.1152" style="stroke:#181818;stroke-width:1.0;"/><line style="stroke:#181818;stroke-width:1.0;" x1="264" x2="431" y1="183.1152" y2="183.1152"/><polygon fill="#181818" points="415,210.4063,425,214.4063,415,218.4063,419,214.4063" style="stroke:#181818;stroke-width:1.0;"/><line style="stroke:#181818;stroke-width:1.0;" x1="259" x2="421" y1="214.4063" y2="214.4063"/><text fill="#000000" font-family="sans-serif" font-size="13" lengthAdjust="spacing" textLength="94" x="296" y="209.1436">parse(argument)</text><polygon fill="#181818" points="862,241.6973,872,245.6973,862,249.6973,866,245.6973" style="stroke:#181818;stroke-width:1.0;"/><line style="stroke:#181818;stroke-width:1.0;" x1="437" x2="868" y1="245.6973" y2="245.6973"/><text fill="#000000" font-family="sans-serif" font-size="13" lengthAdjust="spacing" textLength="115" x="598" y="240.4346">XYZPredicate(value)</text><rect fill="#9D0012" height="32.6211" rx="2.5" ry="2.5" style="stroke:#181818;stroke-width:0.5;" width="111" x="874" y="222.4063"/><text fill="#FFFFFF" font-family="sans-serif" font-size="14" lengthAdjust="spacing" textLength="97" x="881" y="244.5137">p:XYZPredicate</text><polygon fill="#181818" points="448,268.0273,438,272.0273,448,276.0273,444,272.0273" style="stroke:#181818;stroke-width:1.0;"/><line style="stroke:#181818;stroke-width:1.0;stroke-dasharray:2.0,2.0;" x1="442" x2="928.5" y1="272.0273" y2="272.0273"/><polygon fill="#181818" points="558,299.3184,568,303.3184,558,307.3184,562,303.3184" style="stroke:#181818;stroke-width:1.0;"/><line style="stroke:#181818;stroke-width:1.0;" x1="437" x2="564" y1="303.3184" y2="303.3184"/><text fill="#000000" font-family="sans-serif" font-size="13" lengthAdjust="spacing" textLength="99" x="454" y="298.0557">FindCommand(p)</text><rect fill="#3333C4" height="32.6211" rx="2.5" ry="2.5" style="stroke:#181818;stroke-width:0.5;" width="117" x="570" y="280.0273"/><text fill="#FFFFFF" font-family="sans-serif" font-size="14" lengthAdjust="spacing" textLength="103" x="577" y="302.1348">c:FindCommand</text><polygon fill="#181818" points="448,325.6484,438,329.6484,448,333.6484,444,329.6484" style="stroke:#181818;stroke-width:1.0;"/><line style="stroke:#181818;stroke-width:1.0;stroke-dasharray:2.0,2.0;" x1="442" x2="627.5" y1="329.6484" y2="329.6484"/><polygon fill="#181818" points="270,356.9395,260,360.9395,270,364.9395,266,360.9395" style="stroke:#181818;stroke-width:1.0;"/><line style="stroke:#181818;stroke-width:1.0;stroke-dasharray:2.0,2.0;" x1="264" x2="431" y1="360.9395" y2="360.9395"/><text fill="#000000" font-family="sans-serif" font-size="13" lengthAdjust="spacing" textLength="7" x="342" y="355.6768">c</text><line style="stroke:#A80036;stroke-width:2.0;" x1="423" x2="441" y1="383.2305" y2="401.2305"/><line style="stroke:#A80036;stroke-width:2.0;" x1="423" x2="441" y1="401.2305" y2="383.2305"/><polygon fill="#181818" points="114,419.5215,104,423.5215,114,427.5215,110,423.5215" style="stroke:#181818;stroke-width:1.0;"/><line style="stroke:#181818;stroke-width:1.0;stroke-dasharray:2.0,2.0;" x1="108" x2="253" y1="423.5215" y2="423.5215"/><text fill="#000000" font-family="sans-serif" font-size="13" lengthAdjust="spacing" textLength="7" x="175" y="418.2588">c</text><polygon fill="#181818" points="611.5,450.8125,621.5,454.8125,611.5,458.8125,615.5,454.8125" style="stroke:#181818;stroke-width:1.0;"/><line style="stroke:#181818;stroke-width:1.0;" x1="103" x2="617.5" y1="454.8125" y2="454.8125"/><text fill="#000000" font-family="sans-serif" font-size="13" lengthAdjust="spacing" textLength="65" x="330.75" y="449.5498">execute(m)</text><polygon fill="#181818" points="1031.5,482.1035,1041.5,486.1035,1031.5,490.1035,1035.5,486.1035" style="stroke:#181818;stroke-width:1.0;"/><line style="stroke:#181818;stroke-width:1.0;" x1="633.5" x2="1037.5" y1="486.1035" y2="486.1035"/><text fill="#000000" font-family="sans-serif" font-size="13" lengthAdjust="spacing" textLength="159" x="759" y="480.8408">updateFilteredPersonList(p)</text><polygon fill="#181818" points="644.5,496.1035,634.5,500.1035,644.5,504.1035,640.5,500.1035" style="stroke:#181818;stroke-width:1.0;"/><line style="stroke:#181818;stroke-width:1.0;stroke-dasharray:2.0,2.0;" x1="638.5" x2="1047.5" y1="500.1035" y2="500.1035"/><polygon fill="#181818" points="705,510.1035,715,514.1035,705,518.1035,709,514.1035" style="stroke:#181818;stroke-width:1.0;"/><line style="stroke:#181818;stroke-width:1.0;" x1="633.5" x2="711" y1="514.1035" y2="514.1035"/><rect fill="#3333C4" height="32.6211" rx="2.5" ry="2.5" style="stroke:#181818;stroke-width:0.5;" width="127" x="717" y="508.1035"/><text fill="#FFFFFF" font-family="sans-serif" font-size="14" lengthAdjust="spacing" textLength="113" x="724" y="530.2109">r:CommandResult</text><polygon fill="#181818" points="644.5,553.7246,634.5,557.7246,644.5,561.7246,640.5,557.7246" style="stroke:#181818;stroke-width:1.0;"/><line style="stroke:#181818;stroke-width:1.0;stroke-dasharray:2.0,2.0;" x1="638.5" x2="779.5" y1="557.7246" y2="557.7246"/><polygon fill="#181818" points="114,585.0156,104,589.0156,114,593.0156,110,589.0156" style="stroke:#181818;stroke-width:1.0;"/><line style="stroke:#181818;stroke-width:1.0;stroke-dasharray:2.0,2.0;" x1="108" x2="627.5" y1="589.0156" y2="589.0156"/><text fill="#000000" font-family="sans-serif" font-size="13" lengthAdjust="spacing" textLength="4" x="363.75" y="583.7529">r</text><polygon fill="#181818" points="11,616.3066,1,620.3066,11,624.3066,7,620.3066" style="stroke:#181818;stroke-width:1.0;"/><line style="stroke:#181818;stroke-width:1.0;stroke-dasharray:2.0,2.0;" x1="5" x2="97" y1="620.3066" y2="620.3066"/><text fill="#000000" font-family="sans-serif" font-size="13" lengthAdjust="spacing" textLength="4" x="47" y="615.0439">r</text><line style="stroke:#A80036;stroke-width:2.0;" x1="619.5" x2="637.5" y1="611.3066" y2="629.3066"/><line style="stroke:#A80036;stroke-width:2.0;" x1="619.5" x2="637.5" y1="629.3066" y2="611.3066"/><!--SRC=[ZLHDJyCm3BtdLmHEup0ahX52Wi4GKgTDWmCm8HGICwArIPMaVFnxkj9DSTAMtLh7x_d5pywHqYAl953dVt8uBQiY9swZTCajB-YbjUPhQhI_tvxICkTA4_9clcbcrahGR7vxDtcTpBFvylNXZDGWhuGgkVRqc3KfCwxv6kmnvOw6WH0QuIwbjE3SbJ6R1RUk1IVH0OQfqd9YYe9h6J0aqNu64LB4u7wOPMtA4boL-mQ88WWADLNTohz-peo4dCxcrpTPJpzBzlZqlB0WbU0U6kum468ni60DUOD8oknLhCONs216uHj4vM7qNj_zX73XrUUsK9X52CBK7AbFZ9RRZxOHCLkIJuYmi3r9_28fTrqmJTjpfqSa7O8kpKJ24CbXEdON7t6xhWhG_cHGMNlhqDDkjSXrXdv7dpol8AY3s0X2ZZjx5rmSOrDJkjM5YyB2lr7PVN_aoV-g-f0x1JqZA8OjxI1QVIWfGRyC43flpS-10vAk5vBKiGRnPk7ExfQpEAYh5-tcCrgLiawTgjn3RUu2h3CwKyuZUvfaGlumaIMXwZQldGtqrCNryU6U0OS9VYq7AaUuU8IYLlTFqEfyF1vAHezTX-E_]--></g></svg>