<?xml version="1.0" encoding="us-ascii" standalone="no"?><svg xmlns="http://www.w3.org/2000/svg" xmlns:xlink="http://www.w3.org/1999/xlink" contentStyleType="text/css" height="624px" preserveAspectRatio="none" style="width:1153px;height:624px;background:#FFFFFF;" version="1.1" viewBox="0 0 1153 624" width="1153px" zoomAndPan="magnify"><defs/><g><rect fill="#C8C8FA" height="605.9375" style="stroke:#181818;stroke-width:0.5;" width="910.5" x="128" y="6"/><text fill="#FFFFFF" font-family="sans-serif" font-size="13" font-weight="bold" lengthAdjust="spacing" textLength="35" x="563.75" y="20.0283">Logic</text><rect fill="#F97181" height="605.9375" style="stroke:#181818;stroke-width:0.5;" width="100" x="1040.5" y="6"/><text fill="#FFFFFF" font-family="sans-serif" font-size="13" font-weight="bold" lengthAdjust="spacing" textLength="39" x="1069" y="20.0283">Model</text><rect fill="#FFFFFF" height="496.1133" style="stroke:#181818;stroke-width:1.0;" width="10" x="191" y="112.8242"/><rect fill="#FFFFFF" height="441.8223" style="stroke:#181818;stroke-width:1.0;" width="10" x="437" y="144.1152"/><rect fill="#FFFFFF" height="33.6211" style="stroke:#181818;stroke-width:1.0;" width="10" x="625.5" y="168.1152"/><rect fill="#FFFFFF" height="307.6191" style="stroke:#181818;stroke-width:1.0;" width="10" x="625.5" y="233.0273"/><rect fill="#FFFFFF" height="163.125" style="stroke:#181818;stroke-width:1.0;" width="10" x="779.5" y="264.3184"/><rect fill="#FFFFFF" height="33.6211" style="stroke:#181818;stroke-width:1.0;" width="10" x="950.5" y="475.7344"/><rect fill="#FFFFFF" height="16.3301" style="stroke:#181818;stroke-width:1.0;" width="10" x="1085.5" y="331.9004"/><rect fill="#FFFFFF" height="156.125" style="stroke:#000000;stroke-width:1.5;" width="622.5" x="524" y="279.3184"/><rect fill="#FFFFFF" height="47.9219" style="stroke:none;stroke-width:1.0;" width="622.5" x="524" y="387.5215"/><line style="stroke:#181818;stroke-width:0.5;stroke-dasharray:5.0,5.0;" x1="196" x2="196" y1="79.5332" y2="617.9375"/><line style="stroke:#181818;stroke-width:0.5;stroke-dasharray:5.0,5.0;" x1="442" x2="442" y1="79.5332" y2="617.9375"/><line style="stroke:#181818;stroke-width:0.5;stroke-dasharray:5.0,5.0;" x1="630" x2="630" y1="183.9258" y2="617.9375"/><line style="stroke:#181818;stroke-width:0.5;stroke-dasharray:5.0,5.0;" x1="784" x2="784" y1="79.5332" y2="617.9375"/><line style="stroke:#181818;stroke-width:0.5;stroke-dasharray:5.0,5.0;" x1="955.5" x2="955.5" y1="474.2539" y2="617.9375"/><line style="stroke:#181818;stroke-width:0.5;stroke-dasharray:5.0,5.0;" x1="1090.5" x2="1090.5" y1="330.4199" y2="617.9375"/><rect fill="#3333C4" height="32.6211" rx="2.5" ry="2.5" style="stroke:#181818;stroke-width:0.5;" width="108" x="142" y="45.9121"/><text fill="#FFFFFF" font-family="sans-serif" font-size="14" lengthAdjust="spacing" textLength="94" x="149" y="68.0195">:LogicManager</text><rect fill="#3333C4" height="32.6211" rx="2.5" ry="2.5" style="stroke:#181818;stroke-width:0.5;" width="144" x="370" y="45.9121"/><text fill="#FFFFFF" font-family="sans-serif" font-size="14" lengthAdjust="spacing" textLength="130" x="377" y="68.0195">:AddressBookParser</text><rect fill="#3333C4" height="51.2422" rx="2.5" ry="2.5" style="stroke:#181818;stroke-width:0.5;" width="75" x="747" y="27.291"/><text fill="#FFFFFF" font-family="sans-serif" font-size="14" font-style="italic" lengthAdjust="spacing" textLength="48" x="760.5" y="49.3984">&#171;class&#187;</text><text fill="#FFFFFF" font-family="sans-serif" font-size="14" lengthAdjust="spacing" textLength="61" x="754" y="68.0195">ParserUtil</text><rect fill="#FFFFFF" height="496.1133" style="stroke:#181818;stroke-width:1.0;" width="10" x="191" y="112.8242"/><rect fill="#FFFFFF" height="441.8223" style="stroke:#181818;stroke-width:1.0;" width="10" x="437" y="144.1152"/><rect fill="#FFFFFF" height="33.6211" style="stroke:#181818;stroke-width:1.0;" width="10" x="625.5" y="168.1152"/><rect fill="#FFFFFF" height="307.6191" style="stroke:#181818;stroke-width:1.0;" width="10" x="625.5" y="233.0273"/><rect fill="#FFFFFF" height="163.125" style="stroke:#181818;stroke-width:1.0;" width="10" x="779.5" y="264.3184"/><rect fill="#FFFFFF" height="33.6211" style="stroke:#181818;stroke-width:1.0;" width="10" x="950.5" y="475.7344"/><rect fill="#FFFFFF" height="16.3301" style="stroke:#181818;stroke-width:1.0;" width="10" x="1085.5" y="331.9004"/><polygon fill="#181818" points="179,108.8242,189,112.8242,179,116.8242,183,112.8242" style="stroke:#181818;stroke-width:1.0;"/><line style="stroke:#181818;stroke-width:1.0;" x1="0" x2="185" y1="112.8242" y2="112.8242"/><text fill="#000000" font-family="sans-serif" font-size="13" lengthAdjust="spacing" textLength="172" x="9.5" y="107.5615">execute("remark 1 r/" + value)</text><polygon fill="#181818" points="425,140.1152,435,144.1152,425,148.1152,429,144.1152" style="stroke:#181818;stroke-width:1.0;"/><line style="stroke:#181818;stroke-width:1.0;" x1="201" x2="431" y1="144.1152" y2="144.1152"/><text fill="#000000" font-family="sans-serif" font-size="13" lengthAdjust="spacing" textLength="217" x="210.5" y="138.8525">parseCommand("remark 1 r/" + value)</text><polygon fill="#181818" points="532,154.1152,542,158.1152,532,162.1152,536,158.1152" style="stroke:#181818;stroke-width:1.0;"/><line style="stroke:#181818;stroke-width:1.0;" x1="447" x2="538" y1="158.1152" y2="158.1152"/><rect fill="#3333C4" height="32.6211" rx="2.5" ry="2.5" style="stroke:#181818;stroke-width:0.5;" width="173" x="544" y="152.1152"/><text fill="#FFFFFF" font-family="sans-serif" font-size="14" lengthAdjust="spacing" textLength="159" x="551" y="174.2227">:RemarkCommandParser</text><polygon fill="#181818" points="458,197.7363,448,201.7363,458,205.7363,454,201.7363" style="stroke:#181818;stroke-width:1.0;"/><line style="stroke:#181818;stroke-width:1.0;stroke-dasharray:2.0,2.0;" x1="452" x2="629.5" y1="201.7363" y2="201.7363"/><polygon fill="#181818" points="613.5,229.0273,623.5,233.0273,613.5,237.0273,617.5,233.0273" style="stroke:#181818;stroke-width:1.0;"/><line style="stroke:#181818;stroke-width:1.0;" x1="447" x2="619.5" y1="233.0273" y2="233.0273"/><text fill="#000000" font-family="sans-serif" font-size="13" lengthAdjust="spacing" textLength="114" x="479.25" y="227.7646">parse("1 r/" + value)</text><polygon fill="#181818" points="767.5,260.3184,777.5,264.3184,767.5,268.3184,771.5,264.3184" style="stroke:#181818;stroke-width:1.0;"/><line style="stroke:#181818;stroke-width:1.0;" x1="635.5" x2="773.5" y1="264.3184" y2="264.3184"/><text fill="#000000" font-family="sans-serif" font-size="13" lengthAdjust="spacing" textLength="114" x="650.5" y="259.0557">parseRemark(value)</text><path d="M524,279.3184 L585,279.3184 L585,288.6094 L575,298.6094 L524,298.6094 L524,279.3184 " fill="#EEEEEE" style="stroke:#000000;stroke-width:1.5;"/><rect fill="none" height="156.125" style="stroke:#000000;stroke-width:1.5;" width="622.5" x="524" y="279.3184"/><text fill="#000000" font-family="sans-serif" font-size="13" font-weight="bold" lengthAdjust="spacing" textLength="16" x="539" y="294.3467">alt</text><text fill="#000000" font-family="sans-serif" font-size="11" font-weight="bold" lengthAdjust="spacing" textLength="104" x="600" y="293.1885">[value is not blank]</text><polygon fill="#181818" points="1042.5,317.9004,1052.5,321.9004,1042.5,325.9004,1046.5,321.9004" style="stroke:#181818;stroke-width:1.0;"/><line style="stroke:#181818;stroke-width:1.0;" x1="789.5" x2="1048.5" y1="321.9004" y2="321.9004"/><text fill="#000000" font-family="sans-serif" font-size="13" lengthAdjust="spacing" textLength="109" x="867.5" y="316.6377">new Remark(value)</text><rect fill="#9D0012" height="32.6211" rx="2.5" ry="2.5" style="stroke:#181818;stroke-width:0.5;" width="72" x="1054.5" y="298.6094"/><text fill="#FFFFFF" font-family="sans-serif" font-size="14" lengthAdjust="spacing" textLength="58" x="1061.5" y="320.7168">r:Remark</text><polygon fill="#181818" points="800.5,344.2305,790.5,348.2305,800.5,352.2305,796.5,348.2305" style="stroke:#181818;stroke-width:1.0;"/><line style="stroke:#181818;stroke-width:1.0;stroke-dasharray:2.0,2.0;" x1="794.5" x2="1089.5" y1="348.2305" y2="348.2305"/><polygon fill="#181818" points="646.5,375.5215,636.5,379.5215,646.5,383.5215,642.5,379.5215" style="stroke:#181818;stroke-width:1.0;"/><line style="stroke:#181818;stroke-width:1.0;stroke-dasharray:2.0,2.0;" x1="640.5" x2="778.5" y1="379.5215" y2="379.5215"/><text fill="#000000" font-family="sans-serif" font-size="13" lengthAdjust="spacing" textLength="74" x="670.5" y="374.2588">Optional.of(r)</text><line style="stroke:#000000;stroke-width:1.0;stroke-dasharray:2.0,2.0;" x1="524" x2="1146.5" y1="388.5215" y2="388.5215"/><text fill="#000000" font-family="sans-serif" font-size="11" font-weight="bold" lengthAdjust="spacing" textLength="83" x="529" y="400.3916">[value is blank]</text><polygon fill="#181818" points="646.5,423.4434,636.5,427.4434,646.5,431.4434,642.5,427.4434" style="stroke:#181818;stroke-width:1.0;"/><line style="stroke:#181818;stroke-width:1.0;stroke-dasharray:2.0,2.0;" x1="640.5" x2="783.5" y1="427.4434" y2="427.4434"/><text fill="#000000" font-family="sans-serif" font-size="13" lengthAdjust="spacing" textLength="98" x="661" y="422.1807">Optional.Empty()</text><polygon fill="#181818" points="874.5,461.7344,884.5,465.7344,874.5,469.7344,878.5,465.7344" style="stroke:#181818;stroke-width:1.0;"/><line style="stroke:#181818;stroke-width:1.0;" x1="635.5" x2="880.5" y1="465.7344" y2="465.7344"/><text fill="#000000" font-family="sans-serif" font-size="13" lengthAdjust="spacing" textLength="217" x="652.5" y="460.4717">RemarkCommand(1, optionalRemark)</text><rect fill="#3333C4" height="32.6211" rx="2.5" ry="2.5" style="stroke:#181818;stroke-width:0.5;" width="138" x="886.5" y="442.4434"/><text fill="#FFFFFF" font-family="sans-serif" font-size="14" lengthAdjust="spacing" textLength="124" x="893.5" y="464.5508">c:RemarkCommand</text><polygon fill="#181818" points="646.5,505.3555,636.5,509.3555,646.5,513.3555,642.5,509.3555" style="stroke:#181818;stroke-width:1.0;"/><line style="stroke:#181818;stroke-width:1.0;stroke-dasharray:2.0,2.0;" x1="640.5" x2="954.5" y1="509.3555" y2="509.3555"/><text fill="#000000" font-family="sans-serif" font-size="13" lengthAdjust="spacing" textLength="7" x="792" y="504.0928">c</text><polygon fill="#181818" points="458,536.6465,448,540.6465,458,544.6465,454,540.6465" style="stroke:#181818;stroke-width:1.0;"/><line style="stroke:#181818;stroke-width:1.0;stroke-dasharray:2.0,2.0;" x1="452" x2="629.5" y1="540.6465" y2="540.6465"/><text fill="#000000" font-family="sans-serif" font-size="13" lengthAdjust="spacing" textLength="7" x="535.25" y="535.3838">c</text><polygon fill="#181818" points="212,581.9375,202,585.9375,212,589.9375,208,585.9375" style="stroke:#181818;stroke-width:1.0;"/><line style="stroke:#181818;stroke-width:1.0;stroke-dasharray:2.0,2.0;" x1="206" x2="441" y1="585.9375" y2="585.9375"/><text fill="#000000" font-family="sans-serif" font-size="13" lengthAdjust="spacing" textLength="7" x="318" y="580.6748">c</text><line style="stroke:#A80036;stroke-width:2.0;" x1="621.5" x2="639.5" y1="576.9375" y2="594.9375"/><line style="stroke:#A80036;stroke-width:2.0;" x1="621.5" x2="639.5" y1="594.9375" y2="576.9375"/><!--SRC=[bLHHJzim47w_Nt7BKwe1Kr-hgX9qC4rgbObjJmWXuzp0gcD7jWlqtozj0h4REy1RxBllky_VtUMBK5nkIqBhTfBEwcqbmMw4gfbX5PuRev-lj7A_zr6i9HCAu5w_u4e_28whuiVFvTsoM1NNTt-cq82SuA9coc4sEwIicM8FP39a5lqB7tg4EozBGzPUQBtvnOpjm8FR4OPhgfZPB7LLCLLw797xD4iR_-k4F63x8yxdN39h5uiqc8SQXjK3A3NdnjJMsRKkIUAw-7wvIZXhEdAFrS_lwMvE5w7fCwGNubj7UMPQt1JDjmo_uXEJMve0uquyCKS1320WQKY7pPXXlV_eNlSk_O00W1lQHo8zWc6vHaCiyOq_5eHO-qzZhu6Infa-AkZLbZnB6V5neGj_13lUDZ4_9kqJ0PXqRL4K5fLsU2-PseHkWyVyzf2cXg9dJ9JeW9tKWurUrO5_GOMaLqNjX5PCdkb_kPa0aBJKYs-5VuxeighTBf_uWZoPpQB4voxLWN25P-4vdvwWxWgtWLIVZpeyyX2U7CLFZFCep-ZCtJoAiYHr6rsIs1OCVpX1vTYcMMVqBge9vxs08VG_]--></g></svg>