<?xml version="1.0" encoding="us-ascii" standalone="no"?><svg xmlns="http://www.w3.org/2000/svg" xmlns:xlink="http://www.w3.org/1999/xlink" contentStyleType="text/css" height="817px" preserveAspectRatio="none" style="width:1420px;height:817px;background:#FFFFFF;" version="1.1" viewBox="0 0 1420 817" width="1420px" zoomAndPan="magnify"><defs/><g><rect fill="#C8C8FA" height="798.0918" style="stroke:#181818;stroke-width:0.5;" width="1157.5" x="62" y="6"/><text fill="#FFFFFF" font-family="sans-serif" font-size="13" font-weight="bold" lengthAdjust="spacing" textLength="35" x="621.25" y="20.0283">Logic</text><rect fill="#F97181" height="798.0918" style="stroke:#181818;stroke-width:0.5;" width="193" x="1221.5" y="6"/><text fill="#FFFFFF" font-family="sans-serif" font-size="13" font-weight="bold" lengthAdjust="spacing" textLength="39" x="1296.5" y="20.0283">Model</text><rect fill="#FFFFFF" height="679.2676" style="stroke:#181818;stroke-width:1.0;" width="10" x="125" y="112.8242"/><rect fill="#FFFFFF" height="298.0273" style="stroke:#181818;stroke-width:1.0;" width="10" x="305" y="144.1152"/><rect fill="#FFFFFF" height="33.6211" style="stroke:#181818;stroke-width:1.0;" width="10" x="498.5" y="168.1152"/><rect fill="#FFFFFF" height="146.5332" style="stroke:#181818;stroke-width:1.0;" width="10" x="498.5" y="233.0273"/><rect fill="#FFFFFF" height="33.6211" style="stroke:#181818;stroke-width:1.0;" width="10" x="694" y="314.6484"/><rect fill="#FFFFFF" height="287.3672" style="stroke:#181818;stroke-width:1.0;" width="10" x="694" y="473.4336"/><rect fill="#FFFFFF" height="31.291" style="stroke:#181818;stroke-width:1.0;" width="10" x="975" y="550.0156"/><rect fill="#FFFFFF" height="33.6211" style="stroke:#181818;stroke-width:1.0;" width="10" x="1137" y="695.8887"/><rect fill="#FFFFFF" height="14" style="stroke:#181818;stroke-width:1.0;" width="10" x="1264" y="504.7246"/><rect fill="#FFFFFF" height="14" style="stroke:#181818;stroke-width:1.0;" width="10" x="1264" y="612.5977"/><rect fill="#FFFFFF" height="14" style="stroke:#181818;stroke-width:1.0;" width="10" x="1264" y="657.8887"/><rect fill="#FFFFFF" height="33.6211" style="stroke:#181818;stroke-width:1.0;" width="10" x="1361.5" y="257.0273"/><line style="stroke:#181818;stroke-width:0.5;stroke-dasharray:5.0,5.0;" x1="130" x2="130" y1="79.5332" y2="810.0918"/><line style="stroke:#181818;stroke-width:0.5;stroke-dasharray:5.0,5.0;" x1="310" x2="310" y1="79.5332" y2="810.0918"/><line style="stroke:#181818;stroke-width:0.5;stroke-dasharray:5.0,5.0;" x1="503" x2="503" y1="183.9258" y2="810.0918"/><line style="stroke:#181818;stroke-width:0.5;stroke-dasharray:5.0,5.0;" x1="699" x2="699" y1="330.459" y2="810.0918"/><line style="stroke:#181818;stroke-width:0.5;stroke-dasharray:5.0,5.0;" x1="979.5" x2="979.5" y1="79.5332" y2="810.0918"/><line style="stroke:#181818;stroke-width:0.5;stroke-dasharray:5.0,5.0;" x1="1141.5" x2="1141.5" y1="711.6992" y2="810.0918"/><line style="stroke:#181818;stroke-width:0.5;stroke-dasharray:5.0,5.0;" x1="1268.5" x2="1268.5" y1="79.5332" y2="810.0918"/><line style="stroke:#181818;stroke-width:0.5;stroke-dasharray:5.0,5.0;" x1="1366.5" x2="1366.5" y1="272.8379" y2="810.0918"/><rect fill="#3333C4" height="32.6211" rx="2.5" ry="2.5" style="stroke:#181818;stroke-width:0.5;" width="108" x="76" y="45.9121"/><text fill="#FFFFFF" font-family="sans-serif" font-size="14" lengthAdjust="spacing" textLength="94" x="83" y="68.0195">:LogicManager</text><rect fill="#3333C4" height="32.6211" rx="2.5" ry="2.5" style="stroke:#181818;stroke-width:0.5;" width="144" x="238" y="45.9121"/><text fill="#FFFFFF" font-family="sans-serif" font-size="14" lengthAdjust="spacing" textLength="130" x="245" y="68.0195">:AddressBookParser</text><rect fill="#3333C4" height="51.2422" rx="2.5" ry="2.5" style="stroke:#181818;stroke-width:0.5;" width="137" x="911.5" y="27.291"/><text fill="#FFFFFF" font-family="sans-serif" font-size="14" font-style="italic" lengthAdjust="spacing" textLength="48" x="956" y="49.3984">&#171;class&#187;</text><text fill="#FFFFFF" font-family="sans-serif" font-size="14" lengthAdjust="spacing" textLength="123" x="918.5" y="68.0195">ScheduleCommand</text><rect fill="#9D0012" height="32.6211" rx="2.5" ry="2.5" style="stroke:#181818;stroke-width:0.5;" width="67" x="1235.5" y="45.9121"/><text fill="#FFFFFF" font-family="sans-serif" font-size="14" lengthAdjust="spacing" textLength="53" x="1242.5" y="68.0195">m:Model</text><rect fill="#FFFFFF" height="679.2676" style="stroke:#181818;stroke-width:1.0;" width="10" x="125" y="112.8242"/><rect fill="#FFFFFF" height="298.0273" style="stroke:#181818;stroke-width:1.0;" width="10" x="305" y="144.1152"/><rect fill="#FFFFFF" height="33.6211" style="stroke:#181818;stroke-width:1.0;" width="10" x="498.5" y="168.1152"/><rect fill="#FFFFFF" height="146.5332" style="stroke:#181818;stroke-width:1.0;" width="10" x="498.5" y="233.0273"/><rect fill="#FFFFFF" height="33.6211" style="stroke:#181818;stroke-width:1.0;" width="10" x="694" y="314.6484"/><rect fill="#FFFFFF" height="287.3672" style="stroke:#181818;stroke-width:1.0;" width="10" x="694" y="473.4336"/><rect fill="#FFFFFF" height="31.291" style="stroke:#181818;stroke-width:1.0;" width="10" x="975" y="550.0156"/><rect fill="#FFFFFF" height="33.6211" style="stroke:#181818;stroke-width:1.0;" width="10" x="1137" y="695.8887"/><rect fill="#FFFFFF" height="14" style="stroke:#181818;stroke-width:1.0;" width="10" x="1264" y="504.7246"/><rect fill="#FFFFFF" height="14" style="stroke:#181818;stroke-width:1.0;" width="10" x="1264" y="612.5977"/><rect fill="#FFFFFF" height="14" style="stroke:#181818;stroke-width:1.0;" width="10" x="1264" y="657.8887"/><rect fill="#FFFFFF" height="33.6211" style="stroke:#181818;stroke-width:1.0;" width="10" x="1361.5" y="257.0273"/><polygon fill="#181818" points="113,108.8242,123,112.8242,113,116.8242,117,112.8242" style="stroke:#181818;stroke-width:1.0;"/><line style="stroke:#181818;stroke-width:1.0;" x1="0" x2="119" y1="112.8242" y2="112.8242"/><text fill="#000000" font-family="sans-serif" font-size="13" lengthAdjust="spacing" textLength="106" x="9.5" y="107.5615">execute(schedule)</text><polygon fill="#181818" points="293,140.1152,303,144.1152,293,148.1152,297,144.1152" style="stroke:#181818;stroke-width:1.0;"/><line style="stroke:#181818;stroke-width:1.0;" x1="135" x2="299" y1="144.1152" y2="144.1152"/><text fill="#000000" font-family="sans-serif" font-size="13" lengthAdjust="spacing" textLength="151" x="144.5" y="138.8525">parseCommand(schedule)</text><polygon fill="#181818" points="400,154.1152,410,158.1152,400,162.1152,404,158.1152" style="stroke:#181818;stroke-width:1.0;"/><line style="stroke:#181818;stroke-width:1.0;" x1="315" x2="406" y1="158.1152" y2="158.1152"/><rect fill="#3333C4" height="32.6211" rx="2.5" ry="2.5" style="stroke:#181818;stroke-width:0.5;" width="183" x="412" y="152.1152"/><text fill="#FFFFFF" font-family="sans-serif" font-size="14" lengthAdjust="spacing" textLength="169" x="419" y="174.2227">:ScheduleCommandParser</text><polygon fill="#181818" points="326,197.7363,316,201.7363,326,205.7363,322,201.7363" style="stroke:#181818;stroke-width:1.0;"/><line style="stroke:#181818;stroke-width:1.0;" x1="320" x2="502.5" y1="201.7363" y2="201.7363"/><polygon fill="#181818" points="486.5,229.0273,496.5,233.0273,486.5,237.0273,490.5,233.0273" style="stroke:#181818;stroke-width:1.0;"/><line style="stroke:#181818;stroke-width:1.0;" x1="315" x2="492.5" y1="233.0273" y2="233.0273"/><text fill="#000000" font-family="sans-serif" font-size="13" lengthAdjust="spacing" textLength="101" x="356.25" y="227.7646">parse(arguments)</text><polygon fill="#181818" points="1320.5,243.0273,1330.5,247.0273,1320.5,251.0273,1324.5,247.0273" style="stroke:#181818;stroke-width:1.0;"/><line style="stroke:#181818;stroke-width:1.0;" x1="508.5" x2="1326.5" y1="247.0273" y2="247.0273"/><rect fill="#9D0012" height="32.6211" rx="2.5" ry="2.5" style="stroke:#181818;stroke-width:0.5;" width="68" x="1332.5" y="241.0273"/><text fill="#FFFFFF" font-family="sans-serif" font-size="14" lengthAdjust="spacing" textLength="54" x="1339.5" y="263.1348">:Meeting</text><polygon fill="#181818" points="519.5,286.6484,509.5,290.6484,519.5,294.6484,515.5,290.6484" style="stroke:#181818;stroke-width:1.0;"/><line style="stroke:#181818;stroke-width:1.0;stroke-dasharray:2.0,2.0;" x1="513.5" x2="1365.5" y1="290.6484" y2="290.6484"/><polygon fill="#181818" points="613,300.6484,623,304.6484,613,308.6484,617,304.6484" style="stroke:#181818;stroke-width:1.0;"/><line style="stroke:#181818;stroke-width:1.0;" x1="508.5" x2="619" y1="304.6484" y2="304.6484"/><rect fill="#3333C4" height="32.6211" rx="2.5" ry="2.5" style="stroke:#181818;stroke-width:0.5;" width="148" x="625" y="298.6484"/><text fill="#FFFFFF" font-family="sans-serif" font-size="14" lengthAdjust="spacing" textLength="134" x="632" y="320.7559">s:ScheduleCommand</text><polygon fill="#181818" points="519.5,344.2695,509.5,348.2695,519.5,352.2695,515.5,348.2695" style="stroke:#181818;stroke-width:1.0;"/><line style="stroke:#181818;stroke-width:1.0;stroke-dasharray:2.0,2.0;" x1="513.5" x2="698" y1="348.2695" y2="348.2695"/><polygon fill="#181818" points="326,375.5605,316,379.5605,326,383.5605,322,379.5605" style="stroke:#181818;stroke-width:1.0;"/><line style="stroke:#181818;stroke-width:1.0;stroke-dasharray:2.0,2.0;" x1="320" x2="502.5" y1="379.5605" y2="379.5605"/><text fill="#000000" font-family="sans-serif" font-size="13" lengthAdjust="spacing" textLength="7" x="405.75" y="374.2979">s</text><polygon fill="#181818" points="146,438.1426,136,442.1426,146,446.1426,142,442.1426" style="stroke:#181818;stroke-width:1.0;"/><line style="stroke:#181818;stroke-width:1.0;stroke-dasharray:2.0,2.0;" x1="140" x2="309" y1="442.1426" y2="442.1426"/><text fill="#000000" font-family="sans-serif" font-size="13" lengthAdjust="spacing" textLength="7" x="219" y="436.8799">s</text><line style="stroke:#A80036;stroke-width:2.0;" x1="494.5" x2="512.5" y1="433.1426" y2="451.1426"/><line style="stroke:#A80036;stroke-width:2.0;" x1="494.5" x2="512.5" y1="451.1426" y2="433.1426"/><polygon fill="#181818" points="682,469.4336,692,473.4336,682,477.4336,686,473.4336" style="stroke:#181818;stroke-width:1.0;"/><line style="stroke:#181818;stroke-width:1.0;" x1="135" x2="688" y1="473.4336" y2="473.4336"/><text fill="#000000" font-family="sans-serif" font-size="13" lengthAdjust="spacing" textLength="65" x="382" y="468.1709">execute(m)</text><polygon fill="#181818" points="1252,500.7246,1262,504.7246,1252,508.7246,1256,504.7246" style="stroke:#181818;stroke-width:1.0;"/><line style="stroke:#181818;stroke-width:1.0;" x1="704" x2="1258" y1="504.7246" y2="504.7246"/><text fill="#000000" font-family="sans-serif" font-size="13" lengthAdjust="spacing" textLength="140" x="914" y="499.4619">getFilteredPersonLisAt()</text><polygon fill="#181818" points="715,514.7246,705,518.7246,715,522.7246,711,518.7246" style="stroke:#181818;stroke-width:1.0;"/><line style="stroke:#181818;stroke-width:1.0;stroke-dasharray:2.0,2.0;" x1="709" x2="1268" y1="518.7246" y2="518.7246"/><polygon fill="#181818" points="963,546.0156,973,550.0156,963,554.0156,967,550.0156" style="stroke:#181818;stroke-width:1.0;"/><line style="stroke:#181818;stroke-width:1.0;" x1="704" x2="969" y1="550.0156" y2="550.0156"/><text fill="#000000" font-family="sans-serif" font-size="13" lengthAdjust="spacing" textLength="252" x="713.5" y="544.7529">createEditedPerson(personToEdit, meeting)</text><polygon fill="#181818" points="715,577.3066,705,581.3066,715,585.3066,711,581.3066" style="stroke:#181818;stroke-width:1.0;"/><line style="stroke:#181818;stroke-width:1.0;stroke-dasharray:2.0,2.0;" x1="709" x2="979" y1="581.3066" y2="581.3066"/><text fill="#000000" font-family="sans-serif" font-size="13" lengthAdjust="spacing" textLength="76" x="804" y="576.0439">editedPerson</text><polygon fill="#181818" points="1252,608.5977,1262,612.5977,1252,616.5977,1256,612.5977" style="stroke:#181818;stroke-width:1.0;"/><line style="stroke:#181818;stroke-width:1.0;" x1="704" x2="1258" y1="612.5977" y2="612.5977"/><text fill="#000000" font-family="sans-serif" font-size="13" lengthAdjust="spacing" textLength="227" x="870.5" y="607.335">setPerson(personToEdit, editedPerson)</text><polygon fill="#181818" points="715,622.5977,705,626.5977,715,630.5977,711,626.5977" style="stroke:#181818;stroke-width:1.0;"/><line style="stroke:#181818;stroke-width:1.0;stroke-dasharray:2.0,2.0;" x1="709" x2="1268" y1="626.5977" y2="626.5977"/><polygon fill="#181818" points="1252,653.8887,1262,657.8887,1252,661.8887,1256,657.8887" style="stroke:#181818;stroke-width:1.0;"/><line style="stroke:#181818;stroke-width:1.0;" x1="704" x2="1258" y1="657.8887" y2="657.8887"/><text fill="#000000" font-family="sans-serif" font-size="13" lengthAdjust="spacing" textLength="374" x="797" y="652.626">updateFilteredPersonList(PREDICATE_SHOW_ALL_PERSONS)</text><polygon fill="#181818" points="715,667.8887,705,671.8887,715,675.8887,711,671.8887" style="stroke:#181818;stroke-width:1.0;"/><line style="stroke:#181818;stroke-width:1.0;stroke-dasharray:2.0,2.0;" x1="709" x2="1268" y1="671.8887" y2="671.8887"/><polygon fill="#181818" points="1066.5,681.8887,1076.5,685.8887,1066.5,689.8887,1070.5,685.8887" style="stroke:#181818;stroke-width:1.0;"/><line style="stroke:#181818;stroke-width:1.0;" x1="704" x2="1072.5" y1="685.8887" y2="685.8887"/><rect fill="#3333C4" height="32.6211" rx="2.5" ry="2.5" style="stroke:#181818;stroke-width:0.5;" width="127" x="1078.5" y="679.8887"/><text fill="#FFFFFF" font-family="sans-serif" font-size="14" lengthAdjust="spacing" textLength="113" x="1085.5" y="701.9961">r:CommandResult</text><polygon fill="#181818" points="715,725.5098,705,729.5098,715,733.5098,711,729.5098" style="stroke:#181818;stroke-width:1.0;"/><line style="stroke:#181818;stroke-width:1.0;stroke-dasharray:2.0,2.0;" x1="709" x2="1141" y1="729.5098" y2="729.5098"/><polygon fill="#181818" points="146,756.8008,136,760.8008,146,764.8008,142,760.8008" style="stroke:#181818;stroke-width:1.0;"/><line style="stroke:#181818;stroke-width:1.0;stroke-dasharray:2.0,2.0;" x1="140" x2="698" y1="760.8008" y2="760.8008"/><text fill="#000000" font-family="sans-serif" font-size="13" lengthAdjust="spacing" textLength="4" x="415" y="755.5381">r</text><polygon fill="#181818" points="11,788.0918,1,792.0918,11,796.0918,7,792.0918" style="stroke:#181818;stroke-width:1.0;"/><line style="stroke:#181818;stroke-width:1.0;stroke-dasharray:2.0,2.0;" x1="5" x2="129" y1="792.0918" y2="792.0918"/><text fill="#000000" font-family="sans-serif" font-size="13" lengthAdjust="spacing" textLength="4" x="63" y="786.8291">r</text><line style="stroke:#A80036;stroke-width:2.0;" x1="690" x2="708" y1="783.0918" y2="801.0918"/><line style="stroke:#A80036;stroke-width:2.0;" x1="690" x2="708" y1="801.0918" y2="783.0918"/><!--SRC=[hLLDZvim4BtxLxXx8bAfr2kA8gNPRBiIAL68r4DK8HUFM6l1HhPfT_zz2Hyf1ZkasZs1nk-zUPuPsnyOJ_EA0bRwDOTFPLNaI3qpNX992hoMKlnv45p7vrLSveHnX7w95noAZAKuZBu-Rf9D54Q7vFWPrIJDKbOIhl5Tq41sX9CCv1qc2Wy3G-g8jwPKWb9VX7ZU4wawyYHwHI5Edu1MEMn4KH1E1ohM5RUI6alPHDpq6yYn9ZKUBvTfJfHQhTnYCkWe1r1LhXin8s9GeVPLzwbjravGoF4kkj-6ZcOLGODfH2VeKNLt09hnhCMs_mRwalhahyoU1nXU8AqqUAghmWAHLBFVH8E1HCZWrJhJzWUuFFzq9R0fJZW8fHBEAzOnGDCSTM8xz9B3lepiSsRR1w8m9tQxhxue7f5PLG3NQZ5hjIj9rqctynvmqUi3g1y2trckmHulB7ihtFd7GDU-9iM_pTUSIc_4COjgleyEmTCJenJuJwUmhV_JasKOi4sPqbAykePWVDp69VntSel5_rH-rTqc0Sv0Fx1SWmIw1wa43vbQQs-WrY3hQMe8bfuPKzHYBVdizsk0st7RKgPx0rxPV8xY7Fo8YtOmtTjhfIP9kmo-lMg3V5Scn24zh9y2RRKzpF3knUoJLoMjWPF-QMz_sDu_RjR7RH9_Ytuawp1Czjj377sFt-QbknoCzyrcq0HSLCmmCf_96GSZhkqo6Hszw_V8QUdxrmZ6k-Sufdy1]--></g></svg>