<?xml version="1.0" encoding="us-ascii" standalone="no"?><svg xmlns="http://www.w3.org/2000/svg" xmlns:xlink="http://www.w3.org/1999/xlink" contentStyleType="text/css" height="621px" preserveAspectRatio="none" style="width:1074px;height:621px;background:#FFFFFF;" version="1.1" viewBox="0 0 1074 621" width="1074px" zoomAndPan="magnify"><defs/><g><!--cluster UI--><g id="cluster_UI"><rect fill="#FFFFFF" height="558.5" rx="2.5" ry="2.5" style="stroke:#181818;stroke-width:1.0;" width="872" x="7" y="57"/><text fill="#000000" font-family="sans-serif" font-size="14" font-weight="bold" lengthAdjust="spacing" textLength="14" x="436" y="74.1074">UI</text></g><!--cluster Model--><g id="cluster_Model"><rect fill="#FFFFFF" height="96" rx="2.5" ry="2.5" style="stroke:#181818;stroke-width:1.0;" width="157" x="911" y="519"/><text fill="#000000" font-family="sans-serif" font-size="14" font-weight="bold" lengthAdjust="spacing" textLength="44" x="967.5" y="536.1074">Model</text></g><!--cluster Logic--><g id="cluster_Logic"><rect fill="#FFFFFF" height="96" rx="2.5" ry="2.5" style="stroke:#181818;stroke-width:1.0;" width="153" x="911" y="162"/><text fill="#000000" font-family="sans-serif" font-size="14" font-weight="bold" lengthAdjust="spacing" textLength="38" x="968.5" y="179.1074">Logic</text></g><!--class Ui--><g id="elem_Ui"><rect codeLine="7" fill="#1D8900" height="43.5156" id="Ui" rx="2.5" ry="2.5" style="stroke:#FFFFFF;stroke-width:1.0;" width="78" x="542" y="94"/><text fill="#FFFFFF" font-family="Arial" font-size="15" lengthAdjust="spacing" textLength="72" x="545" y="112.5791">&#171;interface&#187;</text><text fill="#FFFFFF" font-family="Arial" font-size="15" lengthAdjust="spacing" textLength="13" x="574.5" y="129.3369">Ui</text></g><!--class UiPart--><g id="elem_UiPart"><rect codeLine="8" fill="#1D8900" height="43.5156" id="UiPart" rx="2.5" ry="2.5" style="stroke:#FFFFFF;stroke-width:1.0;" width="69" x="527.5" y="555.5"/><text fill="#FFFFFF" font-family="Arial" font-size="15" lengthAdjust="spacing" textLength="63" x="530.5" y="574.0791">{abstract}</text><text fill="#FFFFFF" font-family="Arial" font-size="15" lengthAdjust="spacing" textLength="40" x="542" y="590.8369">UiPart</text></g><!--class UiManager--><g id="elem_UiManager"><rect codeLine="9" fill="#1D8900" height="26.7578" id="UiManager" rx="2.5" ry="2.5" style="stroke:#FFFFFF;stroke-width:1.0;" width="75" x="655.5" y="102.5"/><text fill="#FFFFFF" font-family="Arial" font-size="15" lengthAdjust="spacing" textLength="69" x="658.5" y="121.0791">UiManager</text></g><!--class MainWindow--><g id="elem_MainWindow"><rect codeLine="10" fill="#1D8900" height="26.7578" id="MainWindow" rx="2.5" ry="2.5" style="stroke:#FFFFFF;stroke-width:1.0;" width="89" x="517.5" y="207"/><text fill="#FFFFFF" font-family="Arial" font-size="15" lengthAdjust="spacing" textLength="83" x="520.5" y="225.5791">MainWindow</text></g><!--class HelpWindow--><g id="elem_HelpWindow"><rect codeLine="11" fill="#1D8900" height="26.7578" id="HelpWindow" rx="2.5" ry="2.5" style="stroke:#FFFFFF;stroke-width:1.0;" width="88" x="438" y="294"/><text fill="#FFFFFF" font-family="Arial" font-size="15" lengthAdjust="spacing" textLength="82" x="441" y="312.5791">HelpWindow</text></g><!--class ResultDisplay--><g id="elem_ResultDisplay"><rect codeLine="12" fill="#1D8900" height="26.7578" id="ResultDisplay" rx="2.5" ry="2.5" style="stroke:#FFFFFF;stroke-width:1.0;" width="96" x="172" y="294"/><text fill="#FFFFFF" font-family="Arial" font-size="15" lengthAdjust="spacing" textLength="90" x="175" y="312.5791">ResultDisplay</text></g><!--class PersonListPanel--><g id="elem_PersonListPanel"><rect codeLine="13" fill="#1D8900" height="26.7578" id="PersonListPanel" rx="2.5" ry="2.5" style="stroke:#FFFFFF;stroke-width:1.0;" width="113" x="598.5" y="294"/><text fill="#FFFFFF" font-family="Arial" font-size="15" lengthAdjust="spacing" textLength="107" x="601.5" y="312.5791">PersonListPanel</text></g><!--class PersonCard--><g id="elem_PersonCard"><rect codeLine="14" fill="#1D8900" height="26.7578" id="PersonCard" rx="2.5" ry="2.5" style="stroke:#FFFFFF;stroke-width:1.0;" width="85" x="765.5" y="468"/><text fill="#FFFFFF" font-family="Arial" font-size="15" lengthAdjust="spacing" textLength="79" x="768.5" y="486.5791">PersonCard</text></g><!--class MeetingListPanel--><g id="elem_MeetingListPanel"><rect codeLine="15" fill="#1D8900" height="26.7578" id="MeetingListPanel" rx="2.5" ry="2.5" style="stroke:#FFFFFF;stroke-width:1.0;" width="116" x="747" y="294"/><text fill="#FFFFFF" font-family="Arial" font-size="15" lengthAdjust="spacing" textLength="110" x="750" y="312.5791">MeetingListPanel</text></g><!--class MeetingCard--><g id="elem_MeetingCard"><rect codeLine="16" fill="#1D8900" height="26.7578" id="MeetingCard" rx="2.5" ry="2.5" style="stroke:#FFFFFF;stroke-width:1.0;" width="88" x="761" y="381"/><text fill="#FFFFFF" font-family="Arial" font-size="15" lengthAdjust="spacing" textLength="82" x="764" y="399.5791">MeetingCard</text></g><!--class StatusBarFooter--><g id="elem_StatusBarFooter"><rect codeLine="17" fill="#1D8900" height="26.7578" id="StatusBarFooter" rx="2.5" ry="2.5" style="stroke:#FFFFFF;stroke-width:1.0;" width="113" x="23.5" y="294"/><text fill="#FFFFFF" font-family="Arial" font-size="15" lengthAdjust="spacing" textLength="107" x="26.5" y="312.5791">StatusBarFooter</text></g><!--class CommandBox--><g id="elem_CommandBox"><rect codeLine="18" fill="#1D8900" height="26.7578" id="CommandBox" rx="2.5" ry="2.5" style="stroke:#FFFFFF;stroke-width:1.0;" width="100" x="303" y="294"/><text fill="#FFFFFF" font-family="Arial" font-size="15" lengthAdjust="spacing" textLength="94" x="306" y="312.5791">CommandBox</text></g><!--class HiddenModel--><g id="elem_HiddenModel"><rect codeLine="22" fill="#FFFFFF" height="26.7578" id="HiddenModel" rx="2.5" ry="2.5" style="stroke:#FFFFFF;stroke-width:1.0;" width="89" x="954.5" y="564"/><text fill="#FFFFFF" font-family="Arial" font-size="15" lengthAdjust="spacing" textLength="83" x="957.5" y="582.5791">HiddenModel</text></g><!--class HiddenLogic--><g id="elem_HiddenLogic"><rect codeLine="26" fill="#FFFFFF" height="26.7578" id="HiddenLogic" rx="2.5" ry="2.5" style="stroke:#FFFFFF;stroke-width:1.0;" width="86" x="954" y="207"/><text fill="#FFFFFF" font-family="Arial" font-size="15" lengthAdjust="spacing" textLength="80" x="957" y="225.5791">HiddenLogic</text></g><!--class HiddenOutside--><g id="elem_HiddenOutside"><rect codeLine="29" fill="#FFFFFF" height="26.7578" id="HiddenOutside" rx="2.5" ry="2.5" style="stroke:#FFFFFF;stroke-width:1.0;" width="102" x="530" y="7"/><text fill="#FFFFFF" font-family="Arial" font-size="15" lengthAdjust="spacing" textLength="96" x="533" y="25.5791">HiddenOutside</text></g><!--link HiddenOutside to Ui--><g id="link_HiddenOutside_Ui"><path codeLine="30" d="M581,34.11 C581,49.36 581,69.28 581,87.66 " fill="none" id="HiddenOutside-to-Ui" style="stroke:#0E4100;stroke-width:1.1;stroke-dasharray:7.0,7.0;"/><polygon fill="#0E4100" points="581,93.66,585,84.66,581,88.66,577,84.66,581,93.66" style="stroke:#0E4100;stroke-width:1.1;"/></g><!--reverse link Ui to UiManager--><g id="link_Ui_UiManager"><path codeLine="32" d="M638.38,116 C650.01,116 643.64,116 655.27,116 " fill="none" id="Ui-backto-UiManager" style="stroke:#0E4100;stroke-width:1.1;stroke-dasharray:7.0,7.0;"/><polygon fill="none" points="620.38,116,638.38,122,638.38,110,620.38,116" style="stroke:#0E4100;stroke-width:1.1;"/></g><!--link UiManager to MainWindow--><g id="link_UiManager_MainWindow"><path codeLine="33" d="M676.94,129.57 C651.79,149.24 608.1455,183.3928 582.9155,203.1328 " fill="none" id="UiManager-to-MainWindow" style="stroke:#0E4100;stroke-width:1.1;"/><polygon fill="#0E4100" points="578.19,206.83,587.7431,204.4345,582.1279,203.749,582.8134,198.1338,578.19,206.83" style="stroke:#0E4100;stroke-width:1.1;"/><text fill="#000000" font-family="sans-serif" font-size="13" font-weight="bold" lengthAdjust="spacing" textLength="7" x="575.8694" y="195.7814">1</text></g><!--link MainWindow to CommandBox--><g id="link_MainWindow_CommandBox"><path codeLine="34" d="M520.0443,238.5611 C480.5343,254.6311 429.0976,275.5488 389.5276,291.6488 " fill="none" id="MainWindow-CommandBox" style="stroke:#0E4100;stroke-width:1.1;"/><polygon fill="#0E4100" points="531.16,234.04,524.0951,232.5953,520.0443,238.5611,527.1092,240.0058,531.16,234.04" style="stroke:#0E4100;stroke-width:1.1;"/><polygon fill="#0E4100" points="383.97,293.91,393.8139,294.2232,388.6013,292.0256,390.7989,286.8131,383.97,293.91" style="stroke:#0E4100;stroke-width:1.1;"/><text fill="#000000" font-family="sans-serif" font-size="13" font-weight="bold" lengthAdjust="spacing" textLength="7" x="387.4429" y="282.6181">1</text></g><!--link MainWindow to ResultDisplay--><g id="link_MainWindow_ResultDisplay"><path codeLine="35" d="M505.6443,235.5043 C441.1843,251.5243 340.103,276.6533 273.853,293.1133 " fill="none" id="MainWindow-ResultDisplay" style="stroke:#0E4100;stroke-width:1.1;"/><polygon fill="#0E4100" points="517.29,232.61,510.5024,230.1752,505.6443,235.5043,512.4319,237.939,517.29,232.61" style="stroke:#0E4100;stroke-width:1.1;"/><polygon fill="#0E4100" points="268.03,294.56,277.7289,296.2719,272.8825,293.3544,275.8,288.5079,268.03,294.56" style="stroke:#0E4100;stroke-width:1.1;"/><text fill="#000000" font-family="sans-serif" font-size="13" font-weight="bold" lengthAdjust="spacing" textLength="7" x="275.9205" y="288.3461">1</text></g><!--link MainWindow to PersonListPanel--><g id="link_MainWindow_PersonListPanel"><path codeLine="36" d="M584.5794,242.1339 C602.1694,258.2039 619.1818,273.7615 636.7918,289.8615 " fill="none" id="MainWindow-PersonListPanel" style="stroke:#0E4100;stroke-width:1.1;"/><polygon fill="#0E4100" points="575.72,234.04,577.4518,241.0401,584.5794,242.1339,582.8477,235.1338,575.72,234.04" style="stroke:#0E4100;stroke-width:1.1;"/><polygon fill="#0E4100" points="641.22,293.91,637.2767,284.885,637.5298,290.5362,631.8786,290.7894,641.22,293.91" style="stroke:#0E4100;stroke-width:1.1;"/><text fill="#000000" font-family="sans-serif" font-size="13" font-weight="bold" lengthAdjust="spacing" textLength="7" x="627.632" y="282.6181">1</text></g><!--link MainWindow to MeetingListPanel--><g id="link_MainWindow_MeetingListPanel"><path codeLine="37" d="M609.187,238.0022 C655.127,254.0722 717.3166,275.8287 763.3366,291.9287 " fill="none" id="MainWindow-MeetingListPanel" style="stroke:#0E4100;stroke-width:1.1;"/><polygon fill="#0E4100" points="597.86,234.04,602.2028,239.7968,609.187,238.0022,604.8442,232.2455,597.86,234.04" style="stroke:#0E4100;stroke-width:1.1;"/><polygon fill="#0E4100" points="769,293.91,761.8258,287.1624,764.2805,292.2589,759.184,294.7136,769,293.91" style="stroke:#0E4100;stroke-width:1.1;"/><text fill="#000000" font-family="sans-serif" font-size="13" font-weight="bold" lengthAdjust="spacing" textLength="7" x="746.9406" y="282.6181">1</text></g><!--link MainWindow to StatusBarFooter--><g id="link_MainWindow_StatusBarFooter"><path codeLine="38" d="M505.2724,231.5043 C417.1624,247.0443 239.5588,278.3578 142.6688,295.4478 " fill="none" id="MainWindow-StatusBarFooter" style="stroke:#0E4100;stroke-width:1.1;"/><polygon fill="#0E4100" points="517.09,229.42,510.4864,226.5229,505.2724,231.5043,511.876,234.4013,517.09,229.42" style="stroke:#0E4100;stroke-width:1.1;"/><polygon fill="#0E4100" points="136.76,296.49,146.318,298.8659,141.684,295.6215,144.9284,290.9875,136.76,296.49" style="stroke:#0E4100;stroke-width:1.1;"/><text fill="#000000" font-family="sans-serif" font-size="13" font-weight="bold" lengthAdjust="spacing" textLength="7" x="144.4808" y="291.0528">1</text></g><!--link MainWindow to HelpWindow--><g id="link_MainWindow_HelpWindow"><path codeLine="39" d="M550.2,234.04 C535.07,250.11 513.1118,273.4404 497.9618,289.5404 " fill="none" id="MainWindow-to-HelpWindow" style="stroke:#0E4100;stroke-width:1.1;"/><polygon fill="#0E4100" points="493.85,293.91,502.9307,290.0968,497.2765,290.2687,497.1046,284.6144,493.85,293.91" style="stroke:#0E4100;stroke-width:1.1;"/><text fill="#000000" font-family="sans-serif" font-size="13" font-weight="bold" lengthAdjust="spacing" textLength="22" x="472.1741" y="282.6181">0..1</text></g><!--link PersonListPanel to PersonCard--><g id="link_PersonListPanel_PersonCard"><path codeLine="41" d="M666.25,321.15 C694.54,352.96 764.4318,431.5273 792.7418,463.3473 " fill="none" id="PersonListPanel-to-PersonCard" style="stroke:#0E4100;stroke-width:1.1;"/><polygon fill="#0E4100" points="796.73,467.83,793.7362,458.4472,793.4065,464.0944,787.7593,463.7648,796.73,467.83" style="stroke:#0E4100;stroke-width:1.1;"/><text fill="#000000" font-family="sans-serif" font-size="13" font-weight="bold" lengthAdjust="spacing" textLength="5" x="786.6523" y="456.7814">*</text></g><!--link MeetingListPanel to MeetingCard--><g id="link_MeetingListPanel_MeetingCard"><path codeLine="43" d="M805,321.04 C805,337.11 805,358.81 805,374.91 " fill="none" id="MeetingListPanel-to-MeetingCard" style="stroke:#0E4100;stroke-width:1.1;"/><polygon fill="#0E4100" points="805,380.91,809,371.91,805,375.91,801,371.91,805,380.91" style="stroke:#0E4100;stroke-width:1.1;"/><text fill="#000000" font-family="sans-serif" font-size="13" font-weight="bold" lengthAdjust="spacing" textLength="5" x="799.0469" y="369.6181">*</text></g><!--reverse link UiPart to MainWindow--><g id="link_UiPart_MainWindow"><path codeLine="45" d="M571.3446,537.3951 C580.6746,470.9951 577.7,286.75 567.42,234.13 " fill="none" id="UiPart-backto-MainWindow" style="stroke:#0E4100;stroke-width:1.1;"/><polygon fill="none" points="568.84,555.22,577.2862,538.23,565.403,536.5602,568.84,555.22" style="stroke:#0E4100;stroke-width:1.1;"/></g><!--link MainWindow to UiPart--><!--link ResultDisplay to UiPart--><g id="link_ResultDisplay_UiPart"><path codeLine="47" d="M236.04,321.07 C290.18,363.5 452.4617,490.6678 520.6217,544.0778 " fill="none" id="ResultDisplay-to-UiPart" style="stroke:#0E4100;stroke-width:1.1;"/><polygon fill="none" points="534.79,555.18,524.3225,539.355,516.921,548.8005,534.79,555.18" style="stroke:#0E4100;stroke-width:1.1;"/></g><!--link CommandBox to UiPart--><g id="link_CommandBox_UiPart"><path codeLine="48" d="M362.8,321.07 C395.89,363.5 492.651,487.5757 534.301,540.9857 " fill="none" id="CommandBox-to-UiPart" style="stroke:#0E4100;stroke-width:1.1;"/><polygon fill="none" points="545.37,555.18,539.0325,537.296,529.5696,544.6753,545.37,555.18" style="stroke:#0E4100;stroke-width:1.1;"/></g><!--link PersonListPanel to UiPart--><g id="link_PersonListPanel_UiPart"><path codeLine="49" d="M650.64,321.07 C635.92,363.5 593.8299,484.7644 575.2999,538.1744 " fill="none" id="PersonListPanel-to-UiPart" style="stroke:#0E4100;stroke-width:1.1;"/><polygon fill="none" points="569.4,555.18,580.9684,540.141,569.6314,536.2077,569.4,555.18" style="stroke:#0E4100;stroke-width:1.1;"/></g><!--link PersonCard to UiPart--><g id="link_PersonCard_UiPart"><path codeLine="50" d="M775.08,495.08 C728.6,512.84 660.9535,538.6831 613.5235,556.8131 " fill="none" id="PersonCard-to-UiPart" style="stroke:#0E4100;stroke-width:1.1;"/><polygon fill="none" points="596.71,563.24,615.6658,562.4176,611.3812,551.2086,596.71,563.24" style="stroke:#0E4100;stroke-width:1.1;"/></g><!--link MeetingListPanel to UiPart--><g id="link_MeetingListPanel_UiPart"><path codeLine="51" d="M793.61,321.07 C755.13,363.5 641.8511,488.4356 593.4211,541.8456 " fill="none" id="MeetingListPanel-to-UiPart" style="stroke:#0E4100;stroke-width:1.1;"/><polygon fill="none" points="581.33,555.18,597.8659,545.876,588.9763,537.8153,581.33,555.18" style="stroke:#0E4100;stroke-width:1.1;"/></g><!--link MeetingCard to UiPart--><g id="link_MeetingCard_UiPart"><path codeLine="52" d="M793.65,408.11 C775.37,428.01 737.69,467.29 701,495 C667.51,520.29 641.485,535.5488 612.475,550.7888 " fill="none" id="MeetingCard-to-UiPart" style="stroke:#0E4100;stroke-width:1.1;"/><polygon fill="none" points="596.54,559.16,615.2654,556.1004,609.6846,545.4771,596.54,559.16" style="stroke:#0E4100;stroke-width:1.1;"/></g><!--link StatusBarFooter to UiPart--><g id="link_StatusBarFooter_UiPart"><path codeLine="53" d="M102.6,321.07 C179.93,364.06 418.5681,496.7531 511.6981,548.5331 " fill="none" id="StatusBarFooter-to-UiPart" style="stroke:#0E4100;stroke-width:1.1;"/><polygon fill="none" points="527.43,557.28,514.6137,543.2892,508.7825,553.7771,527.43,557.28" style="stroke:#0E4100;stroke-width:1.1;"/></g><!--link HelpWindow to UiPart--><g id="link_HelpWindow_UiPart"><path codeLine="54" d="M485.75,321.07 C498.42,363.5 534.5394,484.5227 550.4894,537.9327 " fill="none" id="HelpWindow-to-UiPart" style="stroke:#0E4100;stroke-width:1.1;"/><polygon fill="none" points="555.64,555.18,556.2385,536.2158,544.7403,539.6495,555.64,555.18" style="stroke:#0E4100;stroke-width:1.1;"/></g><!--link PersonCard to Model--><g id="link_PersonCard_Model"><path codeLine="56" d="M850.82,489.02 C860.82,492.05 870.9,496.49 879,503 C893.045,514.28 902.8675,531.8775 909.2638,547.0262 C909.6635,547.973 910.0499,548.9103 910.4231,549.8358 C910.6097,550.2986 908.5924,545.1765 908.7724,545.6332 " fill="none" id="PersonCard-to-Model" style="stroke:#0E4100;stroke-width:1.1;stroke-dasharray:7.0,7.0;"/><polygon fill="#0E4100" points="910.973,551.215,911.3934,541.3752,909.1392,546.5635,903.9509,544.3093,910.973,551.215" style="stroke:#0E4100;stroke-width:1.1;"/></g><!--link MeetingCard to Model--><g id="link_MeetingCard_Model"><path codeLine="57" d="M818.03,408.24 C831.68,422.06 853.16,445.23 868,468 C882.315,489.975 894.8925,516.6025 903.975,537.9788 C906.2456,543.3228 908.2978,548.3387 910.1041,552.8716 C910.3299,553.4382 910.5518,553.9973 910.7699,554.5485 C910.8244,554.6863 908.6751,549.2429 908.7291,549.3797 " fill="none" id="MeetingCard-to-Model" style="stroke:#0E4100;stroke-width:1.1;stroke-dasharray:7.0,7.0;"/><polygon fill="#0E4100" points="910.9327,554.9604,911.3478,545.1203,909.0964,550.3098,903.9068,548.0584,910.9327,554.9604" style="stroke:#0E4100;stroke-width:1.1;"/></g><!--link UiManager to Logic--><g id="link_UiManager_Logic"><path codeLine="58" d="M730.87,118.98 C778.18,122.12 855.75,129.63 879,146 C893.73,156.37 903.575,173.9375 909.8113,189.2975 C910.201,190.2575 908.4219,185.6091 908.7838,186.5496 " fill="none" id="UiManager-to-Logic" style="stroke:#0E4100;stroke-width:1.1;"/><polygon fill="#0E4100" points="910.9386,192.1493,911.4396,182.3132,909.1429,187.4829,903.9733,185.1862,910.9386,192.1493" style="stroke:#0E4100;stroke-width:1.1;"/></g><!--reverse link Logic to MainWindow--><g id="link_Logic_MainWindow"><path codeLine="59" d="M903.8653,220.5 C900.6178,220.5 902.1525,220.5 898.905,220.5 C892.41,220.5 885.915,220.5 879.42,220.5 C866.43,220.5 853.4399,220.5 840.4498,220.5 C814.4697,220.5 788.4894,220.5 762.5088,220.5 C710.5475,220.5 658.585,220.5 606.62,220.5 " fill="none" id="Logic-backto-MainWindow" style="stroke:#0E4100;stroke-width:1.1;"/><polygon fill="#0E4100" points="909.8653,220.5,900.8653,216.5,904.8653,220.5,900.8653,224.5,909.8653,220.5" style="stroke:#0E4100;stroke-width:1.1;"/></g><!--link HelpWindow to PersonListPanel--><!--link PersonListPanel to MeetingListPanel--><!--link CommandBox to HelpWindow--><!--link ResultDisplay to CommandBox--><!--link StatusBarFooter to ResultDisplay--><!--SRC=[VP91Yzim48Nl_XMgUrk8QA37aCDwMRQGa91kwA4jozJMEYAAP2IPxRBT_rv9iIEDtDGd-yqtrkZD-y1bBVg64MDV1QDTVnA5ENBPWOOJ0QtLo-E1rqV9Z25pEi-BbH9Aa_sNfsgpskoU7ZydG2t0c5keZwrMlMmmMXITgq3Bd48MYnshBSXMiENohQXy8oaN2oujqyzGE_M7tFEIW25xFjRVu9Un6chxxejRq7O0_Ei0xVaQf3j53zzhuF8Rburw6OG79Zeax9ZfXRtZfXFmEcXRfesIAsxi5YGJIAr0D-FF6RDSjZato0durOBjdJNwNYbxcQrIfnF8vbRzBjwZFMlLC84T8gD53xnfc3mJ7-_3axQkLClh_xQUYQGrBMvwQxYBnbZ6AgLBlulYuZ2XWZrR-YV8KPqvQ-LiISfvcReVNydDY0GcSU5VZ4VmYgvH-TAkSPEjNGFphINSp2EVA7LK4gWY6o5wSLEcwIdo4H2OnWUTsNUpO7Q8Uu5CSGF5KdGKoPFX9ZL_99AdSqwBGrDIo7n3JT4j9AS3-A25YACJQ9IJh6dU7gppBUGQcUMpUIbCx_xz4CBzCs3f3g-IvwEcwKblXF-Q93jT2OPmjhEbOZJF8xhlY4PJ_m80]--></g></svg>