<?xml version="1.0" encoding="us-ascii" standalone="no"?><svg xmlns="http://www.w3.org/2000/svg" xmlns:xlink="http://www.w3.org/1999/xlink" contentStyleType="text/css" height="409px" preserveAspectRatio="none" style="width:622px;height:409px;background:#FFFFFF;" version="1.1" viewBox="0 0 622 409" width="622px" zoomAndPan="magnify"><defs/><g><rect fill="#C8C8FA" height="390.8613" style="stroke:#181818;stroke-width:0.5;" width="463" x="38" y="6"/><text fill="#FFFFFF" font-family="sans-serif" font-size="13" font-weight="bold" lengthAdjust="spacing" textLength="35" x="250" y="20.0283">Logic</text><rect fill="#F97181" height="390.8613" style="stroke:#181818;stroke-width:0.5;" width="95" x="521" y="6"/><text fill="#FFFFFF" font-family="sans-serif" font-size="13" font-weight="bold" lengthAdjust="spacing" textLength="39" x="547" y="20.0283">Model</text><rect fill="#FFFFFF" height="290.6582" style="stroke:#181818;stroke-width:1.0;" width="10" x="101" y="94.2031"/><rect fill="#FFFFFF" height="88.9121" style="stroke:#181818;stroke-width:1.0;" width="10" x="257" y="125.4941"/><rect fill="#FFFFFF" height="33.6211" style="stroke:#181818;stroke-width:1.0;" width="10" x="420.5" y="149.4941"/><rect fill="#FFFFFF" height="76.582" style="stroke:#181818;stroke-width:1.0;" width="10" x="420.5" y="245.6973"/><rect fill="#FFFFFF" height="14" style="stroke:#181818;stroke-width:1.0;" width="10" x="563.5" y="276.9883"/><line style="stroke:#181818;stroke-width:0.5;stroke-dasharray:5.0,5.0;" x1="106" x2="106" y1="60.9121" y2="402.8613"/><line style="stroke:#181818;stroke-width:0.5;stroke-dasharray:5.0,5.0;" x1="262" x2="262" y1="60.9121" y2="402.8613"/><line style="stroke:#181818;stroke-width:0.5;stroke-dasharray:5.0,5.0;" x1="425" x2="425" y1="165.3047" y2="402.8613"/><line style="stroke:#181818;stroke-width:0.5;stroke-dasharray:5.0,5.0;" x1="568" x2="568" y1="60.9121" y2="402.8613"/><rect fill="#3333C4" height="32.6211" rx="2.5" ry="2.5" style="stroke:#181818;stroke-width:0.5;" width="108" x="52" y="27.291"/><text fill="#FFFFFF" font-family="sans-serif" font-size="14" lengthAdjust="spacing" textLength="94" x="59" y="49.3984">:LogicManager</text><rect fill="#3333C4" height="32.6211" rx="2.5" ry="2.5" style="stroke:#181818;stroke-width:0.5;" width="144" x="190" y="27.291"/><text fill="#FFFFFF" font-family="sans-serif" font-size="14" lengthAdjust="spacing" textLength="130" x="197" y="49.3984">:AddressBookParser</text><rect fill="#9D0012" height="32.6211" rx="2.5" ry="2.5" style="stroke:#181818;stroke-width:0.5;" width="67" x="535" y="27.291"/><text fill="#FFFFFF" font-family="sans-serif" font-size="14" lengthAdjust="spacing" textLength="53" x="542" y="49.3984">m:Model</text><rect fill="#FFFFFF" height="290.6582" style="stroke:#181818;stroke-width:1.0;" width="10" x="101" y="94.2031"/><rect fill="#FFFFFF" height="88.9121" style="stroke:#181818;stroke-width:1.0;" width="10" x="257" y="125.4941"/><rect fill="#FFFFFF" height="33.6211" style="stroke:#181818;stroke-width:1.0;" width="10" x="420.5" y="149.4941"/><rect fill="#FFFFFF" height="76.582" style="stroke:#181818;stroke-width:1.0;" width="10" x="420.5" y="245.6973"/><rect fill="#FFFFFF" height="14" style="stroke:#181818;stroke-width:1.0;" width="10" x="563.5" y="276.9883"/><polygon fill="#181818" points="89,90.2031,99,94.2031,89,98.2031,93,94.2031" style="stroke:#181818;stroke-width:1.0;"/><line style="stroke:#181818;stroke-width:1.0;" x1="0" x2="95" y1="94.2031" y2="94.2031"/><text fill="#000000" font-family="sans-serif" font-size="13" lengthAdjust="spacing" textLength="82" x="9.5" y="88.9404">execute(undo)</text><polygon fill="#181818" points="245,121.4941,255,125.4941,245,129.4941,249,125.4941" style="stroke:#181818;stroke-width:1.0;"/><line style="stroke:#181818;stroke-width:1.0;" x1="111" x2="251" y1="125.4941" y2="125.4941"/><text fill="#000000" font-family="sans-serif" font-size="13" lengthAdjust="spacing" textLength="127" x="120.5" y="120.2314">parseCommand(undo)</text><polygon fill="#181818" points="352,135.4941,362,139.4941,352,143.4941,356,139.4941" style="stroke:#181818;stroke-width:1.0;"/><line style="stroke:#181818;stroke-width:1.0;" x1="267" x2="358" y1="139.4941" y2="139.4941"/><rect fill="#3333C4" height="32.6211" rx="2.5" ry="2.5" style="stroke:#181818;stroke-width:0.5;" width="123" x="364" y="133.4941"/><text fill="#FFFFFF" font-family="sans-serif" font-size="14" lengthAdjust="spacing" textLength="109" x="371" y="155.6016">u:UndoCommand</text><polygon fill="#181818" points="278,179.1152,268,183.1152,278,187.1152,274,183.1152" style="stroke:#181818;stroke-width:1.0;"/><line style="stroke:#181818;stroke-width:1.0;stroke-dasharray:2.0,2.0;" x1="272" x2="424.5" y1="183.1152" y2="183.1152"/><polygon fill="#181818" points="122,210.4063,112,214.4063,122,218.4063,118,214.4063" style="stroke:#181818;stroke-width:1.0;"/><line style="stroke:#181818;stroke-width:1.0;stroke-dasharray:2.0,2.0;" x1="116" x2="261" y1="214.4063" y2="214.4063"/><text fill="#000000" font-family="sans-serif" font-size="13" lengthAdjust="spacing" textLength="7" x="183" y="209.1436">u</text><polygon fill="#181818" points="408.5,241.6973,418.5,245.6973,408.5,249.6973,412.5,245.6973" style="stroke:#181818;stroke-width:1.0;"/><line style="stroke:#181818;stroke-width:1.0;" x1="111" x2="414.5" y1="245.6973" y2="245.6973"/><text fill="#000000" font-family="sans-serif" font-size="13" lengthAdjust="spacing" textLength="65" x="233.25" y="240.4346">execute(m)</text><polygon fill="#181818" points="551.5,272.9883,561.5,276.9883,551.5,280.9883,555.5,276.9883" style="stroke:#181818;stroke-width:1.0;"/><line style="stroke:#181818;stroke-width:1.0;" x1="430.5" x2="557.5" y1="276.9883" y2="276.9883"/><text fill="#000000" font-family="sans-serif" font-size="13" lengthAdjust="spacing" textLength="114" x="440" y="271.7256">undoAddressBook()</text><polygon fill="#181818" points="441.5,286.9883,431.5,290.9883,441.5,294.9883,437.5,290.9883" style="stroke:#181818;stroke-width:1.0;"/><line style="stroke:#181818;stroke-width:1.0;stroke-dasharray:2.0,2.0;" x1="435.5" x2="567.5" y1="290.9883" y2="290.9883"/><polygon fill="#181818" points="122,318.2793,112,322.2793,122,326.2793,118,322.2793" style="stroke:#181818;stroke-width:1.0;"/><line style="stroke:#181818;stroke-width:1.0;stroke-dasharray:2.0,2.0;" x1="116" x2="424.5" y1="322.2793" y2="322.2793"/><text fill="#000000" font-family="sans-serif" font-size="13" lengthAdjust="spacing" textLength="32" x="252.25" y="317.0166">result</text><polygon fill="#181818" points="11,380.8613,1,384.8613,11,388.8613,7,384.8613" style="stroke:#181818;stroke-width:1.0;"/><line style="stroke:#181818;stroke-width:1.0;stroke-dasharray:2.0,2.0;" x1="5" x2="105" y1="384.8613" y2="384.8613"/><text fill="#000000" font-family="sans-serif" font-size="13" lengthAdjust="spacing" textLength="32" x="37" y="379.5986">result</text><line style="stroke:#A80036;stroke-width:2.0;" x1="416.5" x2="434.5" y1="375.8613" y2="393.8613"/><line style="stroke:#A80036;stroke-width:2.0;" x1="416.5" x2="434.5" y1="393.8613" y2="375.8613"/><!--SRC=[ZLB9QiCm4BtFLwWv9GSNUZKbaAOB1HkNBgTGWceDgOWj6IrjylUL7PEEDzgRDNhBl2TVI9KNNY2pxbZWPUNB0knUgeeRNhALCVhxNYltKj-ogk1I0Npe0qlqJkOioHuUrzjrbcJFszSh22GdSrbnvTWiRY0fLto7PiQuPNH0gJtUIWY3rjvelN_YnhRamNHQmSTlIkYrBakkH4CcvmuDmpcaEKLAjS22fTdjNJ8HgOmRJ2CvG9_5Dj6o6pLcUC3SEvpxiCS2UExa5tVOGG5qE45Zc3XcLVtH9kch3V00kS7wXiI7eMgmee2p7Xq2RJ0QMmu4ZZD738S5UKeV2TBlXgxpMs-v-C_so_RjWciO4xCveJSGW1CowbL4Tcrn_NfwyOA3BznKHHtovbCAWUfzKWGsrr7qftxdrn9edT57Qle3]--></g></svg>